<svg width="263" height="170" viewBox="0 0 263 170" fill="none" xmlns="http://www.w3.org/2000/svg">
<g clip-path="url(#clip0_0_1165)">
<path fill-rule="evenodd" clip-rule="evenodd" d="M0 10C0 4.47715 4.47715 0 10 0L253 0C258.523 0 263 4.47715 263 10V160C263 165.523 258.523 170 253 170H10C4.47715 170 0 165.523 0 160L0 10Z" fill="#FF4F52"/>
<mask id="mask0_0_1165" style="mask-type:luminance" maskUnits="userSpaceOnUse" x="0" y="0" width="263" height="170">
<path fill-rule="evenodd" clip-rule="evenodd" d="M0 10C0 4.47715 4.47715 0 10 0L253 0C258.523 0 263 4.47715 263 10V160C263 165.523 258.523 170 253 170H10C4.47715 170 0 165.523 0 160L0 10Z" fill="white"/>
</mask>
<g mask="url(#mask0_0_1165)">
<path d="M78.6936 82.7203L104.851 57.5314L118.181 76.5735L118.35 76.8153L118.624 76.9265L143.796 87.1527L156.321 98.7342L156.373 98.7821L156.431 98.8222L169.431 107.822L169.886 108.137L170.394 107.919L184.187 102.008L209.467 102.98L235.182 139.575L235.434 139.934L235.87 139.992L264.204 143.702L264.007 171H-1V24.7232L25.3659 39.7894L64.5119 82.9633L64.8188 83.3018L65.2756 83.2914L78.0229 82.9997L78.4127 82.9908L78.6936 82.7203Z" fill="#DE373A" fill-opacity="0.5" stroke="#DE373A" stroke-width="2"/>
<path d="M245 104.689H236.273V101.638C236.273 101.03 236.378 100.529 236.588 100.134C236.795 99.739 237.075 99.445 237.428 99.2518C237.777 99.0586 238.165 98.962 238.591 98.962C238.966 98.962 239.276 99.0288 239.52 99.1623C239.764 99.293 239.957 99.4663 240.099 99.6822C240.241 99.8952 240.347 100.127 240.415 100.377H240.5C240.517 100.11 240.611 99.8413 240.781 99.5714C240.952 99.3015 241.196 99.0756 241.514 98.8938C241.832 98.712 242.222 98.6211 242.682 98.6211C243.119 98.6211 243.513 98.7205 243.862 98.9194C244.212 99.1183 244.489 99.4322 244.693 99.8612C244.898 100.29 245 100.848 245 101.536V104.689ZM244.062 103.632V101.536C244.062 100.846 243.929 100.355 243.662 100.066C243.392 99.7731 243.065 99.6268 242.682 99.6268C242.386 99.6268 242.114 99.7021 241.864 99.8526C241.611 100.003 241.409 100.218 241.259 100.496C241.105 100.775 241.028 101.104 241.028 101.485V103.632H244.062ZM240.108 103.632V101.672C240.108 101.354 240.045 101.067 239.92 100.811C239.795 100.553 239.619 100.348 239.392 100.198C239.165 100.044 238.898 99.9677 238.591 99.9677C238.207 99.9677 237.882 100.101 237.615 100.368C237.345 100.635 237.21 101.059 237.21 101.638V103.632H240.108ZM245 97.021H238.455V96.0153H245V97.021ZM237.364 96.5096C237.364 96.7056 237.297 96.8746 237.163 97.0167C237.03 97.1559 236.869 97.2255 236.682 97.2255C236.494 97.2255 236.334 97.1559 236.2 97.0167C236.067 96.8746 236 96.7056 236 96.5096C236 96.3136 236.067 96.146 236.2 96.0067C236.334 95.8647 236.494 95.7937 236.682 95.7937C236.869 95.7937 237.03 95.8647 237.163 96.0067C237.297 96.146 237.364 96.3136 237.364 96.5096ZM238.455 91.3267H239.307V94.7188H238.455V91.3267ZM236.886 93.7301V92.7244H243.125C243.409 92.7244 243.622 92.6832 243.764 92.6009C243.903 92.5156 243.997 92.4077 244.045 92.277C244.091 92.1435 244.114 92.0028 244.114 91.8551C244.114 91.7443 244.108 91.6534 244.097 91.5824C244.082 91.5114 244.071 91.4545 244.062 91.4119L244.966 91.2074C244.991 91.2756 245.017 91.3707 245.043 91.4929C245.071 91.6151 245.085 91.7699 245.085 91.9574C245.085 92.2415 245.024 92.5199 244.902 92.7926C244.78 93.0625 244.594 93.2869 244.344 93.4659C244.094 93.642 243.778 93.7301 243.398 93.7301H236.886ZM238.455 86.8991H239.307V90.4276H238.455V86.8991ZM245 89.3707H237.551C237.176 89.3707 236.864 89.2827 236.614 89.1065C236.364 88.9304 236.176 88.7017 236.051 88.4205C235.926 88.1392 235.864 87.8423 235.864 87.5298C235.864 87.2827 235.884 87.081 235.923 86.9247C235.963 86.7685 236 86.652 236.034 86.5753L236.903 86.8651C236.886 86.9162 236.865 86.9872 236.839 87.0781C236.814 87.1662 236.801 87.2827 236.801 87.4276C236.801 87.7599 236.885 88 237.053 88.1477C237.22 88.2926 237.466 88.3651 237.79 88.3651H245V89.3707ZM245 85.4897H238.455V84.484H245V85.4897ZM237.364 84.9783C237.364 85.1744 237.297 85.3434 237.163 85.4854C237.03 85.6246 236.869 85.6942 236.682 85.6942C236.494 85.6942 236.334 85.6246 236.2 85.4854C236.067 85.3434 236 85.1744 236 84.9783C236 84.7823 236.067 84.6147 236.2 84.4755C236.334 84.3335 236.494 84.2624 236.682 84.2624C236.869 84.2624 237.03 84.3335 237.163 84.4755C237.297 84.6147 237.364 84.7823 237.364 84.9783ZM241.062 81.6364H245V82.642H238.455V81.6705H239.477V81.5852C239.145 81.4318 238.878 81.1989 238.676 80.8864C238.472 80.5739 238.369 80.1705 238.369 79.6761C238.369 79.233 238.46 78.8452 238.642 78.5128C238.821 78.1804 239.094 77.9219 239.46 77.7372C239.824 77.5526 240.284 77.4602 240.841 77.4602H245V78.4659H240.909C240.395 78.4659 239.994 78.5994 239.707 78.8665C239.418 79.1335 239.273 79.5 239.273 79.9659C239.273 80.2869 239.342 80.5739 239.482 80.8267C239.621 81.0767 239.824 81.2741 240.091 81.419C240.358 81.5639 240.682 81.6364 241.062 81.6364ZM245.136 72.8782C245.136 73.5089 244.997 74.0529 244.719 74.5103C244.438 74.9648 244.045 75.3157 243.543 75.5629C243.037 75.8072 242.449 75.9293 241.778 75.9293C241.108 75.9293 240.517 75.8072 240.006 75.5629C239.491 75.3157 239.091 74.9719 238.804 74.5316C238.514 74.0884 238.369 73.5714 238.369 72.9805C238.369 72.6396 238.426 72.3029 238.54 71.9705C238.653 71.6381 238.838 71.3356 239.094 71.0629C239.347 70.7901 239.682 70.5728 240.099 70.4109C240.517 70.2489 241.031 70.168 241.642 70.168H242.068V75.2134H241.199V71.1907C240.83 71.1907 240.5 71.2646 240.21 71.4123C239.92 71.5572 239.692 71.7646 239.524 72.0344C239.357 72.3015 239.273 72.6168 239.273 72.9805C239.273 73.381 239.372 73.7276 239.571 74.0202C239.767 74.31 240.023 74.533 240.338 74.6893C240.653 74.8455 240.991 74.9237 241.352 74.9237H241.932C242.426 74.9237 242.845 74.8384 243.189 74.668C243.53 74.4947 243.79 74.2546 243.969 73.9478C244.145 73.641 244.233 73.2844 244.233 72.8782C244.233 72.614 244.196 72.3754 244.122 72.1623C244.045 71.9464 243.932 71.7603 243.781 71.604C243.628 71.4478 243.437 71.3271 243.21 71.2418L243.483 70.2702C243.812 70.3725 244.102 70.5444 244.352 70.7859C244.599 71.0273 244.793 71.3256 244.932 71.6808C245.068 72.0359 245.136 72.435 245.136 72.8782ZM238.455 68.0639L241.131 66.4957L238.455 64.9276V63.7685L241.727 65.8821L245 63.7685V64.9276L242.46 66.4957L245 68.0639V69.223L241.727 67.1435L238.455 69.223V68.0639Z" fill="#FFC4C9"/>
<path d="M28.9716 138.273V147H27.9148V139.381H27.8636L25.733 140.795V139.722L27.9148 138.273H28.9716ZM32.483 145.807L32.4148 146.267C32.3665 146.591 32.2926 146.938 32.1932 147.307C32.0966 147.676 31.9957 148.024 31.8906 148.351C31.7855 148.678 31.6989 148.938 31.6307 149.131H30.8636C30.9006 148.949 30.9489 148.709 31.0085 148.411C31.0682 148.112 31.1278 147.778 31.1875 147.409C31.25 147.043 31.3011 146.668 31.3409 146.284L31.392 145.807H32.483ZM36.8807 147.119C36.3807 147.119 35.9304 147.02 35.5298 146.821C35.1293 146.622 34.8082 146.349 34.5668 146.003C34.3253 145.656 34.1932 145.261 34.1705 144.818H35.1932C35.233 145.213 35.4119 145.54 35.7301 145.798C36.0511 146.054 36.4347 146.182 36.8807 146.182C37.2386 146.182 37.5568 146.098 37.8352 145.93C38.1165 145.763 38.3366 145.533 38.4957 145.24C38.6577 144.945 38.7386 144.611 38.7386 144.239C38.7386 143.858 38.6548 143.518 38.4872 143.22C38.3224 142.919 38.0952 142.682 37.8054 142.509C37.5156 142.335 37.1847 142.247 36.8125 142.244C36.5455 142.241 36.2713 142.283 35.9901 142.368C35.7088 142.45 35.4773 142.557 35.2955 142.688L34.3068 142.568L34.8352 138.273H39.3693V139.21H35.7216L35.4148 141.784H35.4659C35.6449 141.642 35.8693 141.524 36.1392 141.43C36.4091 141.337 36.6903 141.29 36.983 141.29C37.517 141.29 37.9929 141.418 38.4105 141.673C38.831 141.926 39.1605 142.273 39.3991 142.713C39.6406 143.153 39.7614 143.656 39.7614 144.222C39.7614 144.778 39.6364 145.276 39.3864 145.713C39.1392 146.148 38.7983 146.491 38.3636 146.744C37.929 146.994 37.4347 147.119 36.8807 147.119ZM44.3519 147.119C43.994 147.114 43.636 147.045 43.2781 146.915C42.9201 146.784 42.5934 146.564 42.2979 146.254C42.0025 145.942 41.7653 145.52 41.5863 144.989C41.4073 144.455 41.3178 143.784 41.3178 142.977C41.3178 142.205 41.3903 141.52 41.5352 140.923C41.68 140.324 41.8903 139.82 42.1658 139.411C42.4414 138.999 42.7738 138.686 43.163 138.473C43.555 138.26 43.9968 138.153 44.4883 138.153C44.9769 138.153 45.4116 138.251 45.7923 138.447C46.1758 138.641 46.4883 138.911 46.7298 139.257C46.9712 139.604 47.1275 140.003 47.1985 140.455H46.1587C46.0621 140.062 45.8746 139.737 45.5962 139.479C45.3178 139.22 44.9485 139.091 44.4883 139.091C43.8121 139.091 43.2795 139.385 42.8903 139.973C42.5039 140.561 42.3093 141.386 42.3065 142.449H42.3746C42.5337 142.207 42.7227 142.001 42.9414 141.831C43.163 141.658 43.4073 141.524 43.6744 141.43C43.9414 141.337 44.2241 141.29 44.5224 141.29C45.0224 141.29 45.4798 141.415 45.8945 141.665C46.3093 141.912 46.6417 142.254 46.8917 142.692C47.1417 143.126 47.2667 143.625 47.2667 144.188C47.2667 144.727 47.146 145.222 46.9045 145.67C46.663 146.116 46.3235 146.472 45.886 146.736C45.4513 146.997 44.94 147.125 44.3519 147.119ZM44.3519 146.182C44.7099 146.182 45.0309 146.092 45.315 145.913C45.6019 145.734 45.8278 145.494 45.9925 145.193C46.1602 144.892 46.244 144.557 46.244 144.188C46.244 143.827 46.163 143.499 46.0011 143.203C45.842 142.905 45.6218 142.668 45.3406 142.491C45.0621 142.315 44.744 142.227 44.386 142.227C44.1161 142.227 43.8647 142.281 43.6317 142.389C43.3988 142.494 43.1942 142.639 43.0181 142.824C42.8448 143.009 42.7085 143.22 42.609 143.459C42.5096 143.695 42.4599 143.943 42.4599 144.205C42.4599 144.551 42.5408 144.875 42.7028 145.176C42.8675 145.477 43.092 145.72 43.3761 145.905C43.663 146.089 43.9883 146.182 44.3519 146.182ZM51.8402 147.119C51.4822 147.114 51.1243 147.045 50.7663 146.915C50.4084 146.784 50.0817 146.564 49.7862 146.254C49.4908 145.942 49.2536 145.52 49.0746 144.989C48.8956 144.455 48.8061 143.784 48.8061 142.977C48.8061 142.205 48.8786 141.52 49.0234 140.923C49.1683 140.324 49.3786 139.82 49.6541 139.411C49.9297 138.999 50.2621 138.686 50.6513 138.473C51.0433 138.26 51.4851 138.153 51.9766 138.153C52.4652 138.153 52.8999 138.251 53.2805 138.447C53.6641 138.641 53.9766 138.911 54.218 139.257C54.4595 139.604 54.6158 140.003 54.6868 140.455H53.647C53.5504 140.062 53.3629 139.737 53.0845 139.479C52.8061 139.22 52.4368 139.091 51.9766 139.091C51.3004 139.091 50.7678 139.385 50.3786 139.973C49.9922 140.561 49.7976 141.386 49.7947 142.449H49.8629C50.022 142.207 50.2109 142.001 50.4297 141.831C50.6513 141.658 50.8956 141.524 51.1626 141.43C51.4297 141.337 51.7124 141.29 52.0107 141.29C52.5107 141.29 52.968 141.415 53.3828 141.665C53.7976 141.912 54.13 142.254 54.38 142.692C54.63 143.126 54.755 143.625 54.755 144.188C54.755 144.727 54.6342 145.222 54.3928 145.67C54.1513 146.116 53.8118 146.472 53.3743 146.736C52.9396 146.997 52.4283 147.125 51.8402 147.119ZM51.8402 146.182C52.1982 146.182 52.5192 146.092 52.8033 145.913C53.0902 145.734 53.3161 145.494 53.4808 145.193C53.6484 144.892 53.7322 144.557 53.7322 144.188C53.7322 143.827 53.6513 143.499 53.4893 143.203C53.3303 142.905 53.1101 142.668 52.8288 142.491C52.5504 142.315 52.2322 142.227 51.8743 142.227C51.6044 142.227 51.353 142.281 51.12 142.389C50.8871 142.494 50.6825 142.639 50.5064 142.824C50.3331 143.009 50.1967 143.22 50.0973 143.459C49.9979 143.695 49.9482 143.943 49.9482 144.205C49.9482 144.551 50.0291 144.875 50.1911 145.176C50.3558 145.477 50.5803 145.72 50.8643 145.905C51.1513 146.089 51.4766 146.182 51.8402 146.182ZM59.9592 147V138.273H63.0103C63.6183 138.273 64.1197 138.378 64.5146 138.588C64.9094 138.795 65.2035 139.075 65.3967 139.428C65.5898 139.777 65.6864 140.165 65.6864 140.591C65.6864 140.966 65.6197 141.276 65.4862 141.52C65.3555 141.764 65.1822 141.957 64.9663 142.099C64.7532 142.241 64.5217 142.347 64.2717 142.415V142.5C64.5387 142.517 64.8072 142.611 65.0771 142.781C65.3469 142.952 65.5728 143.196 65.7546 143.514C65.9364 143.832 66.0273 144.222 66.0273 144.682C66.0273 145.119 65.9279 145.513 65.729 145.862C65.5302 146.212 65.2163 146.489 64.7873 146.693C64.3583 146.898 63.8001 147 63.1126 147H59.9592ZM61.016 146.062H63.1126C63.8029 146.062 64.293 145.929 64.5827 145.662C64.8754 145.392 65.0217 145.065 65.0217 144.682C65.0217 144.386 64.9464 144.114 64.7958 143.864C64.6452 143.611 64.4308 143.409 64.1523 143.259C63.8739 143.105 63.5444 143.028 63.1637 143.028H61.016V146.062ZM61.016 142.108H62.9762C63.2944 142.108 63.5813 142.045 63.837 141.92C64.0955 141.795 64.3001 141.619 64.4506 141.392C64.604 141.165 64.6808 140.898 64.6808 140.591C64.6808 140.207 64.5472 139.882 64.2802 139.615C64.0131 139.345 63.5898 139.21 63.0103 139.21H61.016V142.108ZM67.2866 139.21V138.273H73.832V139.21H71.0877V147H70.0309V139.21H67.2866ZM82.1225 141H81.0657C81.0032 140.696 80.8938 140.429 80.7376 140.199C80.5842 139.969 80.3967 139.776 80.1751 139.619C79.9563 139.46 79.7134 139.341 79.4464 139.261C79.1793 139.182 78.9009 139.142 78.6112 139.142C78.0827 139.142 77.604 139.276 77.1751 139.543C76.7489 139.81 76.4094 140.203 76.1566 140.723C75.9066 141.243 75.7816 141.881 75.7816 142.636C75.7816 143.392 75.9066 144.03 76.1566 144.55C76.4094 145.07 76.7489 145.463 77.1751 145.73C77.604 145.997 78.0827 146.131 78.6112 146.131C78.9009 146.131 79.1793 146.091 79.4464 146.011C79.7134 145.932 79.9563 145.814 80.1751 145.658C80.3967 145.499 80.5842 145.304 80.7376 145.074C80.8938 144.841 81.0032 144.574 81.0657 144.273H82.1225C82.043 144.719 81.8981 145.118 81.6879 145.47C81.4776 145.822 81.2163 146.122 80.9038 146.369C80.5913 146.614 80.2404 146.8 79.8512 146.928C79.4648 147.055 79.0515 147.119 78.6112 147.119C77.8668 147.119 77.2049 146.938 76.6254 146.574C76.0458 146.21 75.5898 145.693 75.2575 145.023C74.9251 144.352 74.7589 143.557 74.7589 142.636C74.7589 141.716 74.9251 140.92 75.2575 140.25C75.5898 139.58 76.0458 139.062 76.6254 138.699C77.2049 138.335 77.8668 138.153 78.6112 138.153C79.0515 138.153 79.4648 138.217 79.8512 138.345C80.2404 138.473 80.5913 138.661 80.9038 138.908C81.2163 139.152 81.4776 139.45 81.6879 139.803C81.8981 140.152 82.043 140.551 82.1225 141Z" fill="#FFC4C9"/>
<path opacity="0.85" d="M30.4489 109.362V110.456H25.9943V109.362H30.4489ZM35.8145 115.139C35.0654 115.139 34.4274 114.935 33.9004 114.528C33.3734 114.117 32.9707 113.522 32.6923 112.743C32.4139 111.961 32.2747 111.016 32.2747 109.909C32.2747 108.809 32.4139 107.869 32.6923 107.09C32.974 106.308 33.3784 105.711 33.9054 105.3C34.4357 104.886 35.072 104.679 35.8145 104.679C36.5569 104.679 37.1916 104.886 37.7186 105.3C38.2489 105.711 38.6532 106.308 38.9316 107.09C39.2134 107.869 39.3542 108.809 39.3542 109.909C39.3542 111.016 39.215 111.961 38.9366 112.743C38.6582 113.522 38.2555 114.117 37.7285 114.528C37.2015 114.935 36.5635 115.139 35.8145 115.139ZM35.8145 114.045C36.5569 114.045 37.1336 113.687 37.5446 112.972C37.9556 112.256 38.161 111.235 38.161 109.909C38.161 109.027 38.0666 108.277 37.8777 107.657C37.6921 107.037 37.4236 106.565 37.0723 106.24C36.7243 105.915 36.305 105.753 35.8145 105.753C35.0787 105.753 34.5036 106.116 34.0893 106.842C33.675 107.564 33.4679 108.587 33.4679 109.909C33.4679 110.791 33.5607 111.54 33.7463 112.156C33.9319 112.773 34.1987 113.242 34.5467 113.563C34.898 113.885 35.3206 114.045 35.8145 114.045ZM41.763 115.08C41.5177 115.08 41.3072 114.992 41.1316 114.816C40.9559 114.64 40.8681 114.43 40.8681 114.185C40.8681 113.939 40.9559 113.729 41.1316 113.553C41.3072 113.378 41.5177 113.29 41.763 113.29C42.0082 113.29 42.2187 113.378 42.3944 113.553C42.57 113.729 42.6578 113.939 42.6578 114.185C42.6578 114.347 42.6164 114.496 42.5336 114.632C42.454 114.768 42.3463 114.877 42.2104 114.96C42.0778 115.04 41.9287 115.08 41.763 115.08ZM47.709 115.139C46.9599 115.139 46.3219 114.935 45.7949 114.528C45.2679 114.117 44.8652 113.522 44.5868 112.743C44.3084 111.961 44.1692 111.016 44.1692 109.909C44.1692 108.809 44.3084 107.869 44.5868 107.09C44.8685 106.308 45.2729 105.711 45.7999 105.3C46.3302 104.886 46.9666 104.679 47.709 104.679C48.4514 104.679 49.0861 104.886 49.6131 105.3C50.1434 105.711 50.5478 106.308 50.8262 107.09C51.1079 107.869 51.2488 108.809 51.2488 109.909C51.2488 111.016 51.1096 111.961 50.8311 112.743C50.5527 113.522 50.15 114.117 49.623 114.528C49.0961 114.935 48.458 115.139 47.709 115.139ZM47.709 114.045C48.4514 114.045 49.0281 113.687 49.4391 112.972C49.8501 112.256 50.0556 111.235 50.0556 109.909C50.0556 109.027 49.9611 108.277 49.7722 107.657C49.5866 107.037 49.3181 106.565 48.9668 106.24C48.6188 105.915 48.1995 105.753 47.709 105.753C46.9732 105.753 46.3981 106.116 45.9838 106.842C45.5695 107.564 45.3624 108.587 45.3624 109.909C45.3624 110.791 45.4552 111.54 45.6408 112.156C45.8264 112.773 46.0932 113.242 46.4412 113.563C46.7926 113.885 47.2151 114.045 47.709 114.045ZM56.459 115.139C55.7099 115.139 55.0719 114.935 54.5449 114.528C54.0179 114.117 53.6152 113.522 53.3368 112.743C53.0584 111.961 52.9192 111.016 52.9192 109.909C52.9192 108.809 53.0584 107.869 53.3368 107.09C53.6185 106.308 54.0229 105.711 54.5499 105.3C55.0802 104.886 55.7166 104.679 56.459 104.679C57.2014 104.679 57.8361 104.886 58.3631 105.3C58.8934 105.711 59.2978 106.308 59.5762 107.09C59.8579 107.869 59.9988 108.809 59.9988 109.909C59.9988 111.016 59.8596 111.961 59.5811 112.743C59.3027 113.522 58.9 114.117 58.373 114.528C57.8461 114.935 57.208 115.139 56.459 115.139ZM56.459 114.045C57.2014 114.045 57.7781 113.687 58.1891 112.972C58.6001 112.256 58.8056 111.235 58.8056 109.909C58.8056 109.027 58.7111 108.277 58.5222 107.657C58.3366 107.037 58.0681 106.565 57.7168 106.24C57.3688 105.915 56.9495 105.753 56.459 105.753C55.7232 105.753 55.1481 106.116 54.7338 106.842C54.3195 107.564 54.1124 108.587 54.1124 109.909C54.1124 110.791 54.2052 111.54 54.3908 112.156C54.5764 112.773 54.8432 113.242 55.1912 113.563C55.5426 113.885 55.9651 114.045 56.459 114.045ZM65.209 115.139C64.4599 115.139 63.8219 114.935 63.2949 114.528C62.7679 114.117 62.3652 113.522 62.0868 112.743C61.8084 111.961 61.6692 111.016 61.6692 109.909C61.6692 108.809 61.8084 107.869 62.0868 107.09C62.3685 106.308 62.7729 105.711 63.2999 105.3C63.8302 104.886 64.4666 104.679 65.209 104.679C65.9514 104.679 66.5861 104.886 67.1131 105.3C67.6434 105.711 68.0478 106.308 68.3262 107.09C68.6079 107.869 68.7488 108.809 68.7488 109.909C68.7488 111.016 68.6096 111.961 68.3311 112.743C68.0527 113.522 67.65 114.117 67.123 114.528C66.5961 114.935 65.958 115.139 65.209 115.139ZM65.209 114.045C65.9514 114.045 66.5281 113.687 66.9391 112.972C67.3501 112.256 67.5556 111.235 67.5556 109.909C67.5556 109.027 67.4611 108.277 67.2722 107.657C67.0866 107.037 66.8181 106.565 66.4668 106.24C66.1188 105.915 65.6995 105.753 65.209 105.753C64.4732 105.753 63.8981 106.116 63.4838 106.842C63.0695 107.564 62.8624 108.587 62.8624 109.909C62.8624 110.791 62.9552 111.54 63.1408 112.156C63.3264 112.773 63.5932 113.242 63.9412 113.563C64.2926 113.885 64.7151 114.045 65.209 114.045ZM73.8198 115.139C73.2364 115.139 72.7111 115.023 72.2438 114.791C71.7765 114.559 71.4019 114.241 71.1202 113.837C70.8385 113.432 70.6844 112.972 70.6578 112.455H71.851C71.8974 112.915 72.1062 113.296 72.4775 113.598C72.852 113.896 73.2994 114.045 73.8198 114.045C74.2374 114.045 74.6086 113.948 74.9334 113.752C75.2615 113.557 75.5184 113.288 75.704 112.947C75.8929 112.602 75.9874 112.213 75.9874 111.778C75.9874 111.334 75.8896 110.938 75.6941 110.59C75.5018 110.239 75.2367 109.962 74.8986 109.76C74.5605 109.558 74.1744 109.455 73.7402 109.452C73.4287 109.448 73.1088 109.496 72.7807 109.596C72.4526 109.692 72.1825 109.816 71.9703 109.969L70.8169 109.83L71.4334 104.818H76.7232V105.912H72.4675L72.1096 108.915H72.1692C72.378 108.749 72.6399 108.612 72.9547 108.502C73.2696 108.393 73.5977 108.338 73.9391 108.338C74.5622 108.338 75.1174 108.487 75.6046 108.786C76.0951 109.08 76.4796 109.485 76.758 109.999C77.0397 110.512 77.1806 111.099 77.1806 111.759C77.1806 112.408 77.0347 112.988 76.7431 113.499C76.4547 114.006 76.057 114.407 75.5499 114.702C75.0428 114.993 74.4661 115.139 73.8198 115.139ZM82.4766 115.139C81.7275 115.139 81.0895 114.935 80.5625 114.528C80.0355 114.117 79.6328 113.522 79.3544 112.743C79.076 111.961 78.9368 111.016 78.9368 109.909C78.9368 108.809 79.076 107.869 79.3544 107.09C79.6361 106.308 80.0405 105.711 80.5675 105.3C81.0978 104.886 81.7341 104.679 82.4766 104.679C83.219 104.679 83.8537 104.886 84.3807 105.3C84.911 105.711 85.3153 106.308 85.5938 107.09C85.8755 107.869 86.0163 108.809 86.0163 109.909C86.0163 111.016 85.8771 111.961 85.5987 112.743C85.3203 113.522 84.9176 114.117 84.3906 114.528C83.8636 114.935 83.2256 115.139 82.4766 115.139ZM82.4766 114.045C83.219 114.045 83.7957 113.687 84.2067 112.972C84.6177 112.256 84.8232 111.235 84.8232 109.909C84.8232 109.027 84.7287 108.277 84.5398 107.657C84.3542 107.037 84.0857 106.565 83.7344 106.24C83.3864 105.915 82.9671 105.753 82.4766 105.753C81.7408 105.753 81.1657 106.116 80.7514 106.842C80.3371 107.564 80.13 108.587 80.13 109.909C80.13 110.791 80.2228 111.54 80.4084 112.156C80.594 112.773 80.8608 113.242 81.2088 113.563C81.5601 113.885 81.9827 114.045 82.4766 114.045ZM87.6669 112.912V111.898L92.1413 104.818H92.8771V106.389H92.38L88.9993 111.739V111.818H95.0249V112.912H87.6669ZM92.4595 115V112.604V112.131V104.818H93.6328V115H92.4595ZM100.328 115.139C99.6721 115.139 99.0871 115.027 98.5733 114.801C98.0629 114.576 97.6569 114.263 97.3553 113.862C97.057 113.457 96.8946 112.988 96.8681 112.455H98.1209C98.1474 112.783 98.2601 113.066 98.459 113.305C98.6578 113.54 98.918 113.722 99.2395 113.852C99.561 113.981 99.9173 114.045 100.308 114.045C100.746 114.045 101.134 113.969 101.472 113.817C101.81 113.664 102.075 113.452 102.267 113.18C102.459 112.909 102.556 112.594 102.556 112.236C102.556 111.861 102.463 111.531 102.277 111.246C102.092 110.958 101.82 110.733 101.462 110.57C101.104 110.408 100.666 110.327 100.149 110.327H99.334V109.233H100.149C100.554 109.233 100.908 109.16 101.213 109.014C101.521 108.868 101.762 108.663 101.934 108.398C102.11 108.133 102.198 107.821 102.198 107.463C102.198 107.118 102.121 106.818 101.969 106.563C101.816 106.308 101.601 106.109 101.323 105.967C101.048 105.824 100.723 105.753 100.348 105.753C99.9969 105.753 99.6654 105.817 99.3539 105.947C99.0456 106.073 98.7937 106.257 98.5982 106.499C98.4026 106.737 98.2966 107.026 98.28 107.364H97.0868C97.1067 106.83 97.2675 106.363 97.5691 105.962C97.8707 105.557 98.2651 105.242 98.7523 105.017C99.2428 104.792 99.7814 104.679 100.368 104.679C100.998 104.679 101.538 104.807 101.989 105.062C102.44 105.314 102.786 105.647 103.028 106.061C103.27 106.475 103.391 106.923 103.391 107.403C103.391 107.977 103.24 108.466 102.938 108.87C102.64 109.274 102.234 109.554 101.72 109.71V109.79C102.363 109.896 102.865 110.169 103.227 110.61C103.588 111.048 103.769 111.589 103.769 112.236C103.769 112.789 103.618 113.286 103.316 113.727C103.018 114.165 102.61 114.509 102.093 114.761C101.576 115.013 100.988 115.139 100.328 115.139ZM109.123 115.139C108.374 115.139 107.736 114.935 107.209 114.528C106.682 114.117 106.279 113.522 106.001 112.743C105.722 111.961 105.583 111.016 105.583 109.909C105.583 108.809 105.722 107.869 106.001 107.09C106.283 106.308 106.687 105.711 107.214 105.3C107.744 104.886 108.381 104.679 109.123 104.679C109.865 104.679 110.5 104.886 111.027 105.3C111.557 105.711 111.962 106.308 112.24 107.09C112.522 107.869 112.663 108.809 112.663 109.909C112.663 111.016 112.524 111.961 112.245 112.743C111.967 113.522 111.564 114.117 111.037 114.528C110.51 114.935 109.872 115.139 109.123 115.139ZM109.123 114.045C109.865 114.045 110.442 113.687 110.853 112.972C111.264 112.256 111.47 111.235 111.47 109.909C111.47 109.027 111.375 108.277 111.186 107.657C111.001 107.037 110.732 106.565 110.381 106.24C110.033 105.915 109.614 105.753 109.123 105.753C108.387 105.753 107.812 106.116 107.398 106.842C106.984 107.564 106.776 108.587 106.776 109.909C106.776 110.791 106.869 111.54 107.055 112.156C107.24 112.773 107.507 113.242 107.855 113.563C108.207 113.885 108.629 114.045 109.123 114.045ZM118.927 109.909C118.927 108.656 119.089 107.504 119.414 106.454C119.742 105.4 120.21 104.43 120.816 103.545H121.85C121.612 103.874 121.388 104.278 121.179 104.759C120.974 105.236 120.793 105.761 120.637 106.335C120.481 106.905 120.359 107.495 120.269 108.104C120.183 108.714 120.14 109.316 120.14 109.909C120.14 110.698 120.216 111.498 120.369 112.31C120.521 113.122 120.727 113.876 120.985 114.572C121.244 115.268 121.532 115.835 121.85 116.273H120.816C120.21 115.388 119.742 114.42 119.414 113.369C119.089 112.315 118.927 111.162 118.927 109.909ZM127.957 109.362V110.456H123.502V109.362H127.957ZM133.581 104.818V115H132.348V106.111H132.288L129.802 107.761V106.509L132.348 104.818H133.581ZM139.949 115.139C139.293 115.139 138.708 115.027 138.194 114.801C137.684 114.576 137.278 114.263 136.976 113.862C136.678 113.457 136.516 112.988 136.489 112.455H137.742C137.769 112.783 137.881 113.066 138.08 113.305C138.279 113.54 138.539 113.722 138.861 113.852C139.182 113.981 139.538 114.045 139.93 114.045C140.367 114.045 140.755 113.969 141.093 113.817C141.431 113.664 141.696 113.452 141.888 113.18C142.081 112.909 142.177 112.594 142.177 112.236C142.177 111.861 142.084 111.531 141.898 111.246C141.713 110.958 141.441 110.733 141.083 110.57C140.725 110.408 140.287 110.327 139.77 110.327H138.955V109.233H139.77C140.175 109.233 140.529 109.16 140.834 109.014C141.143 108.868 141.383 108.663 141.555 108.398C141.731 108.133 141.819 107.821 141.819 107.463C141.819 107.118 141.742 106.818 141.59 106.563C141.438 106.308 141.222 106.109 140.944 105.967C140.669 105.824 140.344 105.753 139.969 105.753C139.618 105.753 139.287 105.817 138.975 105.947C138.667 106.073 138.415 106.257 138.219 106.499C138.024 106.737 137.918 107.026 137.901 107.364H136.708C136.728 106.83 136.889 106.363 137.19 105.962C137.492 105.557 137.886 105.242 138.373 105.017C138.864 104.792 139.403 104.679 139.989 104.679C140.619 104.679 141.159 104.807 141.61 105.062C142.061 105.314 142.407 105.647 142.649 106.061C142.891 106.475 143.012 106.923 143.012 107.403C143.012 107.977 142.861 108.466 142.559 108.87C142.261 109.274 141.855 109.554 141.341 109.71V109.79C141.984 109.896 142.487 110.169 142.848 110.61C143.209 111.048 143.39 111.589 143.39 112.236C143.39 112.789 143.239 113.286 142.937 113.727C142.639 114.165 142.231 114.509 141.714 114.761C141.197 115.013 140.609 115.139 139.949 115.139ZM145.984 115.08C145.738 115.08 145.528 114.992 145.352 114.816C145.177 114.64 145.089 114.43 145.089 114.185C145.089 113.939 145.177 113.729 145.352 113.553C145.528 113.378 145.738 113.29 145.984 113.29C146.229 113.29 146.439 113.378 146.615 113.553C146.791 113.729 146.879 113.939 146.879 114.185C146.879 114.347 146.837 114.496 146.754 114.632C146.675 114.768 146.567 114.877 146.431 114.96C146.299 115.04 146.149 115.08 145.984 115.08ZM151.911 115.139C151.228 115.139 150.625 115.018 150.101 114.776C149.581 114.531 149.175 114.195 148.883 113.767C148.592 113.336 148.448 112.846 148.451 112.295C148.448 111.865 148.532 111.467 148.704 111.102C148.877 110.734 149.112 110.428 149.41 110.183C149.712 109.934 150.048 109.777 150.42 109.71V109.651C149.932 109.525 149.545 109.251 149.256 108.83C148.968 108.406 148.825 107.924 148.829 107.384C148.825 106.866 148.956 106.404 149.221 105.996C149.487 105.589 149.851 105.267 150.315 105.032C150.782 104.797 151.314 104.679 151.911 104.679C152.501 104.679 153.028 104.797 153.492 105.032C153.956 105.267 154.321 105.589 154.586 105.996C154.854 106.404 154.99 106.866 154.993 107.384C154.99 107.924 154.843 108.406 154.551 108.83C154.263 109.251 153.88 109.525 153.403 109.651V109.71C153.77 109.777 154.102 109.934 154.397 110.183C154.692 110.428 154.927 110.734 155.103 111.102C155.278 111.467 155.368 111.865 155.371 112.295C155.368 112.846 155.219 113.336 154.924 113.767C154.632 114.195 154.226 114.531 153.706 114.776C153.189 115.018 152.59 115.139 151.911 115.139ZM151.911 114.045C152.372 114.045 152.769 113.971 153.104 113.822C153.439 113.673 153.698 113.462 153.88 113.19C154.062 112.919 154.155 112.6 154.158 112.236C154.155 111.851 154.055 111.512 153.86 111.217C153.664 110.922 153.398 110.69 153.059 110.521C152.725 110.352 152.342 110.267 151.911 110.267C151.477 110.267 151.089 110.352 150.748 110.521C150.41 110.69 150.143 110.922 149.947 111.217C149.755 111.512 149.661 111.851 149.664 112.236C149.661 112.6 149.748 112.919 149.927 113.19C150.11 113.462 150.37 113.673 150.708 113.822C151.046 113.971 151.447 114.045 151.911 114.045ZM151.911 109.213C152.276 109.213 152.599 109.14 152.881 108.994C153.166 108.848 153.389 108.645 153.552 108.383C153.714 108.121 153.797 107.814 153.8 107.463C153.797 107.118 153.716 106.818 153.557 106.563C153.398 106.305 153.177 106.106 152.895 105.967C152.614 105.824 152.286 105.753 151.911 105.753C151.53 105.753 151.197 105.824 150.912 105.967C150.627 106.106 150.406 106.305 150.251 106.563C150.095 106.818 150.019 107.118 150.022 107.463C150.019 107.814 150.096 108.121 150.256 108.383C150.418 108.645 150.642 108.848 150.927 108.994C151.212 109.14 151.54 109.213 151.911 109.213ZM160.538 115.139C159.855 115.139 159.252 115.018 158.728 114.776C158.208 114.531 157.802 114.195 157.51 113.767C157.219 113.336 157.074 112.846 157.078 112.295C157.074 111.865 157.159 111.467 157.331 111.102C157.504 110.734 157.739 110.428 158.037 110.183C158.339 109.934 158.675 109.777 159.047 109.71V109.651C158.559 109.525 158.172 109.251 157.883 108.83C157.595 108.406 157.452 107.924 157.456 107.384C157.452 106.866 157.583 106.404 157.848 105.996C158.114 105.589 158.478 105.267 158.942 105.032C159.409 104.797 159.941 104.679 160.538 104.679C161.128 104.679 161.655 104.797 162.119 105.032C162.583 105.267 162.948 105.589 163.213 105.996C163.481 106.404 163.617 106.866 163.62 107.384C163.617 107.924 163.47 108.406 163.178 108.83C162.89 109.251 162.507 109.525 162.029 109.651V109.71C162.397 109.777 162.729 109.934 163.024 110.183C163.319 110.428 163.554 110.734 163.73 111.102C163.905 111.467 163.995 111.865 163.998 112.295C163.995 112.846 163.846 113.336 163.551 113.767C163.259 114.195 162.853 114.531 162.333 114.776C161.816 115.018 161.217 115.139 160.538 115.139ZM160.538 114.045C160.999 114.045 161.396 113.971 161.731 113.822C162.066 113.673 162.324 113.462 162.507 113.19C162.689 112.919 162.782 112.6 162.785 112.236C162.782 111.851 162.682 111.512 162.487 111.217C162.291 110.922 162.025 110.69 161.686 110.521C161.352 110.352 160.969 110.267 160.538 110.267C160.104 110.267 159.716 110.352 159.375 110.521C159.037 110.69 158.77 110.922 158.574 111.217C158.382 111.512 158.288 111.851 158.291 112.236C158.288 112.6 158.375 112.919 158.554 113.19C158.737 113.462 158.997 113.673 159.335 113.822C159.673 113.971 160.074 114.045 160.538 114.045ZM160.538 109.213C160.903 109.213 161.226 109.14 161.507 108.994C161.792 108.848 162.016 108.645 162.179 108.383C162.341 108.121 162.424 107.814 162.427 107.463C162.424 107.118 162.343 106.818 162.184 106.563C162.025 106.305 161.804 106.106 161.522 105.967C161.241 105.824 160.913 105.753 160.538 105.753C160.157 105.753 159.824 105.824 159.539 105.967C159.254 106.106 159.033 106.305 158.877 106.563C158.722 106.818 158.645 107.118 158.649 107.463C158.645 107.814 158.723 108.121 158.882 108.383C159.045 108.645 159.269 108.848 159.554 108.994C159.839 109.14 160.167 109.213 160.538 109.213ZM171.094 113.091V112.554C171.094 112.183 171.17 111.843 171.323 111.535C171.478 111.223 171.704 110.975 171.999 110.789C172.297 110.6 172.658 110.506 173.083 110.506C173.513 110.506 173.875 110.6 174.166 110.789C174.458 110.975 174.678 111.223 174.828 111.535C174.977 111.843 175.051 112.183 175.051 112.554V113.091C175.051 113.462 174.975 113.804 174.823 114.115C174.673 114.423 174.451 114.672 174.156 114.861C173.865 115.046 173.507 115.139 173.083 115.139C172.652 115.139 172.289 115.046 171.994 114.861C171.699 114.672 171.475 114.423 171.323 114.115C171.17 113.804 171.094 113.462 171.094 113.091ZM172.108 112.554V113.091C172.108 113.399 172.181 113.676 172.327 113.921C172.473 114.163 172.725 114.284 173.083 114.284C173.431 114.284 173.676 114.163 173.818 113.921C173.964 113.676 174.037 113.399 174.037 113.091V112.554C174.037 112.246 173.968 111.971 173.828 111.729C173.689 111.483 173.441 111.361 173.083 111.361C172.735 111.361 172.484 111.483 172.332 111.729C172.183 111.971 172.108 112.246 172.108 112.554ZM166.023 107.264V106.727C166.023 106.356 166.099 106.016 166.252 105.708C166.407 105.397 166.633 105.148 166.928 104.962C167.226 104.773 167.587 104.679 168.012 104.679C168.442 104.679 168.804 104.773 169.095 104.962C169.387 105.148 169.607 105.397 169.757 105.708C169.906 106.016 169.98 106.356 169.98 106.727V107.264C169.98 107.635 169.904 107.977 169.752 108.288C169.602 108.597 169.38 108.845 169.085 109.034C168.794 109.22 168.436 109.312 168.012 109.312C167.581 109.312 167.218 109.22 166.923 109.034C166.628 108.845 166.404 108.597 166.252 108.288C166.099 107.977 166.023 107.635 166.023 107.264ZM167.037 106.727V107.264C167.037 107.572 167.11 107.849 167.256 108.094C167.402 108.336 167.654 108.457 168.012 108.457C168.36 108.457 168.605 108.336 168.747 108.094C168.893 107.849 168.966 107.572 168.966 107.264V106.727C168.966 106.419 168.896 106.144 168.757 105.902C168.618 105.657 168.369 105.534 168.012 105.534C167.664 105.534 167.413 105.657 167.261 105.902C167.112 106.144 167.037 106.419 167.037 106.727ZM166.401 115L173.401 104.818H174.534L167.534 115H166.401ZM179.804 109.909C179.804 111.162 179.64 112.315 179.312 113.369C178.987 114.42 178.521 115.388 177.915 116.273H176.881C177.119 115.945 177.342 115.54 177.547 115.06C177.756 114.582 177.938 114.059 178.094 113.489C178.25 112.915 178.371 112.324 178.457 111.714C178.546 111.101 178.591 110.499 178.591 109.909C178.591 109.12 178.515 108.32 178.362 107.508C178.21 106.696 178.004 105.942 177.746 105.246C177.487 104.55 177.199 103.983 176.881 103.545H177.915C178.521 104.43 178.987 105.4 179.312 106.454C179.64 107.504 179.804 108.656 179.804 109.909Z" fill="white"/>
<path fill-rule="evenodd" clip-rule="evenodd" d="M208.051 79H215.949C216.253 79 216.5 79.2553 216.5 79.5703C216.5 79.6797 216.47 79.7867 216.413 79.8787L212.463 86.238C212.299 86.503 211.958 86.5797 211.702 86.4094C211.636 86.3652 211.579 86.3067 211.537 86.238L207.588 79.8787C207.423 79.6138 207.497 79.2609 207.753 79.0906C207.842 79.0314 207.945 79 208.051 79Z" fill="white"/>
<path d="M34.375 93.2983C32.7699 93.2983 31.4027 92.8615 30.2734 91.9879C29.1442 91.1072 28.2813 89.8324 27.6847 88.1634C27.0881 86.4872 26.7898 84.4631 26.7898 82.0909C26.7898 79.733 27.0881 77.7195 27.6847 76.0504C28.2884 74.3743 29.1548 73.0959 30.2841 72.2152C31.4205 71.3274 32.7841 70.8835 34.375 70.8835C35.9659 70.8835 37.326 71.3274 38.4553 72.2152C39.5916 73.0959 40.4581 74.3743 41.0547 76.0504C41.6584 77.7195 41.9602 79.733 41.9602 82.0909C41.9602 84.4631 41.6619 86.4872 41.0653 88.1634C40.4688 89.8324 39.6058 91.1072 38.4766 91.9879C37.3473 92.8615 35.9801 93.2983 34.375 93.2983ZM34.375 90.9545C35.9659 90.9545 37.2017 90.1875 38.0824 88.6534C38.9631 87.1193 39.4034 84.9318 39.4034 82.0909C39.4034 80.2017 39.201 78.593 38.7962 77.2649C38.3984 75.9368 37.8232 74.9247 37.0703 74.2287C36.3246 73.5327 35.4261 73.1847 34.375 73.1847C32.7983 73.1847 31.5661 73.9624 30.6783 75.5178C29.7905 77.0661 29.3466 79.2571 29.3466 82.0909C29.3466 83.9801 29.5455 85.5852 29.9432 86.9062C30.3409 88.2273 30.9126 89.2322 31.6584 89.9212C32.4112 90.6101 33.3168 90.9545 34.375 90.9545ZM47.1218 93.1705C46.5962 93.1705 46.1452 92.9822 45.7688 92.6058C45.3924 92.2294 45.2042 91.7784 45.2042 91.2528C45.2042 90.7273 45.3924 90.2763 45.7688 89.8999C46.1452 89.5234 46.5962 89.3352 47.1218 89.3352C47.6474 89.3352 48.0984 89.5234 48.4748 89.8999C48.8512 90.2763 49.0394 90.7273 49.0394 91.2528C49.0394 91.6009 48.9506 91.9205 48.7731 92.2116C48.6026 92.5028 48.3718 92.7372 48.0806 92.9148C47.7965 93.0852 47.4769 93.1705 47.1218 93.1705ZM59.8633 93.2983C58.2582 93.2983 56.891 92.8615 55.7617 91.9879C54.6325 91.1072 53.7695 89.8324 53.1729 88.1634C52.5763 86.4872 52.2781 84.4631 52.2781 82.0909C52.2781 79.733 52.5763 77.7195 53.1729 76.0504C53.7766 74.3743 54.6431 73.0959 55.7724 72.2152C56.9087 71.3274 58.2724 70.8835 59.8633 70.8835C61.4542 70.8835 62.8143 71.3274 63.9435 72.2152C65.0799 73.0959 65.9464 74.3743 66.543 76.0504C67.1467 77.7195 67.4485 79.733 67.4485 82.0909C67.4485 84.4631 67.1502 86.4872 66.5536 88.1634C65.957 89.8324 65.0941 91.1072 63.9648 91.9879C62.8356 92.8615 61.4684 93.2983 59.8633 93.2983ZM59.8633 90.9545C61.4542 90.9545 62.69 90.1875 63.5707 88.6534C64.4513 87.1193 64.8917 84.9318 64.8917 82.0909C64.8917 80.2017 64.6893 78.593 64.2844 77.2649C63.8867 75.9368 63.3114 74.9247 62.5586 74.2287C61.8129 73.5327 60.9144 73.1847 59.8633 73.1847C58.2866 73.1847 57.0543 73.9624 56.1665 75.5178C55.2788 77.0661 54.8349 79.2571 54.8349 82.0909C54.8349 83.9801 55.0337 85.5852 55.4315 86.9062C55.8292 88.2273 56.4009 89.2322 57.1467 89.9212C57.8995 90.6101 58.805 90.9545 59.8633 90.9545ZM78.6133 93.2983C77.0082 93.2983 75.641 92.8615 74.5117 91.9879C73.3825 91.1072 72.5195 89.8324 71.9229 88.1634C71.3263 86.4872 71.0281 84.4631 71.0281 82.0909C71.0281 79.733 71.3263 77.7195 71.9229 76.0504C72.5266 74.3743 73.3931 73.0959 74.5224 72.2152C75.6587 71.3274 77.0224 70.8835 78.6133 70.8835C80.2042 70.8835 81.5643 71.3274 82.6935 72.2152C83.8299 73.0959 84.6964 74.3743 85.293 76.0504C85.8967 77.7195 86.1985 79.733 86.1985 82.0909C86.1985 84.4631 85.9002 86.4872 85.3036 88.1634C84.707 89.8324 83.8441 91.1072 82.7148 91.9879C81.5856 92.8615 80.2184 93.2983 78.6133 93.2983ZM78.6133 90.9545C80.2042 90.9545 81.44 90.1875 82.3207 88.6534C83.2013 87.1193 83.6417 84.9318 83.6417 82.0909C83.6417 80.2017 83.4393 78.593 83.0344 77.2649C82.6367 75.9368 82.0614 74.9247 81.3086 74.2287C80.5629 73.5327 79.6644 73.1847 78.6133 73.1847C77.0366 73.1847 75.8043 73.9624 74.9165 75.5178C74.0288 77.0661 73.5849 79.2571 73.5849 82.0909C73.5849 83.9801 73.7837 85.5852 74.1815 86.9062C74.5792 88.2273 75.1509 89.2322 75.8967 89.9212C76.6495 90.6101 77.555 90.9545 78.6133 90.9545ZM97.619 93.2983C96.2127 93.2983 94.9592 93.0568 93.8583 92.5739C92.7646 92.0909 91.8945 91.4197 91.2482 90.5604C90.609 89.6939 90.261 88.6889 90.2042 87.5455H92.8888C92.9457 88.2486 93.1871 88.8558 93.6133 89.3672C94.0394 89.8714 94.5969 90.2621 95.2859 90.5391C95.9748 90.8161 96.7383 90.9545 97.5763 90.9545C98.5138 90.9545 99.3448 90.7912 100.069 90.4645C100.794 90.1378 101.362 89.6832 101.774 89.1009C102.186 88.5185 102.392 87.8438 102.392 87.0767C102.392 86.2741 102.193 85.5675 101.795 84.9567C101.397 84.3388 100.815 83.8558 100.048 83.5078C99.2809 83.1598 98.3434 82.9858 97.2354 82.9858H95.4883V80.642H97.2354C98.1019 80.642 98.8619 80.4858 99.5153 80.1733C100.176 79.8608 100.691 79.4205 101.06 78.8523C101.436 78.2841 101.625 77.6165 101.625 76.8494C101.625 76.1108 101.461 75.468 101.135 74.9212C100.808 74.3743 100.346 73.9482 99.7496 73.6428C99.1602 73.3374 98.4641 73.1847 97.6616 73.1847C96.9087 73.1847 96.1985 73.3232 95.5309 73.6001C94.8704 73.87 94.3306 74.2642 93.9116 74.7827C93.4925 75.294 93.2653 75.9119 93.2298 76.6364H90.6729C90.7156 75.4929 91.06 74.4915 91.7063 73.6321C92.3526 72.7656 93.1978 72.0909 94.2418 71.608C95.293 71.125 96.4471 70.8835 97.7042 70.8835C99.0536 70.8835 100.211 71.157 101.177 71.7038C102.143 72.2436 102.885 72.9574 103.404 73.8452C103.922 74.733 104.181 75.6918 104.181 76.7216C104.181 77.9503 103.858 78.9979 103.212 79.8643C102.573 80.7308 101.703 81.331 100.602 81.6648V81.8352C101.98 82.0625 103.056 82.6484 103.83 83.593C104.604 84.5305 104.991 85.6918 104.991 87.0767C104.991 88.2628 104.668 89.3281 104.022 90.2727C103.382 91.2102 102.509 91.9489 101.401 92.4886C100.293 93.0284 99.0323 93.2983 97.619 93.2983ZM117.019 71.1818V93H114.377V73.9517H114.249L108.922 77.4886V74.804L114.377 71.1818H117.019ZM130.666 93.2983C129.26 93.2983 128.006 93.0568 126.905 92.5739C125.811 92.0909 124.941 91.4197 124.295 90.5604C123.656 89.6939 123.308 88.6889 123.251 87.5455H125.936C125.993 88.2486 126.234 88.8558 126.66 89.3672C127.086 89.8714 127.644 90.2621 128.333 90.5391C129.022 90.8161 129.785 90.9545 130.623 90.9545C131.561 90.9545 132.392 90.7912 133.116 90.4645C133.841 90.1378 134.409 89.6832 134.821 89.1009C135.233 88.5185 135.439 87.8438 135.439 87.0767C135.439 86.2741 135.24 85.5675 134.842 84.9567C134.444 84.3388 133.862 83.8558 133.095 83.5078C132.328 83.1598 131.39 82.9858 130.282 82.9858H128.535V80.642H130.282C131.149 80.642 131.909 80.4858 132.562 80.1733C133.223 79.8608 133.738 79.4205 134.107 78.8523C134.483 78.2841 134.672 77.6165 134.672 76.8494C134.672 76.1108 134.508 75.468 134.181 74.9212C133.855 74.3743 133.393 73.9482 132.797 73.6428C132.207 73.3374 131.511 73.1847 130.708 73.1847C129.956 73.1847 129.245 73.3232 128.578 73.6001C127.917 73.87 127.377 74.2642 126.958 74.7827C126.539 75.294 126.312 75.9119 126.277 76.6364H123.72C123.762 75.4929 124.107 74.4915 124.753 73.6321C125.4 72.7656 126.245 72.0909 127.289 71.608C128.34 71.125 129.494 70.8835 130.751 70.8835C132.1 70.8835 133.258 71.157 134.224 71.7038C135.19 72.2436 135.932 72.9574 136.451 73.8452C136.969 74.733 137.228 75.6918 137.228 76.7216C137.228 77.9503 136.905 78.9979 136.259 79.8643C135.62 80.7308 134.75 81.331 133.649 81.6648V81.8352C135.027 82.0625 136.103 82.6484 136.877 83.593C137.651 84.5305 138.038 85.6918 138.038 87.0767C138.038 88.2628 137.715 89.3281 137.069 90.2727C136.429 91.2102 135.556 91.9489 134.448 92.4886C133.34 93.0284 132.079 93.2983 130.666 93.2983ZM149.512 93.2983C147.907 93.2983 146.539 92.8615 145.41 91.9879C144.281 91.1072 143.418 89.8324 142.821 88.1634C142.225 86.4872 141.926 84.4631 141.926 82.0909C141.926 79.733 142.225 77.7195 142.821 76.0504C143.425 74.3743 144.292 73.0959 145.421 72.2152C146.557 71.3274 147.921 70.8835 149.512 70.8835C151.103 70.8835 152.463 71.3274 153.592 72.2152C154.728 73.0959 155.595 74.3743 156.191 76.0504C156.795 77.7195 157.097 79.733 157.097 82.0909C157.097 84.4631 156.799 86.4872 156.202 88.1634C155.605 89.8324 154.743 91.1072 153.613 91.9879C152.484 92.8615 151.117 93.2983 149.512 93.2983ZM149.512 90.9545C151.103 90.9545 152.338 90.1875 153.219 88.6534C154.1 87.1193 154.54 84.9318 154.54 82.0909C154.54 80.2017 154.338 78.593 153.933 77.2649C153.535 75.9368 152.96 74.9247 152.207 74.2287C151.461 73.5327 150.563 73.1847 149.512 73.1847C147.935 73.1847 146.703 73.9624 145.815 75.5178C144.927 77.0661 144.483 79.2571 144.483 82.0909C144.483 83.9801 144.682 85.5852 145.08 86.9062C145.478 88.2273 146.049 89.2322 146.795 89.9212C147.548 90.6101 148.453 90.9545 149.512 90.9545ZM168.816 71.1818V93H166.174V73.9517H166.046L160.719 77.4886V74.804L166.174 71.1818H168.816ZM182.207 93.2983C180.602 93.2983 179.235 92.8615 178.105 91.9879C176.976 91.1072 176.113 89.8324 175.517 88.1634C174.92 86.4872 174.622 84.4631 174.622 82.0909C174.622 79.733 174.92 77.7195 175.517 76.0504C176.12 74.3743 176.987 73.0959 178.116 72.2152C179.252 71.3274 180.616 70.8835 182.207 70.8835C183.798 70.8835 185.158 71.3274 186.287 72.2152C187.424 73.0959 188.29 74.3743 188.887 76.0504C189.49 77.7195 189.792 79.733 189.792 82.0909C189.792 84.4631 189.494 86.4872 188.897 88.1634C188.301 89.8324 187.438 91.1072 186.309 91.9879C185.179 92.8615 183.812 93.2983 182.207 93.2983ZM182.207 90.9545C183.798 90.9545 185.034 90.1875 185.914 88.6534C186.795 87.1193 187.235 84.9318 187.235 82.0909C187.235 80.2017 187.033 78.593 186.628 77.2649C186.23 75.9368 185.655 74.9247 184.902 74.2287C184.157 73.5327 183.258 73.1847 182.207 73.1847C180.63 73.1847 179.398 73.9624 178.51 75.5178C177.623 77.0661 177.179 79.2571 177.179 82.0909C177.179 83.9801 177.377 85.5852 177.775 86.9062C178.173 88.2273 178.745 89.2322 179.49 89.9212C180.243 90.6101 181.149 90.9545 182.207 90.9545Z" fill="white"/>
<path d="M26.0568 52V43.2727H31.3239V44.2102H27.1136V47.1591H31.0511V48.0966H27.1136V51.0625H31.392V52H26.0568ZM35.9389 45.4545V46.3068H32.5469V45.4545H35.9389ZM33.5355 43.8864H34.5412V50.125C34.5412 50.4091 34.5824 50.6222 34.6648 50.7642C34.75 50.9034 34.858 50.9972 34.9886 51.0455C35.1222 51.0909 35.2628 51.1136 35.4105 51.1136C35.5213 51.1136 35.6122 51.108 35.6832 51.0966C35.7543 51.0824 35.8111 51.071 35.8537 51.0625L36.0582 51.9659C35.9901 51.9915 35.8949 52.017 35.7727 52.0426C35.6506 52.071 35.4957 52.0852 35.3082 52.0852C35.0241 52.0852 34.7457 52.0241 34.473 51.902C34.2031 51.7798 33.9787 51.5938 33.7997 51.3438C33.6236 51.0938 33.5355 50.7784 33.5355 50.3977V43.8864ZM38.598 48.0625V52H37.5923V43.2727H38.598V46.4773H38.6832C38.8366 46.1392 39.0668 45.8707 39.3736 45.6719C39.6832 45.4702 40.0952 45.3693 40.6094 45.3693C41.0554 45.3693 41.446 45.4588 41.7812 45.6378C42.1165 45.8139 42.3764 46.0852 42.5611 46.4517C42.7486 46.8153 42.8423 47.2784 42.8423 47.8409V52H41.8366V47.9091C41.8366 47.3892 41.7017 46.9872 41.4318 46.7031C41.1648 46.4162 40.794 46.2727 40.3196 46.2727C39.9901 46.2727 39.6946 46.3423 39.4332 46.4815C39.1747 46.6207 38.9702 46.8239 38.8196 47.0909C38.6719 47.358 38.598 47.6818 38.598 48.0625ZM47.4265 52.1364C46.7958 52.1364 46.2518 51.9972 45.7944 51.7188C45.3398 51.4375 44.989 51.0455 44.7418 50.5426C44.4975 50.0369 44.3754 49.4489 44.3754 48.7784C44.3754 48.108 44.4975 47.517 44.7418 47.0057C44.989 46.4915 45.3327 46.0909 45.7731 45.804C46.2163 45.5142 46.7333 45.3693 47.3242 45.3693C47.6651 45.3693 48.0018 45.4261 48.3342 45.5398C48.6665 45.6534 48.9691 45.8381 49.2418 46.0938C49.5146 46.3466 49.7319 46.6818 49.8938 47.0994C50.0558 47.517 50.1367 48.0312 50.1367 48.642V49.0682H45.0913V48.1989H49.114C49.114 47.8295 49.0401 47.5 48.8924 47.2102C48.7475 46.9205 48.5401 46.6918 48.2702 46.5241C48.0032 46.3565 47.6879 46.2727 47.3242 46.2727C46.9237 46.2727 46.5771 46.3722 46.2844 46.571C45.9947 46.767 45.7717 47.0227 45.6154 47.3381C45.4592 47.6534 45.381 47.9915 45.381 48.3523V48.9318C45.381 49.4261 45.4663 49.8452 45.6367 50.1889C45.81 50.5298 46.0501 50.7898 46.3569 50.9688C46.6637 51.1449 47.0202 51.233 47.4265 51.233C47.6907 51.233 47.9293 51.196 48.1424 51.1222C48.3583 51.0455 48.5444 50.9318 48.7006 50.7812C48.8569 50.6278 48.9776 50.4375 49.0629 50.2102L50.0344 50.483C49.9322 50.8125 49.7603 51.1023 49.5188 51.3523C49.2773 51.5994 48.979 51.7926 48.6239 51.9318C48.2688 52.0682 47.8697 52.1364 47.4265 52.1364ZM51.6665 52V45.4545H52.6381V46.4432H52.7063C52.8256 46.1193 53.0415 45.8565 53.354 45.6548C53.6665 45.4531 54.0188 45.3523 54.4109 45.3523C54.4847 45.3523 54.5771 45.3537 54.6879 45.3565C54.7987 45.3594 54.8825 45.3636 54.9393 45.3693V46.392C54.9052 46.3835 54.8271 46.3707 54.7049 46.3537C54.5856 46.3338 54.4592 46.3239 54.3256 46.3239C54.0075 46.3239 53.7234 46.3906 53.4734 46.5241C53.2262 46.6548 53.0302 46.8366 52.8853 47.0696C52.7433 47.2997 52.6722 47.5625 52.6722 47.858V52H51.6665ZM58.6765 52.1364C58.0458 52.1364 57.5018 51.9972 57.0444 51.7188C56.5898 51.4375 56.239 51.0455 55.9918 50.5426C55.7475 50.0369 55.6254 49.4489 55.6254 48.7784C55.6254 48.108 55.7475 47.517 55.9918 47.0057C56.239 46.4915 56.5827 46.0909 57.0231 45.804C57.4663 45.5142 57.9833 45.3693 58.5742 45.3693C58.9151 45.3693 59.2518 45.4261 59.5842 45.5398C59.9165 45.6534 60.2191 45.8381 60.4918 46.0938C60.7646 46.3466 60.9819 46.6818 61.1438 47.0994C61.3058 47.517 61.3867 48.0312 61.3867 48.642V49.0682H56.3413V48.1989H60.364C60.364 47.8295 60.2901 47.5 60.1424 47.2102C59.9975 46.9205 59.7901 46.6918 59.5202 46.5241C59.2532 46.3565 58.9379 46.2727 58.5742 46.2727C58.1737 46.2727 57.8271 46.3722 57.5344 46.571C57.2447 46.767 57.0217 47.0227 56.8654 47.3381C56.7092 47.6534 56.631 47.9915 56.631 48.3523V48.9318C56.631 49.4261 56.7163 49.8452 56.8867 50.1889C57.06 50.5298 57.3001 50.7898 57.6069 50.9688C57.9137 51.1449 58.2702 51.233 58.6765 51.233C58.9407 51.233 59.1793 51.196 59.3924 51.1222C59.6083 51.0455 59.7944 50.9318 59.9506 50.7812C60.1069 50.6278 60.2276 50.4375 60.3129 50.2102L61.2844 50.483C61.1822 50.8125 61.0103 51.1023 60.7688 51.3523C60.5273 51.5994 60.229 51.7926 59.8739 51.9318C59.5188 52.0682 59.1197 52.1364 58.6765 52.1364ZM67.0415 49.3239V45.4545H68.0472V52H67.0415V50.892H66.9734C66.82 51.2244 66.5813 51.5071 66.2575 51.7401C65.9336 51.9702 65.5245 52.0852 65.0302 52.0852C64.6211 52.0852 64.2575 51.9957 63.9393 51.8168C63.6211 51.6349 63.3711 51.3622 63.1893 50.9986C63.0075 50.6321 62.9165 50.1705 62.9165 49.6136V45.4545H63.9222V49.5455C63.9222 50.0227 64.0558 50.4034 64.3228 50.6875C64.5927 50.9716 64.9364 51.1136 65.354 51.1136C65.604 51.1136 65.8583 51.0497 66.1168 50.9219C66.3782 50.794 66.5969 50.598 66.7731 50.3338C66.9521 50.0696 67.0415 49.733 67.0415 49.3239ZM69.8892 52V45.4545H70.8608V46.4773H70.946C71.0824 46.1278 71.3026 45.8565 71.6065 45.6634C71.9105 45.4673 72.2756 45.3693 72.7017 45.3693C73.1335 45.3693 73.4929 45.4673 73.7798 45.6634C74.0696 45.8565 74.2955 46.1278 74.4574 46.4773H74.5256C74.6932 46.1392 74.9446 45.8707 75.2798 45.6719C75.6151 45.4702 76.017 45.3693 76.4858 45.3693C77.071 45.3693 77.5497 45.5526 77.9219 45.919C78.294 46.2827 78.4801 46.8494 78.4801 47.6193V52H77.4744V47.6193C77.4744 47.1364 77.3423 46.7912 77.0781 46.5838C76.8139 46.3764 76.5028 46.2727 76.1449 46.2727C75.6847 46.2727 75.3281 46.4119 75.0753 46.6903C74.8224 46.9659 74.696 47.3153 74.696 47.7386V52H73.6733V47.517C73.6733 47.1449 73.5526 46.8452 73.3111 46.6179C73.0696 46.3878 72.7585 46.2727 72.3778 46.2727C72.1165 46.2727 71.8722 46.3423 71.6449 46.4815C71.4205 46.6207 71.2386 46.8139 71.0994 47.0611C70.9631 47.3054 70.8949 47.5881 70.8949 47.9091V52H69.8892ZM90.853 46H89.7962C89.7337 45.696 89.6243 45.429 89.468 45.1989C89.3146 44.9688 89.1271 44.7756 88.9055 44.6193C88.6868 44.4602 88.4439 44.3409 88.1768 44.2614C87.9098 44.1818 87.6314 44.142 87.3416 44.142C86.8132 44.142 86.3345 44.2756 85.9055 44.5426C85.4794 44.8097 85.1399 45.2031 84.8871 45.723C84.6371 46.2429 84.5121 46.8807 84.5121 47.6364C84.5121 48.392 84.6371 49.0298 84.8871 49.5497C85.1399 50.0696 85.4794 50.4631 85.9055 50.7301C86.3345 50.9972 86.8132 51.1307 87.3416 51.1307C87.6314 51.1307 87.9098 51.0909 88.1768 51.0114C88.4439 50.9318 88.6868 50.8139 88.9055 50.6577C89.1271 50.4986 89.3146 50.304 89.468 50.0739C89.6243 49.8409 89.7337 49.5739 89.7962 49.2727H90.853C90.7734 49.7187 90.6286 50.1179 90.4183 50.4702C90.2081 50.8224 89.9467 51.1222 89.6342 51.3693C89.3217 51.6136 88.9709 51.7997 88.5817 51.9276C88.1953 52.0554 87.782 52.1193 87.3416 52.1193C86.5973 52.1193 85.9354 51.9375 85.3558 51.5739C84.7763 51.2102 84.3203 50.6932 83.9879 50.0227C83.6555 49.3523 83.4893 48.5568 83.4893 47.6364C83.4893 46.7159 83.6555 45.9205 83.9879 45.25C84.3203 44.5795 84.7763 44.0625 85.3558 43.6989C85.9354 43.3352 86.5973 43.1534 87.3416 43.1534C87.782 43.1534 88.1953 43.2173 88.5817 43.3452C88.9709 43.473 89.3217 43.6605 89.6342 43.9077C89.9467 44.152 90.2081 44.4503 90.4183 44.8026C90.6286 45.152 90.7734 45.5511 90.853 46ZM93.43 43.2727V52H92.4244V43.2727H93.43ZM97.1982 52.1534C96.7834 52.1534 96.407 52.0753 96.0689 51.919C95.7308 51.7599 95.4624 51.5312 95.2635 51.233C95.0646 50.9318 94.9652 50.5682 94.9652 50.142C94.9652 49.767 95.0391 49.4631 95.1868 49.2301C95.3345 48.9943 95.532 48.8097 95.7791 48.6761C96.0263 48.5426 96.299 48.4432 96.5973 48.3778C96.8984 48.3097 97.201 48.2557 97.505 48.2159C97.9027 48.1648 98.2251 48.1264 98.4723 48.1009C98.7223 48.0724 98.9041 48.0256 99.0178 47.9602C99.1342 47.8949 99.1925 47.7812 99.1925 47.6193V47.5852C99.1925 47.1648 99.0774 46.8381 98.8473 46.6051C98.62 46.3722 98.2749 46.2557 97.8118 46.2557C97.3317 46.2557 96.9553 46.3608 96.6825 46.571C96.4098 46.7812 96.218 47.0057 96.1072 47.2443L95.1527 46.9034C95.3232 46.5057 95.5504 46.196 95.8345 45.9744C96.1214 45.75 96.4339 45.5937 96.772 45.5057C97.1129 45.4148 97.4482 45.3693 97.7777 45.3693C97.9879 45.3693 98.2294 45.3949 98.5021 45.446C98.7777 45.4943 99.0433 45.5952 99.299 45.7486C99.5575 45.902 99.772 46.1335 99.9425 46.4432C100.113 46.7528 100.198 47.1676 100.198 47.6875V52H99.1925V51.1136H99.1413C99.0732 51.2557 98.9595 51.4077 98.8004 51.5696C98.6413 51.7315 98.4297 51.8693 98.1655 51.983C97.9013 52.0966 97.5788 52.1534 97.1982 52.1534ZM97.3516 51.25C97.7493 51.25 98.0845 51.1719 98.3572 51.0156C98.6328 50.8594 98.8402 50.6577 98.9794 50.4105C99.1214 50.1634 99.1925 49.9034 99.1925 49.6307V48.7102C99.1499 48.7614 99.0561 48.8082 98.9112 48.8509C98.7692 48.8906 98.6044 48.9261 98.4169 48.9574C98.2322 48.9858 98.0518 49.0114 97.8757 49.0341C97.7024 49.054 97.5618 49.071 97.4538 49.0852C97.1925 49.1193 96.9482 49.1747 96.7209 49.2514C96.4964 49.3253 96.3146 49.4375 96.1754 49.5881C96.0391 49.7358 95.9709 49.9375 95.9709 50.1932C95.9709 50.5426 96.1001 50.8068 96.3587 50.9858C96.62 51.1619 96.951 51.25 97.3516 51.25ZM106.67 46.9205L105.767 47.1761C105.71 47.0256 105.626 46.8793 105.515 46.7372C105.407 46.5923 105.26 46.473 105.072 46.3793C104.885 46.2855 104.645 46.2386 104.352 46.2386C103.951 46.2386 103.618 46.331 103.35 46.5156C103.086 46.6974 102.954 46.929 102.954 47.2102C102.954 47.4602 103.045 47.6577 103.227 47.8026C103.409 47.9474 103.693 48.0682 104.079 48.1648L105.051 48.4034C105.636 48.5455 106.072 48.7628 106.359 49.0554C106.646 49.3452 106.789 49.7187 106.789 50.1761C106.789 50.5511 106.681 50.8864 106.466 51.1818C106.252 51.4773 105.954 51.7102 105.571 51.8807C105.187 52.0511 104.741 52.1364 104.233 52.1364C103.565 52.1364 103.012 51.9915 102.575 51.7017C102.137 51.4119 101.86 50.9886 101.744 50.4318L102.699 50.1932C102.789 50.5455 102.961 50.8097 103.214 50.9858C103.47 51.1619 103.804 51.25 104.216 51.25C104.684 51.25 105.056 51.1506 105.332 50.9517C105.61 50.75 105.75 50.5085 105.75 50.2273C105.75 50 105.67 49.8097 105.511 49.6562C105.352 49.5 105.108 49.3835 104.778 49.3068L103.687 49.0511C103.088 48.9091 102.647 48.6889 102.366 48.3906C102.088 48.0895 101.949 47.7131 101.949 47.2614C101.949 46.892 102.052 46.5653 102.26 46.2812C102.47 45.9972 102.755 45.7741 103.116 45.6122C103.48 45.4503 103.892 45.3693 104.352 45.3693C105 45.3693 105.508 45.5114 105.877 45.7955C106.25 46.0795 106.514 46.4545 106.67 46.9205ZM112.94 46.9205L112.036 47.1761C111.979 47.0256 111.896 46.8793 111.785 46.7372C111.677 46.5923 111.529 46.473 111.342 46.3793C111.154 46.2855 110.914 46.2386 110.621 46.2386C110.221 46.2386 109.887 46.331 109.62 46.5156C109.356 46.6974 109.224 46.929 109.224 47.2102C109.224 47.4602 109.315 47.6577 109.496 47.8026C109.678 47.9474 109.962 48.0682 110.349 48.1648L111.32 48.4034C111.906 48.5455 112.342 48.7628 112.629 49.0554C112.915 49.3452 113.059 49.7187 113.059 50.1761C113.059 50.5511 112.951 50.8864 112.735 51.1818C112.522 51.4773 112.224 51.7102 111.84 51.8807C111.457 52.0511 111.011 52.1364 110.502 52.1364C109.835 52.1364 109.282 51.9915 108.844 51.7017C108.407 51.4119 108.13 50.9886 108.013 50.4318L108.968 50.1932C109.059 50.5455 109.231 50.8097 109.484 50.9858C109.739 51.1619 110.073 51.25 110.485 51.25C110.954 51.25 111.326 51.1506 111.602 50.9517C111.88 50.75 112.019 50.5085 112.019 50.2273C112.019 50 111.94 49.8097 111.781 49.6562C111.621 49.5 111.377 49.3835 111.048 49.3068L109.957 49.0511C109.357 48.9091 108.917 48.6889 108.636 48.3906C108.357 48.0895 108.218 47.7131 108.218 47.2614C108.218 46.892 108.322 46.5653 108.529 46.2812C108.739 45.9972 109.025 45.7741 109.386 45.6122C109.749 45.4503 110.161 45.3693 110.621 45.3693C111.269 45.3693 111.778 45.5114 112.147 45.7955C112.519 46.0795 112.783 46.4545 112.94 46.9205ZM114.573 52V45.4545H115.578V52H114.573ZM115.084 44.3636C114.888 44.3636 114.719 44.2969 114.577 44.1634C114.438 44.0298 114.368 43.8693 114.368 43.6818C114.368 43.4943 114.438 43.3338 114.577 43.2003C114.719 43.0668 114.888 43 115.084 43C115.28 43 115.448 43.0668 115.587 43.2003C115.729 43.3338 115.8 43.4943 115.8 43.6818C115.8 43.8693 115.729 44.0298 115.587 44.1634C115.448 44.2969 115.28 44.3636 115.084 44.3636ZM120.08 52.1364C119.466 52.1364 118.938 51.9915 118.494 51.7017C118.051 51.4119 117.71 51.0128 117.472 50.5043C117.233 49.9957 117.114 49.4148 117.114 48.7614C117.114 48.0966 117.236 47.5099 117.48 47.0014C117.727 46.4901 118.071 46.0909 118.511 45.804C118.955 45.5142 119.472 45.3693 120.062 45.3693C120.523 45.3693 120.938 45.4545 121.307 45.625C121.676 45.7955 121.979 46.0341 122.214 46.3409C122.45 46.6477 122.597 47.0057 122.653 47.4148H121.648C121.571 47.1165 121.401 46.8523 121.136 46.6222C120.875 46.3892 120.523 46.2727 120.08 46.2727C119.688 46.2727 119.344 46.375 119.048 46.5795C118.756 46.7812 118.527 47.0668 118.362 47.4361C118.2 47.8026 118.119 48.233 118.119 48.7273C118.119 49.233 118.199 49.6733 118.358 50.0483C118.52 50.4233 118.747 50.7145 119.04 50.9219C119.335 51.1293 119.682 51.233 120.08 51.233C120.341 51.233 120.578 51.1875 120.791 51.0966C121.004 51.0057 121.185 50.875 121.332 50.7045C121.48 50.5341 121.585 50.3295 121.648 50.0909H122.653C122.597 50.4773 122.456 50.8253 122.232 51.1349C122.01 51.4418 121.716 51.6861 121.349 51.8679C120.986 52.0469 120.563 52.1364 120.08 52.1364ZM130.345 45.4545V46.3068H126.953V45.4545H130.345ZM127.942 43.8864H128.947V50.125C128.947 50.4091 128.989 50.6222 129.071 50.7642C129.156 50.9034 129.264 50.9972 129.395 51.0455C129.528 51.0909 129.669 51.1136 129.817 51.1136C129.928 51.1136 130.018 51.108 130.089 51.0966C130.161 51.0824 130.217 51.071 130.26 51.0625L130.464 51.9659C130.396 51.9915 130.301 52.017 130.179 52.0426C130.057 52.071 129.902 52.0852 129.714 52.0852C129.43 52.0852 129.152 52.0241 128.879 51.902C128.609 51.7798 128.385 51.5938 128.206 51.3438C128.03 51.0938 127.942 50.7784 127.942 50.3977V43.8864ZM134.447 52.1364C133.856 52.1364 133.337 51.9957 132.891 51.7145C132.448 51.4332 132.102 51.0398 131.852 50.5341C131.604 50.0284 131.481 49.4375 131.481 48.7614C131.481 48.0795 131.604 47.4844 131.852 46.9759C132.102 46.4673 132.448 46.0724 132.891 45.7912C133.337 45.5099 133.856 45.3693 134.447 45.3693C135.038 45.3693 135.555 45.5099 135.998 45.7912C136.444 46.0724 136.79 46.4673 137.038 46.9759C137.288 47.4844 137.413 48.0795 137.413 48.7614C137.413 49.4375 137.288 50.0284 137.038 50.5341C136.79 51.0398 136.444 51.4332 135.998 51.7145C135.555 51.9957 135.038 52.1364 134.447 52.1364ZM134.447 51.233C134.896 51.233 135.265 51.1179 135.555 50.8878C135.844 50.6577 136.059 50.3551 136.198 49.9801C136.337 49.6051 136.407 49.1989 136.407 48.7614C136.407 48.3239 136.337 47.9162 136.198 47.5384C136.059 47.1605 135.844 46.8551 135.555 46.6222C135.265 46.3892 134.896 46.2727 134.447 46.2727C133.998 46.2727 133.629 46.3892 133.339 46.6222C133.049 46.8551 132.835 47.1605 132.695 47.5384C132.556 47.9162 132.487 48.3239 132.487 48.7614C132.487 49.1989 132.556 49.6051 132.695 49.9801C132.835 50.3551 133.049 50.6577 133.339 50.8878C133.629 51.1179 133.998 51.233 134.447 51.233ZM142.459 52V43.2727H145.51C146.118 43.2727 146.62 43.3778 147.015 43.5881C147.409 43.7955 147.703 44.0753 147.897 44.4276C148.09 44.777 148.186 45.1648 148.186 45.5909C148.186 45.9659 148.12 46.2756 147.986 46.5199C147.855 46.7642 147.682 46.9574 147.466 47.0994C147.253 47.2415 147.022 47.3466 146.772 47.4148V47.5C147.039 47.517 147.307 47.6108 147.577 47.7812C147.847 47.9517 148.073 48.196 148.255 48.5142C148.436 48.8324 148.527 49.2216 148.527 49.6818C148.527 50.1193 148.428 50.5128 148.229 50.8622C148.03 51.2116 147.716 51.4886 147.287 51.6932C146.858 51.8977 146.3 52 145.613 52H142.459ZM143.516 51.0625H145.613C146.303 51.0625 146.793 50.929 147.083 50.6619C147.375 50.392 147.522 50.0653 147.522 49.6818C147.522 49.3864 147.446 49.1136 147.296 48.8636C147.145 48.6108 146.931 48.4091 146.652 48.2585C146.374 48.1051 146.044 48.0284 145.664 48.0284H143.516V51.0625ZM143.516 47.108H145.476C145.794 47.108 146.081 47.0455 146.337 46.9205C146.596 46.7955 146.8 46.6193 146.951 46.392C147.104 46.1648 147.181 45.8977 147.181 45.5909C147.181 45.2074 147.047 44.8821 146.78 44.6151C146.513 44.3452 146.09 44.2102 145.51 44.2102H143.516V47.108ZM150.127 52V45.4545H151.133V52H150.127ZM150.639 44.3636C150.443 44.3636 150.274 44.2969 150.132 44.1634C149.993 44.0298 149.923 43.8693 149.923 43.6818C149.923 43.4943 149.993 43.3338 150.132 43.2003C150.274 43.0668 150.443 43 150.639 43C150.835 43 151.002 43.0668 151.142 43.2003C151.284 43.3338 151.355 43.4943 151.355 43.6818C151.355 43.8693 151.284 44.0298 151.142 44.1634C151.002 44.2969 150.835 44.3636 150.639 44.3636ZM155.822 45.4545V46.3068H152.43V45.4545H155.822ZM153.418 43.8864H154.424V50.125C154.424 50.4091 154.465 50.6222 154.548 50.7642C154.633 50.9034 154.741 50.9972 154.871 51.0455C155.005 51.0909 155.146 51.1136 155.293 51.1136C155.404 51.1136 155.495 51.108 155.566 51.0966C155.637 51.0824 155.694 51.071 155.737 51.0625L155.941 51.9659C155.873 51.9915 155.778 52.017 155.656 52.0426C155.533 52.071 155.379 52.0852 155.191 52.0852C154.907 52.0852 154.629 52.0241 154.356 51.902C154.086 51.7798 153.862 51.5938 153.683 51.3438C153.506 51.0938 153.418 50.7784 153.418 50.3977V43.8864ZM159.923 52.1364C159.31 52.1364 158.781 51.9915 158.338 51.7017C157.895 51.4119 157.554 51.0128 157.315 50.5043C157.077 49.9957 156.957 49.4148 156.957 48.7614C156.957 48.0966 157.08 47.5099 157.324 47.0014C157.571 46.4901 157.915 46.0909 158.355 45.804C158.798 45.5142 159.315 45.3693 159.906 45.3693C160.366 45.3693 160.781 45.4545 161.151 45.625C161.52 45.7955 161.822 46.0341 162.058 46.3409C162.294 46.6477 162.44 47.0057 162.497 47.4148H161.491C161.415 47.1165 161.244 46.8523 160.98 46.6222C160.719 46.3892 160.366 46.2727 159.923 46.2727C159.531 46.2727 159.188 46.375 158.892 46.5795C158.599 46.7812 158.371 47.0668 158.206 47.4361C158.044 47.8026 157.963 48.233 157.963 48.7273C157.963 49.233 158.043 49.6733 158.202 50.0483C158.364 50.4233 158.591 50.7145 158.884 50.9219C159.179 51.1293 159.526 51.233 159.923 51.233C160.185 51.233 160.422 51.1875 160.635 51.0966C160.848 51.0057 161.028 50.875 161.176 50.7045C161.324 50.5341 161.429 50.3295 161.491 50.0909H162.497C162.44 50.4773 162.3 50.8253 162.075 51.1349C161.854 51.4418 161.56 51.6861 161.193 51.8679C160.83 52.0469 160.406 52.1364 159.923 52.1364ZM166.626 52.1364C166.036 52.1364 165.517 51.9957 165.071 51.7145C164.628 51.4332 164.281 51.0398 164.031 50.5341C163.784 50.0284 163.661 49.4375 163.661 48.7614C163.661 48.0795 163.784 47.4844 164.031 46.9759C164.281 46.4673 164.628 46.0724 165.071 45.7912C165.517 45.5099 166.036 45.3693 166.626 45.3693C167.217 45.3693 167.734 45.5099 168.178 45.7912C168.624 46.0724 168.97 46.4673 169.217 46.9759C169.467 47.4844 169.592 48.0795 169.592 48.7614C169.592 49.4375 169.467 50.0284 169.217 50.5341C168.97 51.0398 168.624 51.4332 168.178 51.7145C167.734 51.9957 167.217 52.1364 166.626 52.1364ZM166.626 51.233C167.075 51.233 167.445 51.1179 167.734 50.8878C168.024 50.6577 168.239 50.3551 168.378 49.9801C168.517 49.6051 168.587 49.1989 168.587 48.7614C168.587 48.3239 168.517 47.9162 168.378 47.5384C168.239 47.1605 168.024 46.8551 167.734 46.6222C167.445 46.3892 167.075 46.2727 166.626 46.2727C166.178 46.2727 165.808 46.3892 165.518 46.6222C165.229 46.8551 165.014 47.1605 164.875 47.5384C164.736 47.9162 164.666 48.3239 164.666 48.7614C164.666 49.1989 164.736 49.6051 164.875 49.9801C165.014 50.3551 165.229 50.6577 165.518 50.8878C165.808 51.1179 166.178 51.233 166.626 51.233ZM171.127 52V45.4545H172.133V52H171.127ZM171.639 44.3636C171.443 44.3636 171.274 44.2969 171.132 44.1634C170.993 44.0298 170.923 43.8693 170.923 43.6818C170.923 43.4943 170.993 43.3338 171.132 43.2003C171.274 43.0668 171.443 43 171.639 43C171.835 43 172.002 43.0668 172.142 43.2003C172.284 43.3338 172.355 43.4943 172.355 43.6818C172.355 43.8693 172.284 44.0298 172.142 44.1634C172.002 44.2969 171.835 44.3636 171.639 44.3636ZM174.981 48.0625V52H173.975V45.4545H174.947V46.4773H175.032C175.185 46.1449 175.418 45.8778 175.731 45.6761C176.043 45.4716 176.447 45.3693 176.941 45.3693C177.384 45.3693 177.772 45.4602 178.104 45.642C178.437 45.821 178.695 46.0938 178.88 46.4602C179.065 46.8239 179.157 47.2841 179.157 47.8409V52H178.151V47.9091C178.151 47.3949 178.018 46.9943 177.751 46.7074C177.484 46.4176 177.117 46.2727 176.651 46.2727C176.33 46.2727 176.043 46.3423 175.79 46.4815C175.54 46.6207 175.343 46.8239 175.198 47.0909C175.053 47.358 174.981 47.6818 174.981 48.0625Z" fill="#FFC4C9"/>
<path d="M26.1477 33V21.3636H33.7159V23.1307H28.2557V26.2898H33.3239V28.0568H28.2557V31.233H33.7614V33H26.1477ZM35.8551 23.1307V21.3636H45.1392V23.1307H41.5426V33H39.4517V23.1307H35.8551ZM56.8736 25.2898H54.7486C54.688 24.9413 54.5762 24.6326 54.4134 24.3636C54.2505 24.0909 54.0478 23.8598 53.8054 23.6705C53.563 23.4811 53.2865 23.339 52.9759 23.2443C52.669 23.1458 52.3376 23.0966 51.9815 23.0966C51.349 23.0966 50.7884 23.2557 50.2997 23.5739C49.8111 23.8883 49.4285 24.3504 49.152 24.9602C48.8755 25.5663 48.7372 26.3068 48.7372 27.1818C48.7372 28.072 48.8755 28.822 49.152 29.4318C49.4323 30.0379 49.8149 30.4962 50.2997 30.8068C50.7884 31.1136 51.3471 31.267 51.9759 31.267C52.3243 31.267 52.6501 31.2216 52.9531 31.1307C53.2599 31.036 53.5346 30.8977 53.777 30.7159C54.0232 30.5341 54.2296 30.3106 54.3963 30.0455C54.5668 29.7803 54.6842 29.4773 54.7486 29.1364L56.8736 29.1477C56.794 29.7008 56.6217 30.2197 56.3565 30.7045C56.0952 31.1894 55.7524 31.6174 55.3281 31.9886C54.9039 32.3561 54.4077 32.6439 53.8395 32.8523C53.2713 33.0568 52.6406 33.1591 51.9474 33.1591C50.9247 33.1591 50.0118 32.9223 49.2088 32.4489C48.4058 31.9754 47.7732 31.2917 47.3111 30.3977C46.849 29.5038 46.6179 28.4318 46.6179 27.1818C46.6179 25.928 46.8509 24.8561 47.3168 23.9659C47.7827 23.072 48.4171 22.3883 49.2202 21.9148C50.0232 21.4413 50.9323 21.2045 51.9474 21.2045C52.5952 21.2045 53.1974 21.2955 53.7543 21.4773C54.3111 21.6591 54.8073 21.9261 55.2429 22.2784C55.6785 22.6269 56.0365 23.0549 56.3168 23.5625C56.6009 24.0663 56.7865 24.642 56.8736 25.2898ZM63.9631 20.8182L60.2131 34.75H58.4119L62.1619 20.8182H63.9631ZM65.8665 33V21.3636H70.321C71.1619 21.3636 71.8608 21.4962 72.4176 21.7614C72.9782 22.0227 73.3968 22.3807 73.6733 22.8352C73.9536 23.2898 74.0938 23.8049 74.0938 24.3807C74.0938 24.8542 74.0028 25.2595 73.821 25.5966C73.6392 25.9299 73.3949 26.2008 73.0881 26.4091C72.7812 26.6174 72.4384 26.767 72.0597 26.858V26.9716C72.4725 26.9943 72.8684 27.1212 73.2472 27.3523C73.6297 27.5795 73.9422 27.9015 74.1847 28.3182C74.4271 28.7348 74.5483 29.2386 74.5483 29.8295C74.5483 30.4318 74.4025 30.9735 74.1108 31.4545C73.8191 31.9318 73.3797 32.3087 72.7926 32.5852C72.2055 32.8617 71.4669 33 70.5767 33H65.8665ZM67.9744 31.2386H70.2415C71.0066 31.2386 71.5578 31.0928 71.8949 30.8011C72.2358 30.5057 72.4062 30.1269 72.4062 29.6648C72.4062 29.3201 72.321 29.0095 72.1506 28.733C71.9801 28.4527 71.7377 28.233 71.4233 28.0739C71.1089 27.911 70.7339 27.8295 70.2983 27.8295H67.9744V31.2386ZM67.9744 26.3125H70.0597C70.4233 26.3125 70.7509 26.2462 71.0426 26.1136C71.3343 25.9773 71.5634 25.786 71.7301 25.5398C71.9006 25.2898 71.9858 24.9943 71.9858 24.6534C71.9858 24.2027 71.8267 23.8314 71.5085 23.5398C71.1941 23.2481 70.7263 23.1023 70.1051 23.1023H67.9744V26.3125ZM76.3707 23.1307V21.3636H85.6548V23.1307H82.0582V33H79.9673V23.1307H76.3707ZM97.3892 25.2898H95.2642C95.2036 24.9413 95.0919 24.6326 94.929 24.3636C94.7661 24.0909 94.5634 23.8598 94.321 23.6705C94.0786 23.4811 93.8021 23.339 93.4915 23.2443C93.1847 23.1458 92.8532 23.0966 92.4972 23.0966C91.8646 23.0966 91.304 23.2557 90.8153 23.5739C90.3267 23.8883 89.9441 24.3504 89.6676 24.9602C89.3911 25.5663 89.2528 26.3068 89.2528 27.1818C89.2528 28.072 89.3911 28.822 89.6676 29.4318C89.9479 30.0379 90.3305 30.4962 90.8153 30.8068C91.304 31.1136 91.8627 31.267 92.4915 31.267C92.84 31.267 93.1657 31.2216 93.4688 31.1307C93.7756 31.036 94.0502 30.8977 94.2926 30.7159C94.5388 30.5341 94.7453 30.3106 94.9119 30.0455C95.0824 29.7803 95.1998 29.4773 95.2642 29.1364L97.3892 29.1477C97.3097 29.7008 97.1373 30.2197 96.8722 30.7045C96.6108 31.1894 96.268 31.6174 95.8438 31.9886C95.4195 32.3561 94.9233 32.6439 94.3551 32.8523C93.7869 33.0568 93.1563 33.1591 92.4631 33.1591C91.4403 33.1591 90.5275 32.9223 89.7244 32.4489C88.9214 31.9754 88.2888 31.2917 87.8267 30.3977C87.3646 29.5038 87.1335 28.4318 87.1335 27.1818C87.1335 25.928 87.3665 24.8561 87.8324 23.9659C88.2983 23.072 88.9328 22.3883 89.7358 21.9148C90.5388 21.4413 91.4479 21.2045 92.4631 21.2045C93.1108 21.2045 93.7131 21.2955 94.2699 21.4773C94.8267 21.6591 95.3229 21.9261 95.7585 22.2784C96.1941 22.6269 96.5521 23.0549 96.8324 23.5625C97.1165 24.0663 97.3021 24.642 97.3892 25.2898Z" fill="white"/>
</g>
</g>
<defs>
<clipPath id="clip0_0_1165">
<rect width="263" height="170" fill="white"/>
</clipPath>
</defs>
</svg>
