<svg width="263" height="170" viewBox="0 0 263 170" fill="none" xmlns="http://www.w3.org/2000/svg">
<g clip-path="url(#clip0_0_1154)">
<path fill-rule="evenodd" clip-rule="evenodd" d="M0 10C0 4.47715 4.47715 0 10 0L253 0C258.523 0 263 4.47715 263 10V160C263 165.523 258.523 170 253 170H10C4.47715 170 0 165.523 0 160L0 10Z" fill="white"/>
<mask id="mask0_0_1154" style="mask-type:luminance" maskUnits="userSpaceOnUse" x="0" y="0" width="263" height="170">
<path fill-rule="evenodd" clip-rule="evenodd" d="M0 10C0 4.47715 4.47715 0 10 0L253 0C258.523 0 263 4.47715 263 10V160C263 165.523 258.523 170 253 170H10C4.47715 170 0 165.523 0 160L0 10Z" fill="white"/>
</mask>
<g mask="url(#mask0_0_1154)">
<path opacity="0.5" d="M-1.93943 135.349L10.3195 146.733L10.8001 147.179L11.4008 146.916L27.4008 139.916L27.5836 139.836L27.7217 139.692L43.3016 123.447L58.7191 127.96L59.7214 128.253L59.971 127.239L75.7311 63.2136L90.7575 66.9701L91.6115 67.1837L91.9316 66.3635L107.493 26.4874L122.237 35.7025L138.111 66.4586L138.303 66.8299L138.702 66.9545L154.467 71.8811L170.293 87.7071L171.322 88.7367L171.914 87.4061L187.446 52.4582L202.47 61.848L202.917 62.1276L203.401 61.9162L219.119 55.0397L234.451 57.9145L250.219 77.6247L250.782 78.3287L251.541 77.8412L264 69.8317V171H-1.02531L-1.93943 135.349Z" fill="#FFC4C9" stroke="#FF4F52" stroke-width="2"/>
<path d="M240.636 138.3C241.557 138.3 242.352 138.466 243.023 138.799C243.693 139.131 244.21 139.587 244.574 140.167C244.938 140.746 245.119 141.408 245.119 142.153C245.119 142.897 244.938 143.559 244.574 144.138C244.21 144.718 243.693 145.174 243.023 145.506C242.352 145.839 241.557 146.005 240.636 146.005C239.716 146.005 238.92 145.839 238.25 145.506C237.58 145.174 237.062 144.718 236.699 144.138C236.335 143.559 236.153 142.897 236.153 142.153C236.153 141.408 236.335 140.746 236.699 140.167C237.062 139.587 237.58 139.131 238.25 138.799C238.92 138.466 239.716 138.3 240.636 138.3ZM240.636 139.323C239.881 139.323 239.243 139.449 238.723 139.702C238.203 139.952 237.81 140.292 237.543 140.721C237.276 141.147 237.142 141.624 237.142 142.153C237.142 142.681 237.276 143.16 237.543 143.589C237.81 144.015 238.203 144.354 238.723 144.607C239.243 144.857 239.881 144.982 240.636 144.982C241.392 144.982 242.03 144.857 242.55 144.607C243.07 144.354 243.463 144.015 243.73 143.589C243.997 143.16 244.131 142.681 244.131 142.153C244.131 141.624 243.997 141.147 243.73 140.721C243.463 140.292 243.07 139.952 242.55 139.702C242.03 139.449 241.392 139.323 240.636 139.323ZM247.455 136.66H238.455V135.688H239.494V135.569C239.381 135.495 239.236 135.393 239.06 135.262C238.881 135.128 238.722 134.938 238.582 134.691C238.44 134.441 238.369 134.103 238.369 133.677C238.369 133.126 238.507 132.64 238.783 132.219C239.058 131.799 239.449 131.471 239.955 131.235C240.46 130.999 241.057 130.881 241.744 130.881C242.438 130.881 243.038 130.999 243.547 131.235C244.053 131.471 244.445 131.797 244.723 132.215C244.999 132.633 245.136 133.114 245.136 133.66C245.136 134.08 245.067 134.417 244.928 134.67C244.786 134.922 244.625 135.117 244.446 135.253C244.264 135.39 244.114 135.495 243.994 135.569V135.654H247.455V136.66ZM241.727 135.671C242.222 135.671 242.658 135.599 243.036 135.454C243.411 135.309 243.705 135.097 243.918 134.819C244.128 134.54 244.233 134.199 244.233 133.796C244.233 133.376 244.122 133.025 243.901 132.743C243.676 132.459 243.375 132.246 242.997 132.104C242.616 131.959 242.193 131.887 241.727 131.887C241.267 131.887 240.852 131.958 240.483 132.1C240.111 132.239 239.817 132.451 239.601 132.735C239.382 133.016 239.273 133.37 239.273 133.796C239.273 134.205 239.376 134.549 239.584 134.827C239.788 135.106 240.075 135.316 240.445 135.458C240.811 135.6 241.239 135.671 241.727 135.671ZM245.136 126.603C245.136 127.233 244.997 127.778 244.719 128.235C244.438 128.689 244.045 129.04 243.543 129.287C243.037 129.532 242.449 129.654 241.778 129.654C241.108 129.654 240.517 129.532 240.006 129.287C239.491 129.04 239.091 128.697 238.804 128.256C238.514 127.813 238.369 127.296 238.369 126.705C238.369 126.364 238.426 126.028 238.54 125.695C238.653 125.363 238.838 125.06 239.094 124.787C239.347 124.515 239.682 124.297 240.099 124.135C240.517 123.974 241.031 123.893 241.642 123.893H242.068V128.938H241.199V124.915C240.83 124.915 240.5 124.989 240.21 125.137C239.92 125.282 239.692 125.489 239.524 125.759C239.357 126.026 239.273 126.341 239.273 126.705C239.273 127.106 239.372 127.452 239.571 127.745C239.767 128.035 240.023 128.258 240.338 128.414C240.653 128.57 240.991 128.648 241.352 128.648H241.932C242.426 128.648 242.845 128.563 243.189 128.393C243.53 128.219 243.79 127.979 243.969 127.672C244.145 127.366 244.233 127.009 244.233 126.603C244.233 126.339 244.196 126.1 244.122 125.887C244.045 125.671 243.932 125.485 243.781 125.329C243.628 125.172 243.437 125.052 243.21 124.966L243.483 123.995C243.812 124.097 244.102 124.269 244.352 124.51C244.599 124.752 244.793 125.05 244.932 125.405C245.068 125.76 245.136 126.16 245.136 126.603ZM241.062 121.357H245V122.363H238.455V121.391H239.477V121.306C239.145 121.153 238.878 120.92 238.676 120.607C238.472 120.295 238.369 119.891 238.369 119.397C238.369 118.954 238.46 118.566 238.642 118.233C238.821 117.901 239.094 117.643 239.46 117.458C239.824 117.273 240.284 117.181 240.841 117.181H245V118.187H240.909C240.395 118.187 239.994 118.32 239.707 118.587C239.418 118.854 239.273 119.221 239.273 119.687C239.273 120.008 239.342 120.295 239.482 120.547C239.621 120.797 239.824 120.995 240.091 121.14C240.358 121.285 240.682 121.357 241.062 121.357ZM245 111.832H236.273V106.565H237.21V110.775H240.159V106.838H241.097V110.775H244.062V106.497H245V111.832ZM238.455 104.046L241.131 102.478L238.455 100.91V99.7509L241.727 101.865L245 99.7509V100.91L242.46 102.478L245 104.046V105.205L241.727 103.126L238.455 105.205V104.046ZM245.136 95.9263C245.136 96.54 244.991 97.0684 244.702 97.5115C244.412 97.9547 244.013 98.2956 243.504 98.5343C242.996 98.7729 242.415 98.8922 241.761 98.8922C241.097 98.8922 240.51 98.7701 240.001 98.5257C239.49 98.2786 239.091 97.9348 238.804 97.4945C238.514 97.0513 238.369 96.5343 238.369 95.9434C238.369 95.4831 238.455 95.0684 238.625 94.699C238.795 94.3297 239.034 94.0272 239.341 93.7914C239.648 93.5556 240.006 93.4093 240.415 93.3524V94.3581C240.116 94.4348 239.852 94.6053 239.622 94.8695C239.389 95.1309 239.273 95.4831 239.273 95.9263C239.273 96.3184 239.375 96.6621 239.58 96.9576C239.781 97.2502 240.067 97.4789 240.436 97.6436C240.803 97.8056 241.233 97.8865 241.727 97.8865C242.233 97.8865 242.673 97.807 243.048 97.6479C243.423 97.486 243.714 97.2587 243.922 96.9661C244.129 96.6706 244.233 96.324 244.233 95.9263C244.233 95.665 244.188 95.4277 244.097 95.2147C244.006 95.0016 243.875 94.8212 243.705 94.6735C243.534 94.5257 243.33 94.4206 243.091 94.3581V93.3524C243.477 93.4093 243.825 93.5499 244.135 93.7743C244.442 93.9959 244.686 94.29 244.868 94.6564C245.047 95.0201 245.136 95.4434 245.136 95.9263ZM241.062 90.8766H245V91.8823H236.273V90.8766H239.477V90.7914C239.139 90.638 238.871 90.4078 238.672 90.101C238.47 89.7914 238.369 89.3794 238.369 88.8652C238.369 88.4192 238.459 88.0286 238.638 87.6934C238.814 87.3581 239.085 87.0982 239.452 86.9135C239.815 86.726 240.278 86.6323 240.841 86.6323H245V87.638H240.909C240.389 87.638 239.987 87.7729 239.703 88.0428C239.416 88.3098 239.273 88.6806 239.273 89.155C239.273 89.4846 239.342 89.78 239.482 90.0414C239.621 90.2999 239.824 90.5044 240.091 90.655C240.358 90.8027 240.682 90.8766 241.062 90.8766ZM245.153 82.8663C245.153 83.2811 245.075 83.6575 244.919 83.9956C244.76 84.3336 244.531 84.6021 244.233 84.801C243.932 84.9998 243.568 85.0993 243.142 85.0993C242.767 85.0993 242.463 85.0254 242.23 84.8777C241.994 84.7299 241.81 84.5325 241.676 84.2853C241.543 84.0382 241.443 83.7654 241.378 83.4672C241.31 83.166 241.256 82.8635 241.216 82.5595C241.165 82.1618 241.126 81.8393 241.101 81.5922C241.072 81.3422 241.026 81.1603 240.96 81.0467C240.895 80.9302 240.781 80.872 240.619 80.872H240.585C240.165 80.872 239.838 80.987 239.605 81.2172C239.372 81.4444 239.256 81.7896 239.256 82.2527C239.256 82.7328 239.361 83.1092 239.571 83.3819C239.781 83.6547 240.006 83.8464 240.244 83.9572L239.903 84.9118C239.506 84.7413 239.196 84.514 238.974 84.2299C238.75 83.943 238.594 83.6305 238.506 83.2924C238.415 82.9515 238.369 82.6163 238.369 82.2868C238.369 82.0765 238.395 81.835 238.446 81.5623C238.494 81.2868 238.595 81.0211 238.749 80.7654C238.902 80.5069 239.134 80.2924 239.443 80.122C239.753 79.9515 240.168 79.8663 240.688 79.8663H245V80.872H244.114V80.9231C244.256 80.9913 244.408 81.1049 244.57 81.264C244.732 81.4231 244.869 81.6348 244.983 81.899C245.097 82.1632 245.153 82.4856 245.153 82.8663ZM244.25 82.7129C244.25 82.3152 244.172 81.9799 244.016 81.7072C243.859 81.4316 243.658 81.2243 243.411 81.085C243.163 80.943 242.903 80.872 242.631 80.872H241.71C241.761 80.9146 241.808 81.0083 241.851 81.1532C241.891 81.2953 241.926 81.46 241.957 81.6475C241.986 81.8322 242.011 82.0126 242.034 82.1887C242.054 82.362 242.071 82.5027 242.085 82.6106C242.119 82.872 242.175 83.1163 242.251 83.3436C242.325 83.568 242.437 83.7498 242.588 83.889C242.736 84.0254 242.937 84.0936 243.193 84.0936C243.543 84.0936 243.807 83.9643 243.986 83.7058C244.162 83.4444 244.25 83.1135 244.25 82.7129ZM241.062 77.025H245V78.0307H238.455V77.0591H239.477V76.9739C239.145 76.8205 238.878 76.5875 238.676 76.275C238.472 75.9625 238.369 75.5591 238.369 75.0648C238.369 74.6216 238.46 74.2338 238.642 73.9015C238.821 73.5691 239.094 73.3105 239.46 73.1259C239.824 72.9412 240.284 72.8489 240.841 72.8489H245V73.8546H240.909C240.395 73.8546 239.994 73.9881 239.707 74.2551C239.418 74.5222 239.273 74.8887 239.273 75.3546C239.273 75.6756 239.342 75.9625 239.482 76.2154C239.621 76.4654 239.824 76.6628 240.091 76.8077C240.358 76.9526 240.682 77.025 241.062 77.025ZM247.591 68.3691C247.591 68.8549 247.528 69.2725 247.403 69.622C247.281 69.9714 247.119 70.2626 246.918 70.4956C246.719 70.7257 246.506 70.9089 246.278 71.0453L245.716 70.2441C245.835 70.1532 245.972 70.0382 246.125 69.899C246.281 69.7598 246.416 69.5694 246.53 69.3279C246.646 69.0836 246.705 68.764 246.705 68.3691C246.705 67.8407 246.577 67.4047 246.321 67.0609C246.065 66.7172 245.665 66.5453 245.119 66.5453H243.79V66.6305C243.909 66.7044 244.057 66.8095 244.233 66.9458C244.406 67.0794 244.561 67.2725 244.697 67.5254C244.831 67.7754 244.898 68.1135 244.898 68.5396C244.898 69.068 244.773 69.5424 244.523 69.9629C244.273 70.3805 243.909 70.7115 243.432 70.9558C242.955 71.1973 242.375 71.318 241.693 71.318C241.023 71.318 240.439 71.2001 239.942 70.9643C239.442 70.7285 239.055 70.4004 238.783 69.9799C238.507 69.5595 238.369 69.0737 238.369 68.5225C238.369 68.0964 238.44 67.7583 238.582 67.5083C238.722 67.2555 238.881 67.0623 239.06 66.9288C239.236 66.7924 239.381 66.6873 239.494 66.6135V66.5112H238.455V65.5396H245.188C245.75 65.5396 246.207 65.6674 246.56 65.9231C246.915 66.176 247.175 66.5169 247.339 66.9458C247.507 67.372 247.591 67.8464 247.591 68.3691ZM243.994 68.4032C243.994 67.9998 243.902 67.6589 243.717 67.3805C243.533 67.1021 243.267 66.8904 242.92 66.7456C242.574 66.6007 242.159 66.5282 241.676 66.5282C241.205 66.5282 240.788 66.5993 240.428 66.7413C240.067 66.8833 239.784 67.0936 239.58 67.372C239.375 67.6504 239.273 67.9941 239.273 68.4032C239.273 68.8294 239.381 69.1845 239.597 69.4686C239.812 69.7498 240.102 69.9615 240.466 70.1035C240.83 70.2427 241.233 70.3123 241.676 70.3123C242.131 70.3123 242.533 70.2413 242.882 70.0993C243.229 69.9544 243.501 69.7413 243.7 69.46C243.896 69.176 243.994 68.8237 243.994 68.4032ZM245.136 60.9544C245.136 61.585 244.997 62.1291 244.719 62.5865C244.437 63.041 244.045 63.3919 243.543 63.639C243.037 63.8833 242.449 64.0055 241.778 64.0055C241.108 64.0055 240.517 63.8833 240.006 63.639C239.491 63.3919 239.091 63.0481 238.804 62.6078C238.514 62.1646 238.369 61.6475 238.369 61.0566C238.369 60.7157 238.426 60.3791 238.54 60.0467C238.653 59.7143 238.838 59.4118 239.094 59.139C239.347 58.8663 239.682 58.649 240.099 58.487C240.517 58.3251 241.031 58.2441 241.642 58.2441H242.068V63.2896H241.199V59.2669C240.83 59.2669 240.5 59.3407 240.21 59.4885C239.92 59.6333 239.692 59.8407 239.524 60.1106C239.357 60.3777 239.273 60.693 239.273 61.0566C239.273 61.4572 239.372 61.8038 239.571 62.0964C239.767 62.3862 240.023 62.6092 240.338 62.7654C240.653 62.9217 240.991 62.9998 241.352 62.9998H241.932C242.426 62.9998 242.845 62.9146 243.189 62.7441C243.53 62.5708 243.79 62.3308 243.969 62.024C244.145 61.7172 244.233 61.3606 244.233 60.9544C244.233 60.6902 244.196 60.4515 244.122 60.2385C244.045 60.0225 243.932 59.8365 243.781 59.6802C243.628 59.524 243.437 59.4032 243.21 59.318L243.483 58.3464C243.812 58.4487 244.102 58.6206 244.352 58.862C244.599 59.1035 244.793 59.4018 244.932 59.7569C245.068 60.112 245.136 60.5112 245.136 60.9544ZM245 53.2029H236.273V50.2541C236.273 49.5723 236.389 49.0126 236.622 48.5751C236.852 48.1376 237.169 47.8137 237.572 47.6035C237.976 47.3933 238.435 47.2882 238.949 47.2882C239.463 47.2882 239.919 47.3933 240.317 47.6035C240.714 47.8137 241.027 48.1362 241.254 48.5708C241.479 49.0055 241.591 49.5609 241.591 50.237V52.6234H240.636V50.2711C240.636 49.8052 240.568 49.4302 240.432 49.1461C240.295 48.8592 240.102 48.6518 239.852 48.524C239.599 48.3933 239.298 48.3279 238.949 48.3279C238.599 48.3279 238.294 48.3933 238.033 48.524C237.771 48.6547 237.57 48.8635 237.428 49.1504C237.283 49.4373 237.21 49.8166 237.21 50.2882V52.1461H245V53.2029ZM241.08 49.095L245 46.9473V48.1745L241.08 50.2882V49.095ZM245.153 43.7374C245.153 44.1522 245.075 44.5286 244.919 44.8667C244.76 45.2047 244.531 45.4732 244.233 45.6721C243.932 45.8709 243.568 45.9703 243.142 45.9703C242.767 45.9703 242.463 45.8965 242.23 45.7488C241.994 45.601 241.81 45.4036 241.676 45.1564C241.543 44.9093 241.443 44.6365 241.378 44.3382C241.31 44.0371 241.256 43.7346 241.216 43.4306C241.165 43.0328 241.126 42.7104 241.101 42.4632C241.072 42.2132 241.026 42.0314 240.96 41.9178C240.895 41.8013 240.781 41.7431 240.619 41.7431H240.585C240.165 41.7431 239.838 41.8581 239.605 42.0882C239.372 42.3155 239.256 42.6607 239.256 43.1238C239.256 43.6039 239.361 43.9803 239.571 44.253C239.781 44.5257 240.006 44.7175 240.244 44.8283L239.903 45.7828C239.506 45.6124 239.196 45.3851 238.974 45.101C238.75 44.8141 238.594 44.5016 238.506 44.1635C238.415 43.8226 238.369 43.4874 238.369 43.1578C238.369 42.9476 238.395 42.7061 238.446 42.4334C238.494 42.1578 238.595 41.8922 238.749 41.6365C238.902 41.378 239.134 41.1635 239.443 40.9931C239.753 40.8226 240.168 40.7374 240.687 40.7374H245V41.7431H244.114V41.7942C244.256 41.8624 244.408 41.976 244.57 42.1351C244.732 42.2942 244.869 42.5059 244.983 42.7701C245.097 43.0343 245.153 43.3567 245.153 43.7374ZM244.25 43.584C244.25 43.1863 244.172 42.851 244.016 42.5783C243.859 42.3027 243.658 42.0953 243.411 41.9561C243.163 41.8141 242.903 41.7431 242.631 41.7431H241.71C241.761 41.7857 241.808 41.8794 241.851 42.0243C241.891 42.1664 241.926 42.3311 241.957 42.5186C241.986 42.7033 242.011 42.8837 242.034 43.0598C242.054 43.2331 242.071 43.3738 242.085 43.4817C242.119 43.7431 242.175 43.9874 242.251 44.2147C242.325 44.4391 242.437 44.6209 242.588 44.7601C242.736 44.8965 242.937 44.9647 243.193 44.9647C243.543 44.9647 243.807 44.8354 243.986 44.5769C244.162 44.3155 244.25 43.9846 244.25 43.584ZM238.455 36.0552H239.307V39.4473H238.455V36.0552ZM236.886 38.4586V37.4529H243.125C243.409 37.4529 243.622 37.4118 243.764 37.3294C243.903 37.2441 243.997 37.1362 244.045 37.0055C244.091 36.872 244.114 36.7314 244.114 36.5836C244.114 36.4728 244.108 36.3819 244.097 36.3109C244.082 36.2399 244.071 36.1831 244.062 36.1404L244.966 35.9359C244.991 36.0041 245.017 36.0993 245.043 36.2214C245.071 36.3436 245.085 36.4984 245.085 36.6859C245.085 36.97 245.024 37.2484 244.902 37.5211C244.78 37.791 244.594 38.0154 244.344 38.1944C244.094 38.3706 243.778 38.4586 243.398 38.4586H236.886ZM245.136 31.8684C245.136 32.4991 244.997 33.0431 244.719 33.5005C244.437 33.9551 244.045 34.3059 243.543 34.5531C243.037 34.7974 242.449 34.9196 241.778 34.9196C241.108 34.9196 240.517 34.7974 240.006 34.5531C239.491 34.3059 239.091 33.9622 238.804 33.5218C238.514 33.0787 238.369 32.5616 238.369 31.9707C238.369 31.6298 238.426 31.2931 238.54 30.9608C238.653 30.6284 238.838 30.3258 239.094 30.0531C239.347 29.7804 239.682 29.563 240.099 29.4011C240.517 29.2392 241.031 29.1582 241.642 29.1582H242.068V34.2037H241.199V30.1809C240.83 30.1809 240.5 30.2548 240.21 30.4025C239.92 30.5474 239.692 30.7548 239.524 31.0247C239.357 31.2917 239.273 31.6071 239.273 31.9707C239.273 32.3713 239.372 32.7179 239.571 33.0105C239.767 33.3002 240.023 33.5233 240.338 33.6795C240.653 33.8358 240.991 33.9139 241.352 33.9139H241.932C242.426 33.9139 242.845 33.8287 243.189 33.6582C243.53 33.4849 243.79 33.2449 243.969 32.938C244.145 32.6312 244.233 32.2747 244.233 31.8684C244.233 31.6042 244.196 31.3656 244.122 31.1525C244.045 30.9366 243.932 30.7505 243.781 30.5943C243.628 30.438 243.437 30.3173 243.21 30.2321L243.483 29.2605C243.812 29.3627 244.102 29.5346 244.352 29.7761C244.599 30.0176 244.793 30.3159 244.932 30.671C245.068 31.0261 245.136 31.4252 245.136 31.8684ZM239.92 22.992L240.176 23.8954C240.026 23.9522 239.879 24.036 239.737 24.1468C239.592 24.2548 239.473 24.4025 239.379 24.59C239.286 24.7775 239.239 25.0176 239.239 25.3102C239.239 25.7108 239.331 26.0446 239.516 26.3116C239.697 26.5758 239.929 26.7079 240.21 26.7079C240.46 26.7079 240.658 26.617 240.803 26.4352C240.947 26.2534 241.068 25.9693 241.165 25.5829L241.403 24.6113C241.545 24.0261 241.763 23.59 242.055 23.3031C242.345 23.0162 242.719 22.8727 243.176 22.8727C243.551 22.8727 243.886 22.9806 244.182 23.1966C244.477 23.4096 244.71 23.7079 244.881 24.0914C245.051 24.475 245.136 24.921 245.136 25.4295C245.136 26.0971 244.991 26.6497 244.702 27.0872C244.412 27.5247 243.989 27.8017 243.432 27.9181L243.193 26.9636C243.545 26.8727 243.81 26.7008 243.986 26.448C244.162 26.1923 244.25 25.8585 244.25 25.4466C244.25 24.9778 244.151 24.6056 243.952 24.3301C243.75 24.0517 243.509 23.9125 243.227 23.9125C243 23.9125 242.81 23.992 242.656 24.1511C242.5 24.3102 242.384 24.5545 242.307 24.8841L242.051 25.975C241.909 26.5744 241.689 27.0147 241.391 27.296C241.089 27.5744 240.713 27.7136 240.261 27.7136C239.892 27.7136 239.565 27.6099 239.281 27.4025C238.997 27.1923 238.774 26.9068 238.612 26.546C238.45 26.1824 238.369 25.7704 238.369 25.3102C238.369 24.6625 238.511 24.1539 238.795 23.7846C239.08 23.4125 239.455 23.1483 239.92 22.992Z" fill="#939699"/>
<path d="M28.75 147.119C28.108 147.119 27.5611 146.945 27.1094 146.595C26.6577 146.243 26.3125 145.733 26.0739 145.065C25.8352 144.395 25.7159 143.585 25.7159 142.636C25.7159 141.693 25.8352 140.888 26.0739 140.22C26.3153 139.55 26.6619 139.038 27.1136 138.686C27.5682 138.331 28.1136 138.153 28.75 138.153C29.3864 138.153 29.9304 138.331 30.3821 138.686C30.8366 139.038 31.1832 139.55 31.4219 140.22C31.6634 140.888 31.7841 141.693 31.7841 142.636C31.7841 143.585 31.6648 144.395 31.4261 145.065C31.1875 145.733 30.8423 146.243 30.3906 146.595C29.9389 146.945 29.392 147.119 28.75 147.119ZM28.75 146.182C29.3864 146.182 29.8807 145.875 30.233 145.261C30.5852 144.648 30.7614 143.773 30.7614 142.636C30.7614 141.881 30.6804 141.237 30.5185 140.706C30.3594 140.175 30.1293 139.77 29.8281 139.491C29.5298 139.213 29.1705 139.074 28.75 139.074C28.1193 139.074 27.6264 139.385 27.2713 140.007C26.9162 140.626 26.7386 141.503 26.7386 142.636C26.7386 143.392 26.8182 144.034 26.9773 144.562C27.1364 145.091 27.3651 145.493 27.6634 145.768C27.9645 146.044 28.3267 146.182 28.75 146.182ZM33.8487 147.068C33.6385 147.068 33.4581 146.993 33.3075 146.842C33.157 146.692 33.0817 146.511 33.0817 146.301C33.0817 146.091 33.157 145.911 33.3075 145.76C33.4581 145.609 33.6385 145.534 33.8487 145.534C34.0589 145.534 34.2393 145.609 34.3899 145.76C34.5405 145.911 34.6158 146.091 34.6158 146.301C34.6158 146.44 34.5803 146.568 34.5092 146.685C34.4411 146.801 34.3487 146.895 34.2322 146.966C34.1186 147.034 33.9908 147.068 33.8487 147.068ZM38.9453 147.119C38.3033 147.119 37.7564 146.945 37.3047 146.595C36.853 146.243 36.5078 145.733 36.2692 145.065C36.0305 144.395 35.9112 143.585 35.9112 142.636C35.9112 141.693 36.0305 140.888 36.2692 140.22C36.5107 139.55 36.8572 139.038 37.3089 138.686C37.7635 138.331 38.3089 138.153 38.9453 138.153C39.5817 138.153 40.1257 138.331 40.5774 138.686C41.032 139.038 41.3786 139.55 41.6172 140.22C41.8587 140.888 41.9794 141.693 41.9794 142.636C41.9794 143.585 41.8601 144.395 41.6214 145.065C41.3828 145.733 41.0376 146.243 40.5859 146.595C40.1342 146.945 39.5874 147.119 38.9453 147.119ZM38.9453 146.182C39.5817 146.182 40.076 145.875 40.4283 145.261C40.7805 144.648 40.9567 143.773 40.9567 142.636C40.9567 141.881 40.8757 141.237 40.7138 140.706C40.5547 140.175 40.3246 139.77 40.0234 139.491C39.7251 139.213 39.3658 139.074 38.9453 139.074C38.3146 139.074 37.8217 139.385 37.4666 140.007C37.1115 140.626 36.9339 141.503 36.9339 142.636C36.9339 143.392 37.0135 144.034 37.1726 144.562C37.3317 145.091 37.5604 145.493 37.8587 145.768C38.1598 146.044 38.522 146.182 38.9453 146.182ZM46.4453 147.119C45.8033 147.119 45.2564 146.945 44.8047 146.595C44.353 146.243 44.0078 145.733 43.7692 145.065C43.5305 144.395 43.4112 143.585 43.4112 142.636C43.4112 141.693 43.5305 140.888 43.7692 140.22C44.0107 139.55 44.3572 139.038 44.8089 138.686C45.2635 138.331 45.8089 138.153 46.4453 138.153C47.0817 138.153 47.6257 138.331 48.0774 138.686C48.532 139.038 48.8786 139.55 49.1172 140.22C49.3587 140.888 49.4794 141.693 49.4794 142.636C49.4794 143.585 49.3601 144.395 49.1214 145.065C48.8828 145.733 48.5376 146.243 48.0859 146.595C47.6342 146.945 47.0874 147.119 46.4453 147.119ZM46.4453 146.182C47.0817 146.182 47.576 145.875 47.9283 145.261C48.2805 144.648 48.4567 143.773 48.4567 142.636C48.4567 141.881 48.3757 141.237 48.2138 140.706C48.0547 140.175 47.8246 139.77 47.5234 139.491C47.2251 139.213 46.8658 139.074 46.4453 139.074C45.8146 139.074 45.3217 139.385 44.9666 140.007C44.6115 140.626 44.4339 141.503 44.4339 142.636C44.4339 143.392 44.5135 144.034 44.6726 144.562C44.8317 145.091 45.0604 145.493 45.3587 145.768C45.6598 146.044 46.022 146.182 46.4453 146.182ZM60.3544 138.273H61.4112V144.051C61.4112 144.648 61.2706 145.18 60.9893 145.649C60.7109 146.115 60.3175 146.483 59.8089 146.753C59.3004 147.02 58.7038 147.153 58.0192 147.153C57.3345 147.153 56.7379 147.02 56.2294 146.753C55.7209 146.483 55.326 146.115 55.0447 145.649C54.7663 145.18 54.6271 144.648 54.6271 144.051V138.273H55.6839V143.966C55.6839 144.392 55.7777 144.771 55.9652 145.104C56.1527 145.433 56.4197 145.693 56.7663 145.884C57.1158 146.071 57.5334 146.165 58.0192 146.165C58.505 146.165 58.9226 146.071 59.272 145.884C59.6214 145.693 59.8885 145.433 60.0732 145.104C60.2607 144.771 60.3544 144.392 60.3544 143.966V138.273ZM68.2944 140.455C68.2433 140.023 68.0359 139.688 67.6722 139.449C67.3086 139.21 66.8626 139.091 66.3342 139.091C65.9478 139.091 65.6097 139.153 65.32 139.278C65.033 139.403 64.8086 139.575 64.6467 139.794C64.4876 140.013 64.408 140.261 64.408 140.54C64.408 140.773 64.4634 140.973 64.5742 141.141C64.6879 141.305 64.8327 141.443 65.0089 141.554C65.185 141.662 65.3697 141.751 65.5629 141.822C65.756 141.891 65.9336 141.946 66.0955 141.989L66.9819 142.227C67.2092 142.287 67.462 142.369 67.7404 142.474C68.0217 142.58 68.2901 142.723 68.5458 142.905C68.8043 143.084 69.0174 143.314 69.185 143.595C69.3526 143.876 69.4364 144.222 69.4364 144.631C69.4364 145.102 69.3129 145.528 69.0657 145.909C68.8214 146.29 68.4634 146.592 67.9918 146.817C67.5231 147.041 66.9535 147.153 66.283 147.153C65.658 147.153 65.1168 147.053 64.6594 146.851C64.2049 146.649 63.8469 146.368 63.5856 146.007C63.3271 145.646 63.1808 145.227 63.1467 144.75H64.2376C64.266 145.08 64.3768 145.352 64.57 145.568C64.766 145.781 65.0131 145.94 65.3114 146.045C65.6126 146.148 65.9364 146.199 66.283 146.199C66.6864 146.199 67.0487 146.134 67.3697 146.003C67.6907 145.869 67.945 145.685 68.1325 145.449C68.32 145.21 68.4137 144.932 68.4137 144.614C68.4137 144.324 68.3327 144.088 68.1708 143.906C68.0089 143.724 67.7958 143.577 67.5316 143.463C67.2674 143.349 66.9819 143.25 66.6751 143.165L65.6012 142.858C64.9194 142.662 64.3796 142.382 63.9819 142.018C63.5842 141.655 63.3853 141.179 63.3853 140.591C63.3853 140.102 63.5174 139.676 63.7816 139.312C64.0487 138.946 64.4066 138.662 64.8555 138.46C65.3072 138.256 65.8114 138.153 66.3683 138.153C66.9308 138.153 67.4308 138.254 67.8683 138.456C68.3058 138.655 68.6523 138.928 68.908 139.274C69.1665 139.621 69.3029 140.014 69.3171 140.455H68.2944ZM73.8672 147H71.174V138.273H73.9865C74.8331 138.273 75.5575 138.447 76.1598 138.797C76.7621 139.143 77.2237 139.642 77.5447 140.293C77.8658 140.94 78.0263 141.716 78.0263 142.619C78.0263 143.528 77.8643 144.311 77.5405 144.967C77.2166 145.621 76.745 146.124 76.1257 146.476C75.5064 146.825 74.7536 147 73.8672 147ZM72.2308 146.062H73.799C74.5206 146.062 75.1186 145.923 75.593 145.645C76.0675 145.366 76.4212 144.97 76.6541 144.456C76.8871 143.942 77.0036 143.33 77.0036 142.619C77.0036 141.915 76.8885 141.308 76.6584 140.8C76.4283 140.288 76.0845 139.896 75.6271 139.624C75.1697 139.348 74.6001 139.21 73.9183 139.21H72.2308V146.062Z" fill="#939699"/>
<path d="M29.0568 113.21V106.648H30.1705V113.21H29.0568ZM26.3324 110.486V109.372H32.8949V110.486H26.3324ZM38.6035 115.139C37.8545 115.139 37.2164 114.935 36.6895 114.528C36.1625 114.117 35.7598 113.522 35.4814 112.743C35.2029 111.961 35.0637 111.016 35.0637 109.909C35.0637 108.809 35.2029 107.869 35.4814 107.09C35.7631 106.308 36.1674 105.711 36.6944 105.3C37.2247 104.886 37.8611 104.679 38.6035 104.679C39.3459 104.679 39.9806 104.886 40.5076 105.3C41.0379 105.711 41.4423 106.308 41.7207 107.09C42.0024 107.869 42.1433 108.809 42.1433 109.909C42.1433 111.016 42.0041 111.961 41.7257 112.743C41.4473 113.522 41.0446 114.117 40.5176 114.528C39.9906 114.935 39.3526 115.139 38.6035 115.139ZM38.6035 114.045C39.3459 114.045 39.9226 113.687 40.3336 112.972C40.7446 112.256 40.9501 111.235 40.9501 109.909C40.9501 109.027 40.8556 108.277 40.6667 107.657C40.4811 107.037 40.2127 106.565 39.8613 106.24C39.5133 105.915 39.094 105.753 38.6035 105.753C37.8677 105.753 37.2927 106.116 36.8784 106.842C36.4641 107.564 36.2569 108.587 36.2569 109.909C36.2569 110.791 36.3497 111.54 36.5353 112.156C36.7209 112.773 36.9877 113.242 37.3358 113.563C37.6871 113.885 38.1097 114.045 38.6035 114.045ZM44.552 115.08C44.3068 115.08 44.0963 114.992 43.9206 114.816C43.745 114.64 43.6571 114.43 43.6571 114.185C43.6571 113.939 43.745 113.729 43.9206 113.553C44.0963 113.378 44.3068 113.29 44.552 113.29C44.7973 113.29 45.0078 113.378 45.1834 113.553C45.3591 113.729 45.4469 113.939 45.4469 114.185C45.4469 114.347 45.4055 114.496 45.3226 114.632C45.2431 114.768 45.1354 114.877 44.9995 114.96C44.8669 115.04 44.7177 115.08 44.552 115.08ZM50.498 115.139C49.749 115.139 49.111 114.935 48.584 114.528C48.057 114.117 47.6543 113.522 47.3759 112.743C47.0975 111.961 46.9583 111.016 46.9583 109.909C46.9583 108.809 47.0975 107.869 47.3759 107.09C47.6576 106.308 48.062 105.711 48.589 105.3C49.1193 104.886 49.7556 104.679 50.498 104.679C51.2405 104.679 51.8752 104.886 52.4022 105.3C52.9325 105.711 53.3368 106.308 53.6152 107.09C53.897 107.869 54.0378 108.809 54.0378 109.909C54.0378 111.016 53.8986 111.961 53.6202 112.743C53.3418 113.522 52.9391 114.117 52.4121 114.528C51.8851 114.935 51.2471 115.139 50.498 115.139ZM50.498 114.045C51.2405 114.045 51.8172 113.687 52.2282 112.972C52.6391 112.256 52.8446 111.235 52.8446 109.909C52.8446 109.027 52.7502 108.277 52.5613 107.657C52.3757 107.037 52.1072 106.565 51.7559 106.24C51.4078 105.915 50.9886 105.753 50.498 105.753C49.7623 105.753 49.1872 106.116 48.7729 106.842C48.3586 107.564 48.1515 108.587 48.1515 109.909C48.1515 110.791 48.2443 111.54 48.4299 112.156C48.6155 112.773 48.8823 113.242 49.2303 113.563C49.5816 113.885 50.0042 114.045 50.498 114.045ZM59.248 115.139C58.499 115.139 57.861 114.935 57.334 114.528C56.807 114.117 56.4043 113.522 56.1259 112.743C55.8475 111.961 55.7083 111.016 55.7083 109.909C55.7083 108.809 55.8475 107.869 56.1259 107.09C56.4076 106.308 56.812 105.711 57.339 105.3C57.8693 104.886 58.5056 104.679 59.248 104.679C59.9905 104.679 60.6252 104.886 61.1522 105.3C61.6825 105.711 62.0868 106.308 62.3652 107.09C62.647 107.869 62.7878 108.809 62.7878 109.909C62.7878 111.016 62.6486 111.961 62.3702 112.743C62.0918 113.522 61.6891 114.117 61.1621 114.528C60.6351 114.935 59.9971 115.139 59.248 115.139ZM59.248 114.045C59.9905 114.045 60.5672 113.687 60.9782 112.972C61.3891 112.256 61.5946 111.235 61.5946 109.909C61.5946 109.027 61.5002 108.277 61.3113 107.657C61.1257 107.037 60.8572 106.565 60.5059 106.24C60.1578 105.915 59.7386 105.753 59.248 105.753C58.5123 105.753 57.9372 106.116 57.5229 106.842C57.1086 107.564 56.9015 108.587 56.9015 109.909C56.9015 110.791 56.9943 111.54 57.1799 112.156C57.3655 112.773 57.6323 113.242 57.9803 113.563C58.3316 113.885 58.7542 114.045 59.248 114.045ZM68.2566 104.818V115H67.0236V106.111H66.964L64.4782 107.761V106.509L67.0236 104.818H68.2566ZM74.3667 115.139C73.7833 115.139 73.258 115.023 72.7907 114.791C72.3233 114.559 71.9488 114.241 71.6671 113.837C71.3854 113.432 71.2312 112.972 71.2047 112.455H72.3979C72.4443 112.915 72.6531 113.296 73.0243 113.598C73.3989 113.896 73.8463 114.045 74.3667 114.045C74.7843 114.045 75.1555 113.948 75.4803 113.752C75.8084 113.557 76.0653 113.288 76.2509 112.947C76.4398 112.602 76.5343 112.213 76.5343 111.778C76.5343 111.334 76.4365 110.938 76.2409 110.59C76.0487 110.239 75.7836 109.962 75.4455 109.76C75.1074 109.558 74.7213 109.455 74.2871 109.452C73.9756 109.448 73.6557 109.496 73.3276 109.596C72.9995 109.692 72.7293 109.816 72.5172 109.969L71.3638 109.83L71.9803 104.818H77.2701V105.912H73.0144L72.6564 108.915H72.7161C72.9249 108.749 73.1867 108.612 73.5016 108.502C73.8165 108.393 74.1446 108.338 74.486 108.338C75.1091 108.338 75.6642 108.487 76.1515 108.786C76.642 109.08 77.0265 109.485 77.3049 109.999C77.5866 110.512 77.7275 111.099 77.7275 111.759C77.7275 112.408 77.5816 112.988 77.29 113.499C77.0016 114.006 76.6039 114.407 76.0968 114.702C75.5897 114.993 75.013 115.139 74.3667 115.139ZM84.0774 109.909C84.0774 108.656 84.2398 107.504 84.5646 106.454C84.8928 105.4 85.3601 104.43 85.9666 103.545H87.0007C86.7621 103.874 86.5384 104.278 86.3295 104.759C86.1241 105.236 85.9434 105.761 85.7876 106.335C85.6319 106.905 85.5092 107.495 85.4197 108.104C85.3336 108.714 85.2905 109.316 85.2905 109.909C85.2905 110.698 85.3667 111.498 85.5192 112.31C85.6716 113.122 85.8771 113.876 86.1357 114.572C86.3942 115.268 86.6825 115.835 87.0007 116.273H85.9666C85.3601 115.388 84.8928 114.42 84.5646 113.369C84.2398 112.315 84.0774 111.162 84.0774 109.909ZM91.715 113.21V106.648H92.8287V113.21H91.715ZM88.9906 110.486V109.372H95.5531V110.486H88.9906ZM101.262 115.139C100.513 115.139 99.8746 114.935 99.3477 114.528C98.8207 114.117 98.418 113.522 98.1396 112.743C97.8612 111.961 97.7219 111.016 97.7219 109.909C97.7219 108.809 97.8612 107.869 98.1396 107.09C98.4213 106.308 98.8256 105.711 99.3526 105.3C99.8829 104.886 100.519 104.679 101.262 104.679C102.004 104.679 102.639 104.886 103.166 105.3C103.696 105.711 104.1 106.308 104.379 107.09C104.661 107.869 104.801 108.809 104.801 109.909C104.801 111.016 104.662 111.961 104.384 112.743C104.105 113.522 103.703 114.117 103.176 114.528C102.649 114.935 102.011 115.139 101.262 115.139ZM101.262 114.045C102.004 114.045 102.581 113.687 102.992 112.972C103.403 112.256 103.608 111.235 103.608 109.909C103.608 109.027 103.514 108.277 103.325 107.657C103.139 107.037 102.871 106.565 102.52 106.24C102.172 105.915 101.752 105.753 101.262 105.753C100.526 105.753 99.9509 106.116 99.5366 106.842C99.1223 107.564 98.9151 108.587 98.9151 109.909C98.9151 110.791 99.0079 111.54 99.1935 112.156C99.3791 112.773 99.646 113.242 99.994 113.563C100.345 113.885 100.768 114.045 101.262 114.045ZM107.21 115.08C106.965 115.08 106.754 114.992 106.579 114.816C106.403 114.64 106.315 114.43 106.315 114.185C106.315 113.939 106.403 113.729 106.579 113.553C106.754 113.378 106.965 113.29 107.21 113.29C107.455 113.29 107.666 113.378 107.842 113.553C108.017 113.729 108.105 113.939 108.105 114.185C108.105 114.347 108.064 114.496 107.981 114.632C107.901 114.768 107.794 114.877 107.658 114.96C107.525 115.04 107.376 115.08 107.21 115.08ZM112.553 104.818V115H111.32V106.111H111.261L108.775 107.761V106.509L111.32 104.818H112.553ZM118.922 115.139C118.266 115.139 117.681 115.027 117.167 114.801C116.657 114.576 116.251 114.263 115.949 113.862C115.651 113.457 115.488 112.988 115.462 112.455H116.715C116.741 112.783 116.854 113.066 117.053 113.305C117.252 113.54 117.512 113.722 117.833 113.852C118.155 113.981 118.511 114.045 118.902 114.045C119.34 114.045 119.727 113.969 120.066 113.817C120.404 113.664 120.669 113.452 120.861 113.18C121.053 112.909 121.149 112.594 121.149 112.236C121.149 111.861 121.057 111.531 120.871 111.246C120.685 110.958 120.414 110.733 120.056 110.57C119.698 110.408 119.26 110.327 118.743 110.327H117.928V109.233H118.743C119.147 109.233 119.502 109.16 119.807 109.014C120.115 108.868 120.356 108.663 120.528 108.398C120.704 108.133 120.791 107.821 120.791 107.463C120.791 107.118 120.715 106.818 120.563 106.563C120.41 106.308 120.195 106.109 119.916 105.967C119.641 105.824 119.316 105.753 118.942 105.753C118.591 105.753 118.259 105.817 117.948 105.947C117.639 106.073 117.387 106.257 117.192 106.499C116.996 106.737 116.89 107.026 116.874 107.364H115.681C115.7 106.83 115.861 106.363 116.163 105.962C116.464 105.557 116.859 105.242 117.346 105.017C117.837 104.792 118.375 104.679 118.962 104.679C119.592 104.679 120.132 104.807 120.583 105.062C121.033 105.314 121.38 105.647 121.622 106.061C121.864 106.475 121.985 106.923 121.985 107.403C121.985 107.977 121.834 108.466 121.532 108.87C121.234 109.274 120.828 109.554 120.314 109.71V109.79C120.957 109.896 121.459 110.169 121.82 110.61C122.182 111.048 122.362 111.589 122.362 112.236C122.362 112.789 122.212 113.286 121.91 113.727C121.612 114.165 121.204 114.509 120.687 114.761C120.17 115.013 119.582 115.139 118.922 115.139ZM129.586 113.091V112.554C129.586 112.183 129.662 111.843 129.815 111.535C129.971 111.223 130.196 110.975 130.491 110.789C130.789 110.6 131.151 110.506 131.575 110.506C132.006 110.506 132.367 110.6 132.659 110.789C132.95 110.975 133.171 111.223 133.32 111.535C133.469 111.843 133.544 112.183 133.544 112.554V113.091C133.544 113.462 133.467 113.804 133.315 114.115C133.166 114.423 132.944 114.672 132.649 114.861C132.357 115.046 131.999 115.139 131.575 115.139C131.144 115.139 130.781 115.046 130.486 114.861C130.191 114.672 129.967 114.423 129.815 114.115C129.662 113.804 129.586 113.462 129.586 113.091ZM130.6 112.554V113.091C130.6 113.399 130.673 113.676 130.819 113.921C130.965 114.163 131.217 114.284 131.575 114.284C131.923 114.284 132.168 114.163 132.311 113.921C132.456 113.676 132.529 113.399 132.529 113.091V112.554C132.529 112.246 132.46 111.971 132.32 111.729C132.181 111.483 131.933 111.361 131.575 111.361C131.227 111.361 130.977 111.483 130.824 111.729C130.675 111.971 130.6 112.246 130.6 112.554ZM124.515 107.264V106.727C124.515 106.356 124.591 106.016 124.744 105.708C124.9 105.397 125.125 105.148 125.42 104.962C125.718 104.773 126.079 104.679 126.504 104.679C126.935 104.679 127.296 104.773 127.588 104.962C127.879 105.148 128.1 105.397 128.249 105.708C128.398 106.016 128.472 106.356 128.472 106.727V107.264C128.472 107.635 128.396 107.977 128.244 108.288C128.095 108.597 127.873 108.845 127.578 109.034C127.286 109.22 126.928 109.312 126.504 109.312C126.073 109.312 125.71 109.22 125.415 109.034C125.12 108.845 124.896 108.597 124.744 108.288C124.591 107.977 124.515 107.635 124.515 107.264ZM125.529 106.727V107.264C125.529 107.572 125.602 107.849 125.748 108.094C125.894 108.336 126.146 108.457 126.504 108.457C126.852 108.457 127.097 108.336 127.24 108.094C127.385 107.849 127.458 107.572 127.458 107.264V106.727C127.458 106.419 127.389 106.144 127.249 105.902C127.11 105.657 126.862 105.534 126.504 105.534C126.156 105.534 125.905 105.657 125.753 105.902C125.604 106.144 125.529 106.419 125.529 106.727ZM124.893 115L131.893 104.818H133.026L126.026 115H124.893ZM138.296 109.909C138.296 111.162 138.132 112.315 137.804 113.369C137.479 114.42 137.014 115.388 136.407 116.273H135.373C135.612 115.945 135.834 115.54 136.039 115.06C136.248 114.582 136.43 114.059 136.586 113.489C136.742 112.915 136.863 112.324 136.949 111.714C137.039 111.101 137.083 110.499 137.083 109.909C137.083 109.12 137.007 108.32 136.855 107.508C136.702 106.696 136.497 105.942 136.238 105.246C135.98 104.55 135.691 103.983 135.373 103.545H136.407C137.014 104.43 137.479 105.4 137.804 106.454C138.132 107.504 138.296 108.656 138.296 109.909Z" fill="#4B5157"/>
<path fill-rule="evenodd" clip-rule="evenodd" d="M125.949 85H118.051C117.747 85 117.5 84.7447 117.5 84.4297C117.5 84.3203 117.53 84.2133 117.587 84.1213L121.537 77.762C121.701 77.497 122.042 77.4203 122.298 77.5906C122.364 77.6348 122.421 77.6933 122.463 77.762L126.412 84.1213C126.577 84.3862 126.503 84.7391 126.247 84.9094C126.158 84.9686 126.055 85 125.949 85Z" fill="#262D33"/>
<path d="M34.929 71.1818V93H32.2869V73.9517H32.1591L26.8324 77.4886V74.804L32.2869 71.1818H34.929ZM41.7898 93.1705C41.2642 93.1705 40.8132 92.9822 40.4368 92.6058C40.0604 92.2294 39.8722 91.7784 39.8722 91.2528C39.8722 90.7273 40.0604 90.2763 40.4368 89.8999C40.8132 89.5234 41.2642 89.3352 41.7898 89.3352C42.3153 89.3352 42.7663 89.5234 43.1428 89.8999C43.5192 90.2763 43.7074 90.7273 43.7074 91.2528C43.7074 91.6009 43.6186 91.9205 43.4411 92.2116C43.2706 92.5028 43.0398 92.7372 42.7486 92.9148C42.4645 93.0852 42.1449 93.1705 41.7898 93.1705ZM53.2395 71.1818V93H50.5975V73.9517H50.4696L45.1429 77.4886V74.804L50.5975 71.1818H53.2395ZM60.1962 93L69.9547 73.696V73.5256H58.7047V71.1818H72.682V73.6534L62.9661 93H60.1962ZM83.4286 93.2983C82.5337 93.2841 81.6388 93.1136 80.744 92.7869C79.8491 92.4602 79.0323 91.9098 78.2937 91.1357C77.555 90.3544 76.962 89.2997 76.5146 87.9716C76.0671 86.6364 75.8434 84.9602 75.8434 82.9432C75.8434 81.0114 76.0245 79.2997 76.3867 77.8082C76.7489 76.3097 77.2745 75.049 77.9634 74.0263C78.6523 72.9964 79.4833 72.2152 80.4563 71.6825C81.4364 71.1499 82.5408 70.8835 83.7695 70.8835C84.9911 70.8835 86.0778 71.1286 87.0295 71.6186C87.9883 72.1016 88.7695 72.7763 89.3732 73.6428C89.9769 74.5092 90.3675 75.5071 90.5451 76.6364H87.9457C87.7042 75.6562 87.2354 74.843 86.5394 74.1967C85.8434 73.5504 84.9201 73.2273 83.7695 73.2273C82.0792 73.2273 80.7475 73.9624 79.7745 75.4325C78.8086 76.9027 78.3221 78.9659 78.315 81.6222H78.4854C78.8832 81.0185 79.3555 80.5036 79.9023 80.0774C80.4563 79.6442 81.0671 79.3104 81.7347 79.076C82.4023 78.8416 83.109 78.7244 83.8548 78.7244C85.1048 78.7244 86.2482 79.0369 87.2852 79.6619C88.3221 80.2798 89.1531 81.1357 89.7781 82.2294C90.4031 83.3161 90.7156 84.5625 90.7156 85.9688C90.7156 87.3182 90.4137 88.554 89.81 89.6761C89.2063 90.7912 88.3576 91.679 87.2638 92.3395C86.1772 92.9929 84.8988 93.3125 83.4286 93.2983ZM83.4286 90.9545C84.3235 90.9545 85.1261 90.7308 85.8363 90.2834C86.5536 89.8359 87.1183 89.2358 87.5302 88.483C87.9492 87.7301 88.1587 86.892 88.1587 85.9688C88.1587 85.0668 87.9563 84.2464 87.5515 83.5078C87.1538 82.7621 86.6033 82.169 85.9002 81.7287C85.2042 81.2884 84.4087 81.0682 83.5138 81.0682C82.8391 81.0682 82.2106 81.2031 81.6282 81.473C81.0458 81.7358 80.5344 82.098 80.0941 82.5597C79.6609 83.0213 79.32 83.5504 79.0714 84.147C78.8228 84.7365 78.6985 85.358 78.6985 86.0114C78.6985 86.8778 78.9009 87.6875 79.3058 88.4403C79.7177 89.1932 80.2788 89.8004 80.989 90.2621C81.7063 90.7237 82.5195 90.9545 83.4286 90.9545ZM102.277 93.2983C100.871 93.2983 99.6174 93.0568 98.5165 92.5739C97.4228 92.0909 96.5527 91.4197 95.9064 90.5604C95.2672 89.6939 94.9192 88.6889 94.8624 87.5455H97.5471C97.6039 88.2486 97.8453 88.8558 98.2715 89.3672C98.6976 89.8714 99.2551 90.2621 99.9441 90.5391C100.633 90.8161 101.396 90.9545 102.235 90.9545C103.172 90.9545 104.003 90.7912 104.727 90.4645C105.452 90.1378 106.02 89.6832 106.432 89.1009C106.844 88.5185 107.05 87.8438 107.05 87.0767C107.05 86.2741 106.851 85.5675 106.453 84.9567C106.056 84.3388 105.473 83.8558 104.706 83.5078C103.939 83.1598 103.002 82.9858 101.894 82.9858H100.146V80.642H101.894C102.76 80.642 103.52 80.4858 104.173 80.1733C104.834 79.8608 105.349 79.4205 105.718 78.8523C106.095 78.2841 106.283 77.6165 106.283 76.8494C106.283 76.1108 106.119 75.468 105.793 74.9212C105.466 74.3743 105.004 73.9482 104.408 73.6428C103.818 73.3374 103.122 73.1847 102.32 73.1847C101.567 73.1847 100.857 73.3232 100.189 73.6001C99.5286 73.87 98.9888 74.2642 98.5698 74.7827C98.1507 75.294 97.9235 75.9119 97.888 76.6364H95.3311C95.3738 75.4929 95.7182 74.4915 96.3645 73.6321C97.0108 72.7656 97.856 72.0909 98.9 71.608C99.9512 71.125 101.105 70.8835 102.362 70.8835C103.712 70.8835 104.869 71.157 105.835 71.7038C106.801 72.2436 107.544 72.9574 108.062 73.8452C108.58 74.733 108.84 75.6918 108.84 76.7216C108.84 77.9503 108.517 78.9979 107.87 79.8643C107.231 80.7308 106.361 81.331 105.26 81.6648V81.8352C106.638 82.0625 107.714 82.6484 108.488 83.593C109.262 84.5305 109.649 85.6918 109.649 87.0767C109.649 88.2628 109.326 89.3281 108.68 90.2727C108.041 91.2102 107.167 91.9489 106.059 92.4886C104.951 93.0284 103.691 93.2983 102.277 93.2983Z" fill="#262D33"/>
<path d="M26.0568 52V43.2727H31.3239V44.2102H27.1136V47.1591H31.0511V48.0966H27.1136V51.0625H31.392V52H26.0568ZM37.2173 49.3239V45.4545H38.223V52H37.2173V50.892H37.1491C36.9957 51.2244 36.7571 51.5071 36.4332 51.7401C36.1094 51.9702 35.7003 52.0852 35.206 52.0852C34.7969 52.0852 34.4332 51.9957 34.1151 51.8168C33.7969 51.6349 33.5469 51.3622 33.3651 50.9986C33.1832 50.6321 33.0923 50.1705 33.0923 49.6136V45.4545H34.098V49.5455C34.098 50.0227 34.2315 50.4034 34.4986 50.6875C34.7685 50.9716 35.1122 51.1136 35.5298 51.1136C35.7798 51.1136 36.0341 51.0497 36.2926 50.9219C36.554 50.794 36.7727 50.598 36.9489 50.3338C37.1278 50.0696 37.2173 49.733 37.2173 49.3239ZM40.065 52V45.4545H41.0366V46.4432H41.1048C41.2241 46.1193 41.44 45.8565 41.7525 45.6548C42.065 45.4531 42.4173 45.3523 42.8093 45.3523C42.8832 45.3523 42.9755 45.3537 43.0863 45.3565C43.1971 45.3594 43.2809 45.3636 43.3377 45.3693V46.392C43.3036 46.3835 43.2255 46.3707 43.1033 46.3537C42.984 46.3338 42.8576 46.3239 42.7241 46.3239C42.4059 46.3239 42.1218 46.3906 41.8718 46.5241C41.6246 46.6548 41.4286 46.8366 41.2837 47.0696C41.1417 47.2997 41.0707 47.5625 41.0707 47.858V52H40.065ZM46.9897 52.1364C46.3988 52.1364 45.8803 51.9957 45.4343 51.7145C44.9911 51.4332 44.6445 51.0398 44.3945 50.5341C44.1474 50.0284 44.0238 49.4375 44.0238 48.7614C44.0238 48.0795 44.1474 47.4844 44.3945 46.9759C44.6445 46.4673 44.9911 46.0724 45.4343 45.7912C45.8803 45.5099 46.3988 45.3693 46.9897 45.3693C47.5806 45.3693 48.0977 45.5099 48.5408 45.7912C48.9869 46.0724 49.3335 46.4673 49.5806 46.9759C49.8306 47.4844 49.9556 48.0795 49.9556 48.7614C49.9556 49.4375 49.8306 50.0284 49.5806 50.5341C49.3335 51.0398 48.9869 51.4332 48.5408 51.7145C48.0977 51.9957 47.5806 52.1364 46.9897 52.1364ZM46.9897 51.233C47.4386 51.233 47.8079 51.1179 48.0977 50.8878C48.3874 50.6577 48.6019 50.3551 48.7411 49.9801C48.8803 49.6051 48.9499 49.1989 48.9499 48.7614C48.9499 48.3239 48.8803 47.9162 48.7411 47.5384C48.6019 47.1605 48.3874 46.8551 48.0977 46.6222C47.8079 46.3892 47.4386 46.2727 46.9897 46.2727C46.5408 46.2727 46.1715 46.3892 45.8817 46.6222C45.592 46.8551 45.3775 47.1605 45.2383 47.5384C45.0991 47.9162 45.0295 48.3239 45.0295 48.7614C45.0295 49.1989 45.0991 49.6051 45.2383 49.9801C45.3775 50.3551 45.592 50.6577 45.8817 50.8878C46.1715 51.1179 46.5408 51.233 46.9897 51.233ZM57.7124 45.4545V46.3068H54.3203V45.4545H57.7124ZM55.3089 43.8864H56.3146V50.125C56.3146 50.4091 56.3558 50.6222 56.4382 50.7642C56.5234 50.9034 56.6314 50.9972 56.7621 51.0455C56.8956 51.0909 57.0362 51.1136 57.1839 51.1136C57.2947 51.1136 57.3857 51.108 57.4567 51.0966C57.5277 51.0824 57.5845 51.071 57.6271 51.0625L57.8317 51.9659C57.7635 51.9915 57.6683 52.017 57.5462 52.0426C57.424 52.071 57.2692 52.0852 57.0817 52.0852C56.7976 52.0852 56.5192 52.0241 56.2464 51.902C55.9766 51.7798 55.7521 51.5938 55.5732 51.3438C55.397 51.0938 55.3089 50.7784 55.3089 50.3977V43.8864ZM61.8139 52.1364C61.223 52.1364 60.7045 51.9957 60.2585 51.7145C59.8153 51.4332 59.4688 51.0398 59.2188 50.5341C58.9716 50.0284 58.848 49.4375 58.848 48.7614C58.848 48.0795 58.9716 47.4844 59.2188 46.9759C59.4688 46.4673 59.8153 46.0724 60.2585 45.7912C60.7045 45.5099 61.223 45.3693 61.8139 45.3693C62.4048 45.3693 62.9219 45.5099 63.3651 45.7912C63.8111 46.0724 64.1577 46.4673 64.4048 46.9759C64.6548 47.4844 64.7798 48.0795 64.7798 48.7614C64.7798 49.4375 64.6548 50.0284 64.4048 50.5341C64.1577 51.0398 63.8111 51.4332 63.3651 51.7145C62.9219 51.9957 62.4048 52.1364 61.8139 52.1364ZM61.8139 51.233C62.2628 51.233 62.6321 51.1179 62.9219 50.8878C63.2116 50.6577 63.4261 50.3551 63.5653 49.9801C63.7045 49.6051 63.7741 49.1989 63.7741 48.7614C63.7741 48.3239 63.7045 47.9162 63.5653 47.5384C63.4261 47.1605 63.2116 46.8551 62.9219 46.6222C62.6321 46.3892 62.2628 46.2727 61.8139 46.2727C61.3651 46.2727 60.9957 46.3892 60.706 46.6222C60.4162 46.8551 60.2017 47.1605 60.0625 47.5384C59.9233 47.9162 59.8537 48.3239 59.8537 48.7614C59.8537 49.1989 59.9233 49.6051 60.0625 49.9801C60.2017 50.3551 60.4162 50.6577 60.706 50.8878C60.9957 51.1179 61.3651 51.233 61.8139 51.233ZM75.5536 43.2727H76.6104V49.0511C76.6104 49.6477 76.4698 50.1804 76.1886 50.6491C75.9102 51.1151 75.5167 51.483 75.0082 51.7528C74.4996 52.0199 73.9031 52.1534 73.2184 52.1534C72.5337 52.1534 71.9371 52.0199 71.4286 51.7528C70.9201 51.483 70.5252 51.1151 70.244 50.6491C69.9656 50.1804 69.8263 49.6477 69.8263 49.0511V43.2727H70.8832V48.9659C70.8832 49.392 70.9769 49.7713 71.1644 50.1037C71.3519 50.4332 71.619 50.6932 71.9656 50.8835C72.315 51.071 72.7326 51.1648 73.2184 51.1648C73.7042 51.1648 74.1218 51.071 74.4712 50.8835C74.8207 50.6932 75.0877 50.4332 75.2724 50.1037C75.4599 49.7713 75.5536 49.392 75.5536 48.9659V43.2727ZM83.4936 45.4545C83.4425 45.0227 83.2351 44.6875 82.8714 44.4489C82.5078 44.2102 82.0618 44.0909 81.5334 44.0909C81.147 44.0909 80.8089 44.1534 80.5192 44.2784C80.2322 44.4034 80.0078 44.5753 79.8459 44.794C79.6868 45.0128 79.6072 45.2614 79.6072 45.5398C79.6072 45.7727 79.6626 45.973 79.7734 46.1406C79.8871 46.3054 80.032 46.4432 80.2081 46.554C80.3842 46.6619 80.5689 46.7514 80.7621 46.8224C80.9553 46.8906 81.1328 46.946 81.2947 46.9886L82.1811 47.2273C82.4084 47.2869 82.6612 47.3693 82.9396 47.4744C83.2209 47.5795 83.4893 47.723 83.745 47.9048C84.0036 48.0838 84.2166 48.3139 84.3842 48.5952C84.5518 48.8764 84.6357 49.2216 84.6357 49.6307C84.6357 50.1023 84.5121 50.5284 84.2649 50.9091C84.0206 51.2898 83.6626 51.5923 83.1911 51.8168C82.7223 52.0412 82.1527 52.1534 81.4822 52.1534C80.8572 52.1534 80.3161 52.0526 79.8587 51.8509C79.4041 51.6491 79.0462 51.3679 78.7848 51.0071C78.5263 50.6463 78.38 50.2273 78.3459 49.75H79.4368C79.4652 50.0795 79.576 50.3523 79.7692 50.5682C79.9652 50.7812 80.2124 50.9403 80.5107 51.0455C80.8118 51.1477 81.1357 51.1989 81.4822 51.1989C81.8857 51.1989 82.2479 51.1335 82.5689 51.0028C82.8899 50.8693 83.1442 50.6847 83.3317 50.4489C83.5192 50.2102 83.6129 49.9318 83.6129 49.6136C83.6129 49.3239 83.532 49.0881 83.37 48.9062C83.2081 48.7244 82.995 48.5767 82.7308 48.4631C82.4666 48.3494 82.1811 48.25 81.8743 48.1648L80.8004 47.858C80.1186 47.6619 79.5788 47.3821 79.1811 47.0185C78.7834 46.6548 78.5845 46.179 78.5845 45.5909C78.5845 45.1023 78.7166 44.6761 78.9808 44.3125C79.2479 43.946 79.6058 43.6619 80.0547 43.4602C80.5064 43.2557 81.0107 43.1534 81.5675 43.1534C82.13 43.1534 82.63 43.2543 83.0675 43.456C83.505 43.6548 83.8516 43.9276 84.1072 44.2741C84.3658 44.6207 84.5021 45.0142 84.5163 45.4545H83.4936ZM92.4414 52H89.7482V43.2727H92.5607C93.4073 43.2727 94.1317 43.4474 94.734 43.7969C95.3363 44.1435 95.7979 44.642 96.119 45.2926C96.44 45.9403 96.6005 46.7159 96.6005 47.6193C96.6005 48.5284 96.4386 49.3111 96.1147 49.9673C95.7908 50.6207 95.3192 51.1236 94.6999 51.4759C94.0806 51.8253 93.3278 52 92.4414 52ZM90.805 51.0625H92.3732C93.0948 51.0625 93.6928 50.9233 94.1673 50.6449C94.6417 50.3665 94.9954 49.9702 95.2283 49.456C95.4613 48.9418 95.5778 48.3295 95.5778 47.6193C95.5778 46.9148 95.4627 46.3082 95.2326 45.7997C95.0025 45.2884 94.6587 44.8963 94.2013 44.6236C93.744 44.348 93.1744 44.2102 92.4925 44.2102H90.805V51.0625ZM100.896 52.1364C100.305 52.1364 99.7866 51.9957 99.3406 51.7145C98.8974 51.4332 98.5508 51.0398 98.3008 50.5341C98.0536 50.0284 97.93 49.4375 97.93 48.7614C97.93 48.0795 98.0536 47.4844 98.3008 46.9759C98.5508 46.4673 98.8974 46.0724 99.3406 45.7912C99.7866 45.5099 100.305 45.3693 100.896 45.3693C101.487 45.3693 102.004 45.5099 102.447 45.7912C102.893 46.0724 103.24 46.4673 103.487 46.9759C103.737 47.4844 103.862 48.0795 103.862 48.7614C103.862 49.4375 103.737 50.0284 103.487 50.5341C103.24 51.0398 102.893 51.4332 102.447 51.7145C102.004 51.9957 101.487 52.1364 100.896 52.1364ZM100.896 51.233C101.345 51.233 101.714 51.1179 102.004 50.8878C102.294 50.6577 102.508 50.3551 102.647 49.9801C102.787 49.6051 102.856 49.1989 102.856 48.7614C102.856 48.3239 102.787 47.9162 102.647 47.5384C102.508 47.1605 102.294 46.8551 102.004 46.6222C101.714 46.3892 101.345 46.2727 100.896 46.2727C100.447 46.2727 100.078 46.3892 99.788 46.6222C99.4982 46.8551 99.2837 47.1605 99.1445 47.5384C99.0053 47.9162 98.9357 48.3239 98.9357 48.7614C98.9357 49.1989 99.0053 49.6051 99.1445 49.9801C99.2837 50.3551 99.4982 50.6577 99.788 50.8878C100.078 51.1179 100.447 51.233 100.896 51.233ZM106.403 43.2727V52H105.397V43.2727H106.403ZM109.25 43.2727V52H108.245V43.2727H109.25ZM113.018 52.1534C112.604 52.1534 112.227 52.0753 111.889 51.919C111.551 51.7599 111.283 51.5312 111.084 51.233C110.885 50.9318 110.786 50.5682 110.786 50.142C110.786 49.767 110.859 49.4631 111.007 49.2301C111.155 48.9943 111.352 48.8097 111.599 48.6761C111.847 48.5426 112.119 48.4432 112.418 48.3778C112.719 48.3097 113.021 48.2557 113.325 48.2159C113.723 48.1648 114.045 48.1264 114.293 48.1009C114.543 48.0724 114.724 48.0256 114.838 47.9602C114.955 47.8949 115.013 47.7812 115.013 47.6193V47.5852C115.013 47.1648 114.898 46.8381 114.668 46.6051C114.44 46.3722 114.095 46.2557 113.632 46.2557C113.152 46.2557 112.776 46.3608 112.503 46.571C112.23 46.7812 112.038 47.0057 111.928 47.2443L110.973 46.9034C111.143 46.5057 111.371 46.196 111.655 45.9744C111.942 45.75 112.254 45.5937 112.592 45.5057C112.933 45.4148 113.268 45.3693 113.598 45.3693C113.808 45.3693 114.05 45.3949 114.322 45.446C114.598 45.4943 114.864 45.5952 115.119 45.7486C115.378 45.902 115.592 46.1335 115.763 46.4432C115.933 46.7528 116.018 47.1676 116.018 47.6875V52H115.013V51.1136H114.962C114.893 51.2557 114.78 51.4077 114.621 51.5696C114.462 51.7315 114.25 51.8693 113.986 51.983C113.722 52.0966 113.399 52.1534 113.018 52.1534ZM113.172 51.25C113.57 51.25 113.905 51.1719 114.178 51.0156C114.453 50.8594 114.661 50.6577 114.8 50.4105C114.942 50.1634 115.013 49.9034 115.013 49.6307V48.7102C114.97 48.7614 114.876 48.8082 114.732 48.8509C114.589 48.8906 114.425 48.9261 114.237 48.9574C114.053 48.9858 113.872 49.0114 113.696 49.0341C113.523 49.054 113.382 49.071 113.274 49.0852C113.013 49.1193 112.768 49.1747 112.541 49.2514C112.317 49.3253 112.135 49.4375 111.996 49.5881C111.859 49.7358 111.791 49.9375 111.791 50.1932C111.791 50.5426 111.92 50.8068 112.179 50.9858C112.44 51.1619 112.771 51.25 113.172 51.25ZM117.854 52V45.4545H118.826V46.4432H118.894C119.013 46.1193 119.229 45.8565 119.542 45.6548C119.854 45.4531 120.206 45.3523 120.598 45.3523C120.672 45.3523 120.765 45.3537 120.875 45.3565C120.986 45.3594 121.07 45.3636 121.127 45.3693V46.392C121.093 46.3835 121.015 46.3707 120.892 46.3537C120.773 46.3338 120.647 46.3239 120.513 46.3239C120.195 46.3239 119.911 46.3906 119.661 46.5241C119.414 46.6548 119.218 46.8366 119.073 47.0696C118.931 47.2997 118.86 47.5625 118.86 47.858V52H117.854Z" fill="#939699"/>
<path d="M26.1477 33V21.3636H33.7159V23.1307H28.2557V26.2898H33.3239V28.0568H28.2557V31.233H33.7614V33H26.1477ZM43.7017 21.3636H45.8097V28.9659C45.8097 29.7992 45.6127 30.5322 45.2188 31.1648C44.8286 31.7973 44.2794 32.2917 43.571 32.6477C42.8627 33 42.035 33.1761 41.0881 33.1761C40.1373 33.1761 39.3078 33 38.5994 32.6477C37.8911 32.2917 37.3419 31.7973 36.9517 31.1648C36.5616 30.5322 36.3665 29.7992 36.3665 28.9659V21.3636H38.4744V28.7898C38.4744 29.2746 38.5805 29.7064 38.7926 30.0852C39.0085 30.464 39.3116 30.7614 39.7017 30.9773C40.0919 31.1894 40.554 31.2955 41.0881 31.2955C41.6222 31.2955 42.0843 31.1894 42.4744 30.9773C42.8684 30.7614 43.1714 30.464 43.3835 30.0852C43.5956 29.7064 43.7017 29.2746 43.7017 28.7898V21.3636ZM48.6009 33V21.3636H52.9645C53.8584 21.3636 54.6084 21.5189 55.2145 21.8295C55.8243 22.1402 56.2846 22.5758 56.5952 23.1364C56.9096 23.6932 57.0668 24.3428 57.0668 25.0852C57.0668 25.8314 56.9077 26.4792 56.5895 27.0284C56.2751 27.5739 55.8111 27.9962 55.1974 28.2955C54.5838 28.5909 53.83 28.7386 52.9361 28.7386H49.8281V26.9886H52.652C53.1747 26.9886 53.6027 26.9167 53.9361 26.7727C54.2694 26.625 54.5156 26.411 54.6747 26.1307C54.8376 25.8466 54.919 25.4981 54.919 25.0852C54.919 24.6723 54.8376 24.3201 54.6747 24.0284C54.5118 23.733 54.2637 23.5095 53.9304 23.358C53.5971 23.2027 53.1671 23.125 52.6406 23.125H50.7088V33H48.6009ZM54.6122 27.7273L57.4929 33H55.1406L52.3111 27.7273H54.6122ZM64.1662 20.8182L60.4162 34.75H58.6151L62.3651 20.8182H64.1662ZM73.4048 21.3636H75.5128V28.9659C75.5128 29.7992 75.3158 30.5322 74.9219 31.1648C74.5317 31.7973 73.9825 32.2917 73.2741 32.6477C72.5658 33 71.7382 33.1761 70.7912 33.1761C69.8404 33.1761 69.0109 33 68.3026 32.6477C67.5942 32.2917 67.045 31.7973 66.6548 31.1648C66.2647 30.5322 66.0696 29.7992 66.0696 28.9659V21.3636H68.1776V28.7898C68.1776 29.2746 68.2836 29.7064 68.4957 30.0852C68.7116 30.464 69.0147 30.7614 69.4048 30.9773C69.795 31.1894 70.2571 31.2955 70.7912 31.2955C71.3253 31.2955 71.7874 31.1894 72.1776 30.9773C72.5715 30.7614 72.8745 30.464 73.0866 30.0852C73.2988 29.7064 73.4048 29.2746 73.4048 28.7898V21.3636ZM84.6278 24.5625C84.5748 24.0663 84.3513 23.6799 83.9574 23.4034C83.5672 23.1269 83.0597 22.9886 82.4347 22.9886C81.9953 22.9886 81.6184 23.0549 81.304 23.1875C80.9896 23.3201 80.7491 23.5 80.5824 23.7273C80.4157 23.9545 80.3305 24.214 80.3267 24.5057C80.3267 24.7481 80.3816 24.9583 80.4915 25.1364C80.6051 25.3144 80.7585 25.4659 80.9517 25.5909C81.1449 25.7121 81.3589 25.8144 81.5938 25.8977C81.8286 25.9811 82.0653 26.0511 82.304 26.108L83.3949 26.3807C83.8343 26.483 84.2566 26.6212 84.6619 26.7955C85.071 26.9697 85.4366 27.1894 85.7585 27.4545C86.0843 27.7197 86.3419 28.0398 86.5312 28.4148C86.7206 28.7898 86.8153 29.2292 86.8153 29.733C86.8153 30.4148 86.6411 31.0152 86.2926 31.5341C85.9441 32.0492 85.4403 32.4527 84.7812 32.7443C84.1259 33.0322 83.3324 33.1761 82.4006 33.1761C81.4953 33.1761 80.7093 33.036 80.0426 32.7557C79.3797 32.4754 78.8608 32.0663 78.4858 31.5284C78.1146 30.9905 77.9138 30.3352 77.8835 29.5625H79.9574C79.9877 29.9678 80.1127 30.3049 80.3324 30.5739C80.5521 30.8428 80.8381 31.0436 81.1903 31.1761C81.5464 31.3087 81.9441 31.375 82.3835 31.375C82.8419 31.375 83.2434 31.3068 83.5881 31.1705C83.9366 31.0303 84.2093 30.8371 84.4062 30.5909C84.6032 30.3409 84.7036 30.0492 84.7074 29.7159C84.7036 29.4129 84.6146 29.1629 84.4403 28.9659C84.2661 28.7652 84.0218 28.5985 83.7074 28.4659C83.3968 28.3295 83.0331 28.2083 82.6165 28.1023L81.2926 27.7614C80.3343 27.5152 79.5767 27.142 79.0199 26.642C78.4669 26.1383 78.1903 25.4697 78.1903 24.6364C78.1903 23.9508 78.3759 23.3504 78.7472 22.8352C79.1222 22.3201 79.6316 21.9205 80.2756 21.6364C80.9195 21.3485 81.6487 21.2045 82.4631 21.2045C83.2888 21.2045 84.0123 21.3485 84.6335 21.6364C85.2585 21.9205 85.7491 22.3163 86.1051 22.8239C86.4612 23.3277 86.6449 23.9072 86.6562 24.5625H84.6278ZM93.1378 33H89.1946V21.3636H93.2173C94.3726 21.3636 95.3651 21.5966 96.1946 22.0625C97.0279 22.5246 97.6681 23.1894 98.1151 24.0568C98.562 24.9242 98.7855 25.9621 98.7855 27.1705C98.7855 28.3826 98.5601 29.4242 98.1094 30.2955C97.6624 31.1667 97.0166 31.8352 96.1719 32.3011C95.331 32.767 94.3196 33 93.1378 33ZM91.3026 31.1761H93.0355C93.8461 31.1761 94.5223 31.0284 95.0639 30.733C95.6056 30.4337 96.0128 29.9886 96.2855 29.3977C96.5582 28.803 96.6946 28.0606 96.6946 27.1705C96.6946 26.2803 96.5582 25.5417 96.2855 24.9545C96.0128 24.3636 95.6094 23.9223 95.0753 23.6307C94.545 23.3352 93.8859 23.1875 93.098 23.1875H91.3026V31.1761Z" fill="#262D33"/>
</g>
</g>
<defs>
<clipPath id="clip0_0_1154">
<rect width="263" height="170" fill="white"/>
</clipPath>
</defs>
</svg>
