<svg width="263" height="170" viewBox="0 0 263 170" fill="none" xmlns="http://www.w3.org/2000/svg">
<g clip-path="url(#clip0_0_1187)">
<path fill-rule="evenodd" clip-rule="evenodd" d="M0 10C0 4.47715 4.47715 0 10 0L253 0C258.523 0 263 4.47715 263 10V160C263 165.523 258.523 170 253 170H10C4.47715 170 0 165.523 0 160L0 10Z" fill="#14827B"/>
<mask id="mask0_0_1187" style="mask-type:luminance" maskUnits="userSpaceOnUse" x="0" y="0" width="263" height="170">
<path fill-rule="evenodd" clip-rule="evenodd" d="M0 10C0 4.47715 4.47715 0 10 0L253 0C258.523 0 263 4.47715 263 10V160C263 165.523 258.523 170 253 170H10C4.47715 170 0 165.523 0 160L0 10Z" fill="white"/>
</mask>
<g mask="url(#mask0_0_1187)">
<path d="M-1 171V25.2932L25.3195 49.7328L25.6403 50.0306L26.0767 49.9971L51.5008 48.0414L64.1747 66.5647L64.6154 67.2088L65.3473 66.9377L92.2872 56.96L105 54.0263L117.588 56.9313L130.431 65.8222L130.62 65.9533L130.848 65.9884L156.781 69.9781L183.716 77.9588L184.005 78.0446L184.294 77.9558L196.786 74.1122L222.113 94.5691L235.031 145.247L235.334 146.435L236.437 145.9L264.202 132.426L264.005 171H-1Z" fill="#055F59" stroke="#16B4F7" stroke-width="2"/>
<path d="M245 106.828H236.273V103.777C236.273 103.169 236.378 102.667 236.588 102.273C236.795 101.878 237.075 101.584 237.428 101.39C237.777 101.197 238.165 101.101 238.591 101.101C238.966 101.101 239.276 101.167 239.52 101.301C239.764 101.432 239.957 101.605 240.099 101.821C240.241 102.034 240.347 102.265 240.415 102.515H240.5C240.517 102.248 240.611 101.98 240.781 101.71C240.952 101.44 241.196 101.214 241.514 101.032C241.832 100.851 242.222 100.76 242.682 100.76C243.119 100.76 243.513 100.859 243.862 101.058C244.212 101.257 244.489 101.571 244.693 102C244.898 102.429 245 102.987 245 103.675V106.828ZM244.062 105.771V103.675C244.062 102.984 243.929 102.494 243.662 102.204C243.392 101.912 243.065 101.765 242.682 101.765C242.386 101.765 242.114 101.841 241.864 101.991C241.611 102.142 241.409 102.356 241.259 102.635C241.105 102.913 241.028 103.243 241.028 103.623V105.771H244.062ZM240.108 105.771V103.811C240.108 103.493 240.045 103.206 239.92 102.95C239.795 102.692 239.619 102.487 239.392 102.336C239.165 102.183 238.898 102.106 238.591 102.106C238.207 102.106 237.882 102.24 237.615 102.507C237.345 102.774 237.21 103.197 237.21 103.777V105.771H240.108ZM247.455 98.5119C247.455 98.6824 247.44 98.8343 247.412 98.9679C247.386 99.1014 247.361 99.1937 247.335 99.2449L246.449 98.9892C246.511 98.7449 246.534 98.5289 246.517 98.3414C246.5 98.1539 246.416 97.9877 246.266 97.8429C246.118 97.6951 245.878 97.5602 245.545 97.438L245.034 97.2505L238.455 99.671V98.5801L243.67 96.7733V96.7051L238.455 94.8983V93.8074L245.955 96.5858C246.293 96.7108 246.572 96.8656 246.794 97.0502C247.018 97.2349 247.185 97.4494 247.293 97.6937C247.401 97.9352 247.455 98.2079 247.455 98.5119ZM238.455 89.6333H239.307V93.0254H238.455V89.6333ZM236.886 92.0368V91.0311H243.125C243.409 91.0311 243.622 90.9899 243.764 90.9075C243.903 90.8223 243.997 90.7143 244.045 90.5836C244.091 90.4501 244.114 90.3095 244.114 90.1618C244.114 90.051 244.108 89.96 244.097 89.889C244.082 89.818 244.071 89.7612 244.062 89.7186L244.966 89.514C244.991 89.5822 245.017 89.6774 245.043 89.7995C245.071 89.9217 245.085 90.0765 245.085 90.264C245.085 90.5481 245.024 90.8265 244.902 91.0993C244.78 91.3691 244.594 91.5936 244.344 91.7725C244.094 91.9487 243.778 92.0368 243.398 92.0368H236.886ZM245 87.8436H236.273V82.6106H237.21V86.7868H240.159V83.0027H241.097V86.7868H245V87.8436ZM236.273 79.9313H245V80.937H236.273V79.9313ZM247.455 77.4416C247.455 77.612 247.44 77.764 247.412 77.8975C247.386 78.0311 247.361 78.1234 247.335 78.1745L246.449 77.9189C246.511 77.6745 246.534 77.4586 246.517 77.2711C246.5 77.0836 246.416 76.9174 246.266 76.7725C246.118 76.6248 245.878 76.4899 245.545 76.3677L245.034 76.1802L238.455 78.6007V77.5098L243.67 75.7029V75.6348L238.455 73.8279V72.737L245.955 75.5154C246.293 75.6404 246.572 75.7953 246.794 75.9799C247.018 76.1646 247.185 76.3791 247.293 76.6234C247.401 76.8649 247.455 77.1376 247.455 77.4416ZM245.136 68.8997C245.136 69.5304 244.997 70.0744 244.719 70.5318C244.438 70.9863 244.045 71.3372 243.543 71.5843C243.037 71.8287 242.449 71.9508 241.778 71.9508C241.108 71.9508 240.517 71.8287 240.006 71.5843C239.491 71.3372 239.091 70.9934 238.804 70.5531C238.514 70.1099 238.369 69.5929 238.369 69.002C238.369 68.661 238.426 68.3244 238.54 67.992C238.653 67.6596 238.838 67.3571 239.094 67.0843C239.347 66.8116 239.682 66.5943 240.099 66.4324C240.517 66.2704 241.031 66.1895 241.642 66.1895H242.068V71.2349H241.199V67.2122C240.83 67.2122 240.5 67.286 240.21 67.4338C239.92 67.5787 239.692 67.786 239.524 68.0559C239.357 68.323 239.273 68.6383 239.273 69.002C239.273 69.4025 239.372 69.7491 239.571 70.0417C239.767 70.3315 240.023 70.5545 240.338 70.7108C240.653 70.867 240.991 70.9451 241.352 70.9451H241.932C242.426 70.9451 242.845 70.8599 243.189 70.6895C243.53 70.5162 243.79 70.2761 243.969 69.9693C244.145 69.6625 244.233 69.3059 244.233 68.8997C244.233 68.6355 244.196 68.3968 244.122 68.1838C244.045 67.9679 243.932 67.7818 243.781 67.6255C243.628 67.4693 243.437 67.3485 243.21 67.2633L243.483 66.2917C243.812 66.394 244.102 66.5659 244.352 66.8074C244.599 67.0488 244.793 67.3471 244.932 67.7022C245.068 68.0574 245.136 68.4565 245.136 68.8997ZM245 64.6596H238.455V63.688H239.443V63.6199C239.119 63.5005 238.857 63.2846 238.655 62.9721C238.453 62.6596 238.352 62.3074 238.352 61.9153C238.352 61.8414 238.354 61.7491 238.357 61.6383C238.359 61.5275 238.364 61.4437 238.369 61.3869H239.392C239.384 61.421 239.371 61.4991 239.354 61.6213C239.334 61.7406 239.324 61.867 239.324 62.0005C239.324 62.3187 239.391 62.6028 239.524 62.8528C239.655 63.1 239.837 63.296 240.07 63.4409C240.3 63.5829 240.562 63.6539 240.858 63.6539H245V64.6596Z" fill="#FFEEB3"/>
<path d="M34.6307 93.2983C33.2244 93.2983 31.9709 93.0568 30.87 92.5739C29.7763 92.0909 28.9063 91.4197 28.2599 90.5604C27.6207 89.6939 27.2727 88.6889 27.2159 87.5455H29.9006C29.9574 88.2486 30.1989 88.8558 30.625 89.3672C31.0511 89.8714 31.6087 90.2621 32.2976 90.5391C32.9865 90.8161 33.75 90.9545 34.5881 90.9545C35.5256 90.9545 36.3565 90.7912 37.081 90.4645C37.8054 90.1378 38.3736 89.6832 38.7855 89.1009C39.1974 88.5185 39.4034 87.8438 39.4034 87.0767C39.4034 86.2741 39.2045 85.5675 38.8068 84.9567C38.4091 84.3388 37.8267 83.8558 37.0597 83.5078C36.2926 83.1598 35.3551 82.9858 34.2472 82.9858H32.5V80.642H34.2472C35.1136 80.642 35.8736 80.4858 36.527 80.1733C37.1875 79.8608 37.7024 79.4205 38.0717 78.8523C38.4482 78.2841 38.6364 77.6165 38.6364 76.8494C38.6364 76.1108 38.473 75.468 38.1463 74.9212C37.8196 74.3743 37.358 73.9482 36.7614 73.6428C36.1719 73.3374 35.4759 73.1847 34.6733 73.1847C33.9205 73.1847 33.2102 73.3232 32.5426 73.6001C31.8821 73.87 31.3423 74.2642 30.9233 74.7827C30.5043 75.294 30.277 75.9119 30.2415 76.6364H27.6847C27.7273 75.4929 28.0717 74.4915 28.718 73.6321C29.3643 72.7656 30.2095 72.0909 31.2536 71.608C32.3047 71.125 33.4588 70.8835 34.7159 70.8835C36.0653 70.8835 37.223 71.157 38.1889 71.7038C39.1548 72.2436 39.897 72.9574 40.4155 73.8452C40.9339 74.733 41.1932 75.6918 41.1932 76.7216C41.1932 77.9503 40.87 78.9979 40.2237 79.8643C39.5845 80.7308 38.7145 81.331 37.6136 81.6648V81.8352C38.9915 82.0625 40.0675 82.6484 40.8416 83.593C41.6158 84.5305 42.0028 85.6918 42.0028 87.0767C42.0028 88.2628 41.6797 89.3281 41.0334 90.2727C40.3942 91.2102 39.5206 91.9489 38.4126 92.4886C37.3047 93.0284 36.044 93.2983 34.6307 93.2983ZM46.3601 93V91.0824L53.5618 83.1989C54.407 82.2756 55.103 81.473 55.6499 80.7912C56.1967 80.1023 56.6016 79.456 56.8643 78.8523C57.1342 78.2415 57.2692 77.6023 57.2692 76.9347C57.2692 76.1676 57.0845 75.5036 56.7152 74.9425C56.353 74.3814 55.8558 73.9482 55.2237 73.6428C54.5916 73.3374 53.8814 73.1847 53.093 73.1847C52.255 73.1847 51.5234 73.3587 50.8984 73.7067C50.2805 74.0476 49.8011 74.527 49.4602 75.1449C49.1264 75.7628 48.9595 76.4872 48.9595 77.3182H46.4453C46.4453 76.0398 46.7401 74.9176 47.3295 73.9517C47.919 72.9858 48.7216 72.233 49.7372 71.6932C50.7599 71.1534 51.907 70.8835 53.1783 70.8835C54.4567 70.8835 55.5895 71.1534 56.5767 71.6932C57.5639 72.233 58.3381 72.9609 58.8991 73.8771C59.4602 74.7933 59.7408 75.8125 59.7408 76.9347C59.7408 77.7372 59.5952 78.522 59.304 79.2891C59.0199 80.049 58.5227 80.8977 57.8125 81.8352C57.1094 82.7656 56.1328 83.902 54.8828 85.2443L49.9822 90.4858V90.6562H60.1243V93H46.3601ZM65.206 93L74.9645 73.696V73.5256H63.7145V71.1818H77.6918V73.6534L67.9759 93H65.206ZM81.7054 90.017L81.535 91.1676C81.4142 91.9773 81.2296 92.8438 80.981 93.767C80.7395 94.6903 80.4874 95.5604 80.2246 96.3771C79.9618 97.1939 79.7452 97.8438 79.5748 98.3267H77.6571C77.7495 97.8722 77.8702 97.272 78.0194 96.5263C78.1685 95.7805 78.3176 94.946 78.4668 94.0227C78.623 93.1065 78.7509 92.169 78.8503 91.2102L78.9782 90.017H81.7054ZM91.3841 71.1818V93H88.742V73.9517H88.6142L83.2875 77.4886V74.804L88.742 71.1818H91.3841ZM98.3407 93L108.099 73.696V73.5256H96.8493V71.1818H110.827V73.6534L101.111 93H98.3407ZM121.573 93.2983C120.678 93.2841 119.783 93.1136 118.888 92.7869C117.994 92.4602 117.177 91.9098 116.438 91.1357C115.7 90.3544 115.107 89.2997 114.659 87.9716C114.212 86.6364 113.988 84.9602 113.988 82.9432C113.988 81.0114 114.169 79.2997 114.531 77.8082C114.893 76.3097 115.419 75.049 116.108 74.0263C116.797 72.9964 117.628 72.2152 118.601 71.6825C119.581 71.1499 120.685 70.8835 121.914 70.8835C123.136 70.8835 124.222 71.1286 125.174 71.6186C126.133 72.1016 126.914 72.7763 127.518 73.6428C128.121 74.5092 128.512 75.5071 128.69 76.6364H126.09C125.849 75.6562 125.38 74.843 124.684 74.1967C123.988 73.5504 123.065 73.2273 121.914 73.2273C120.224 73.2273 118.892 73.9624 117.919 75.4325C116.953 76.9027 116.467 78.9659 116.46 81.6222H116.63C117.028 81.0185 117.5 80.5036 118.047 80.0774C118.601 79.6442 119.212 79.3104 119.879 79.076C120.547 78.8416 121.254 78.7244 121.999 78.7244C123.249 78.7244 124.393 79.0369 125.43 79.6619C126.467 80.2798 127.298 81.1357 127.923 82.2294C128.548 83.3161 128.86 84.5625 128.86 85.9688C128.86 87.3182 128.558 88.554 127.955 89.6761C127.351 90.7912 126.502 91.679 125.408 92.3395C124.322 92.9929 123.043 93.3125 121.573 93.2983ZM121.573 90.9545C122.468 90.9545 123.271 90.7308 123.981 90.2834C124.698 89.8359 125.263 89.2358 125.675 88.483C126.094 87.7301 126.303 86.892 126.303 85.9688C126.303 85.0668 126.101 84.2464 125.696 83.5078C125.298 82.7621 124.748 82.169 124.045 81.7287C123.349 81.2884 122.553 81.0682 121.658 81.0682C120.984 81.0682 120.355 81.2031 119.773 81.473C119.19 81.7358 118.679 82.098 118.239 82.5597C117.805 83.0213 117.464 83.5504 117.216 84.147C116.967 84.7365 116.843 85.358 116.843 86.0114C116.843 86.8778 117.045 87.6875 117.45 88.4403C117.862 89.1932 118.423 89.8004 119.134 90.2621C119.851 90.7237 120.664 90.9545 121.573 90.9545Z" fill="white"/>
<path opacity="0.85" d="M30.4489 109.362V110.456H25.9943V109.362H30.4489ZM35.7349 104.679C36.1525 104.682 36.5701 104.762 36.9877 104.918C37.4054 105.073 37.7865 105.332 38.1312 105.693C38.4759 106.051 38.7527 106.54 38.9615 107.16C39.1703 107.78 39.2747 108.557 39.2747 109.491C39.2747 110.396 39.1885 111.2 39.0162 111.903C38.8471 112.602 38.6019 113.192 38.2804 113.673C37.9622 114.153 37.5744 114.518 37.117 114.766C36.6629 115.015 36.1492 115.139 35.5758 115.139C35.0057 115.139 34.497 115.027 34.0495 114.801C33.6054 114.572 33.2408 114.256 32.9558 113.852C32.6741 113.444 32.4934 112.972 32.4139 112.435H33.627C33.7363 112.902 33.9534 113.288 34.2782 113.593C34.6064 113.895 35.0389 114.045 35.5758 114.045C36.3613 114.045 36.9811 113.702 37.4352 113.016C37.8926 112.33 38.1213 111.361 38.1213 110.108H38.0417C37.8561 110.386 37.6357 110.627 37.3805 110.829C37.1253 111.031 36.8419 111.187 36.5304 111.296C36.2188 111.406 35.8874 111.46 35.536 111.46C34.9527 111.46 34.4174 111.316 33.9302 111.028C33.4463 110.736 33.0585 110.337 32.7669 109.83C32.4785 109.319 32.3343 108.736 32.3343 108.08C32.3343 107.456 32.4735 106.886 32.752 106.369C33.0337 105.849 33.4281 105.435 33.9352 105.126C34.4456 104.818 35.0455 104.669 35.7349 104.679ZM35.7349 105.773C35.3173 105.773 34.9411 105.877 34.6064 106.086C34.2749 106.291 34.0114 106.57 33.8159 106.921C33.6236 107.269 33.5275 107.655 33.5275 108.08C33.5275 108.504 33.6203 108.89 33.8059 109.238C33.9949 109.583 34.2517 109.858 34.5765 110.063C34.9047 110.265 35.2775 110.366 35.6951 110.366C36.01 110.366 36.3033 110.305 36.5751 110.183C36.8469 110.057 37.0839 109.886 37.286 109.67C37.4915 109.452 37.6523 109.205 37.7683 108.93C37.8843 108.651 37.9423 108.361 37.9423 108.06C37.9423 107.662 37.8462 107.289 37.6539 106.941C37.465 106.593 37.2032 106.311 36.8684 106.096C36.537 105.88 36.1592 105.773 35.7349 105.773ZM41.2745 115L45.8285 105.991V105.912H40.5785V104.818H47.1012V105.972L42.5671 115H41.2745ZM48.9743 113.608L48.8947 114.145C48.8384 114.523 48.7522 114.927 48.6362 115.358C48.5235 115.789 48.4058 116.195 48.2832 116.576C48.1606 116.957 48.0595 117.26 47.9799 117.486H47.085C47.1281 117.274 47.1845 116.994 47.2541 116.646C47.3237 116.298 47.3933 115.908 47.4629 115.477C47.5358 115.05 47.5955 114.612 47.6419 114.165L47.7015 113.608H48.9743ZM54.274 104.679C54.6916 104.682 55.1092 104.762 55.5268 104.918C55.9444 105.073 56.3256 105.332 56.6703 105.693C57.015 106.051 57.2917 106.54 57.5005 107.16C57.7093 107.78 57.8137 108.557 57.8137 109.491C57.8137 110.396 57.7276 111.2 57.5552 111.903C57.3862 112.602 57.1409 113.192 56.8194 113.673C56.5012 114.153 56.1135 114.518 55.6561 114.766C55.202 115.015 54.6883 115.139 54.1149 115.139C53.5448 115.139 53.036 115.027 52.5886 114.801C52.1445 114.572 51.7799 114.256 51.4949 113.852C51.2131 113.444 51.0325 112.972 50.9529 112.435H52.166C52.2754 112.902 52.4925 113.288 52.8173 113.593C53.1454 113.895 53.5779 114.045 54.1149 114.045C54.9004 114.045 55.5202 113.702 55.9743 113.016C56.4316 112.33 56.6603 111.361 56.6603 110.108H56.5808C56.3952 110.386 56.1748 110.627 55.9196 110.829C55.6644 111.031 55.381 111.187 55.0694 111.296C54.7579 111.406 54.4264 111.46 54.0751 111.46C53.4918 111.46 52.9565 111.316 52.4693 111.028C51.9854 110.736 51.5976 110.337 51.3059 109.83C51.0176 109.319 50.8734 108.736 50.8734 108.08C50.8734 107.456 51.0126 106.886 51.291 106.369C51.5727 105.849 51.9672 105.435 52.4743 105.126C52.9847 104.818 53.5846 104.669 54.274 104.679ZM54.274 105.773C53.8564 105.773 53.4802 105.877 53.1454 106.086C52.814 106.291 52.5505 106.57 52.3549 106.921C52.1627 107.269 52.0666 107.655 52.0666 108.08C52.0666 108.504 52.1594 108.89 52.345 109.238C52.5339 109.583 52.7908 109.858 53.1156 110.063C53.4437 110.265 53.8166 110.366 54.2342 110.366C54.5491 110.366 54.8424 110.305 55.1142 110.183C55.3859 110.057 55.6229 109.886 55.8251 109.67C56.0306 109.452 56.1913 109.205 56.3074 108.93C56.4234 108.651 56.4814 108.361 56.4814 108.06C56.4814 107.662 56.3852 107.289 56.193 106.941C56.0041 106.593 55.7422 106.311 55.4075 106.096C55.0761 105.88 54.6982 105.773 54.274 105.773ZM63.3484 104.818V115H62.1154V106.111H62.0558L59.57 107.761V106.509L62.1154 104.818H63.3484ZM66.038 112.912V111.898L70.5124 104.818H71.2482V106.389H70.7511L67.3704 111.739V111.818H73.396V112.912H66.038ZM70.8306 115V112.604V112.131V104.818H72.0039V115H70.8306ZM75.6555 115.08C75.4103 115.08 75.1998 114.992 75.0241 114.816C74.8485 114.64 74.7607 114.43 74.7607 114.185C74.7607 113.939 74.8485 113.729 75.0241 113.553C75.1998 113.378 75.4103 113.29 75.6555 113.29C75.9008 113.29 76.1113 113.378 76.2869 113.553C76.4626 113.729 76.5504 113.939 76.5504 114.185C76.5504 114.347 76.509 114.496 76.4261 114.632C76.3466 114.768 76.2389 114.877 76.103 114.96C75.9704 115.04 75.8213 115.08 75.6555 115.08ZM81.6016 115.139C80.8525 115.139 80.2145 114.935 79.6875 114.528C79.1605 114.117 78.7578 113.522 78.4794 112.743C78.201 111.961 78.0618 111.016 78.0618 109.909C78.0618 108.809 78.201 107.869 78.4794 107.09C78.7611 106.308 79.1655 105.711 79.6925 105.3C80.2228 104.886 80.8591 104.679 81.6016 104.679C82.344 104.679 82.9787 104.886 83.5057 105.3C84.036 105.711 84.4403 106.308 84.7188 107.09C85.0005 107.869 85.1413 108.809 85.1413 109.909C85.1413 111.016 85.0021 111.961 84.7237 112.743C84.4453 113.522 84.0426 114.117 83.5156 114.528C82.9886 114.935 82.3506 115.139 81.6016 115.139ZM81.6016 114.045C82.344 114.045 82.9207 113.687 83.3317 112.972C83.7427 112.256 83.9482 111.235 83.9482 109.909C83.9482 109.027 83.8537 108.277 83.6648 107.657C83.4792 107.037 83.2107 106.565 82.8594 106.24C82.5114 105.915 82.0921 105.753 81.6016 105.753C80.8658 105.753 80.2907 106.116 79.8764 106.842C79.4621 107.564 79.255 108.587 79.255 109.909C79.255 110.791 79.3478 111.54 79.5334 112.156C79.719 112.773 79.9858 113.242 80.3338 113.563C80.6851 113.885 81.1077 114.045 81.6016 114.045ZM90.3516 115.139C89.6025 115.139 88.9645 114.935 88.4375 114.528C87.9105 114.117 87.5078 113.522 87.2294 112.743C86.951 111.961 86.8118 111.016 86.8118 109.909C86.8118 108.809 86.951 107.869 87.2294 107.09C87.5111 106.308 87.9155 105.711 88.4425 105.3C88.9728 104.886 89.6091 104.679 90.3516 104.679C91.094 104.679 91.7287 104.886 92.2557 105.3C92.786 105.711 93.1903 106.308 93.4688 107.09C93.7505 107.869 93.8913 108.809 93.8913 109.909C93.8913 111.016 93.7521 111.961 93.4737 112.743C93.1953 113.522 92.7926 114.117 92.2656 114.528C91.7386 114.935 91.1006 115.139 90.3516 115.139ZM90.3516 114.045C91.094 114.045 91.6707 113.687 92.0817 112.972C92.4927 112.256 92.6982 111.235 92.6982 109.909C92.6982 109.027 92.6037 108.277 92.4148 107.657C92.2292 107.037 91.9607 106.565 91.6094 106.24C91.2614 105.915 90.8421 105.753 90.3516 105.753C89.6158 105.753 89.0407 106.116 88.6264 106.842C88.2121 107.564 88.005 108.587 88.005 109.909C88.005 110.791 88.0978 111.54 88.2834 112.156C88.469 112.773 88.7358 113.242 89.0838 113.563C89.4351 113.885 89.8577 114.045 90.3516 114.045ZM100.156 109.909C100.156 108.656 100.318 107.504 100.643 106.454C100.971 105.4 101.438 104.43 102.045 103.545H103.079C102.84 103.874 102.616 104.278 102.408 104.759C102.202 105.236 102.022 105.761 101.866 106.335C101.71 106.905 101.587 107.495 101.498 108.104C101.412 108.714 101.369 109.316 101.369 109.909C101.369 110.698 101.445 111.498 101.597 112.31C101.75 113.122 101.955 113.876 102.214 114.572C102.472 115.268 102.761 115.835 103.079 116.273H102.045C101.438 115.388 100.971 114.42 100.643 113.369C100.318 112.315 100.156 111.162 100.156 109.909ZM109.185 109.362V110.456H104.731V109.362H109.185ZM110.751 115V114.105L114.112 110.426C114.506 109.995 114.831 109.621 115.086 109.303C115.342 108.981 115.531 108.679 115.653 108.398C115.779 108.113 115.842 107.814 115.842 107.503C115.842 107.145 115.756 106.835 115.584 106.573C115.415 106.311 115.183 106.109 114.888 105.967C114.593 105.824 114.261 105.753 113.893 105.753C113.502 105.753 113.161 105.834 112.869 105.996C112.581 106.156 112.357 106.379 112.198 106.668C112.042 106.956 111.964 107.294 111.964 107.682H110.791C110.791 107.085 110.929 106.562 111.204 106.111C111.479 105.66 111.853 105.309 112.327 105.057C112.805 104.805 113.34 104.679 113.933 104.679C114.53 104.679 115.058 104.805 115.519 105.057C115.98 105.309 116.341 105.648 116.603 106.076C116.865 106.504 116.996 106.979 116.996 107.503C116.996 107.877 116.928 108.244 116.792 108.602C116.659 108.956 116.427 109.352 116.096 109.79C115.768 110.224 115.312 110.754 114.729 111.381L112.442 113.827V113.906H117.175V115H110.751ZM122.668 115.139C122.012 115.139 121.427 115.027 120.913 114.801C120.403 114.576 119.997 114.263 119.695 113.862C119.397 113.457 119.234 112.988 119.208 112.455H120.461C120.487 112.783 120.6 113.066 120.799 113.305C120.998 113.54 121.258 113.722 121.579 113.852C121.901 113.981 122.257 114.045 122.648 114.045C123.086 114.045 123.474 113.969 123.812 113.817C124.15 113.664 124.415 113.452 124.607 113.18C124.799 112.909 124.895 112.594 124.895 112.236C124.895 111.861 124.803 111.531 124.617 111.246C124.431 110.958 124.16 110.733 123.802 110.57C123.444 110.408 123.006 110.327 122.489 110.327H121.674V109.233H122.489C122.894 109.233 123.248 109.16 123.553 109.014C123.861 108.868 124.102 108.663 124.274 108.398C124.45 108.133 124.537 107.821 124.537 107.463C124.537 107.118 124.461 106.818 124.309 106.563C124.156 106.308 123.941 106.109 123.662 105.967C123.387 105.824 123.063 105.753 122.688 105.753C122.337 105.753 122.005 105.817 121.694 105.947C121.385 106.073 121.134 106.257 120.938 106.499C120.742 106.737 120.636 107.026 120.62 107.364H119.427C119.447 106.83 119.607 106.363 119.909 105.962C120.211 105.557 120.605 105.242 121.092 105.017C121.583 104.792 122.121 104.679 122.708 104.679C123.338 104.679 123.878 104.807 124.329 105.062C124.779 105.314 125.126 105.647 125.368 106.061C125.61 106.475 125.731 106.923 125.731 107.403C125.731 107.977 125.58 108.466 125.278 108.87C124.98 109.274 124.574 109.554 124.06 109.71V109.79C124.703 109.896 125.205 110.169 125.567 110.61C125.928 111.048 126.108 111.589 126.108 112.236C126.108 112.789 125.958 113.286 125.656 113.727C125.358 114.165 124.95 114.509 124.433 114.761C123.916 115.013 123.328 115.139 122.668 115.139ZM128.702 115.08C128.457 115.08 128.247 114.992 128.071 114.816C127.895 114.64 127.808 114.43 127.808 114.185C127.808 113.939 127.895 113.729 128.071 113.553C128.247 113.378 128.457 113.29 128.702 113.29C128.948 113.29 129.158 113.378 129.334 113.553C129.509 113.729 129.597 113.939 129.597 114.185C129.597 114.347 129.556 114.496 129.473 114.632C129.393 114.768 129.286 114.877 129.15 114.96C129.017 115.04 128.868 115.08 128.702 115.08ZM134.648 115.139C133.899 115.139 133.261 114.935 132.734 114.528C132.207 114.117 131.805 113.522 131.526 112.743C131.248 111.961 131.109 111.016 131.109 109.909C131.109 108.809 131.248 107.869 131.526 107.09C131.808 106.308 132.212 105.711 132.739 105.3C133.27 104.886 133.906 104.679 134.648 104.679C135.391 104.679 136.026 104.886 136.553 105.3C137.083 105.711 137.487 106.308 137.766 107.09C138.047 107.869 138.188 108.809 138.188 109.909C138.188 111.016 138.049 111.961 137.771 112.743C137.492 113.522 137.089 114.117 136.562 114.528C136.036 114.935 135.397 115.139 134.648 115.139ZM134.648 114.045C135.391 114.045 135.968 113.687 136.379 112.972C136.79 112.256 136.995 111.235 136.995 109.909C136.995 109.027 136.901 108.277 136.712 107.657C136.526 107.037 136.258 106.565 135.906 106.24C135.558 105.915 135.139 105.753 134.648 105.753C133.913 105.753 133.338 106.116 132.923 106.842C132.509 107.564 132.302 108.587 132.302 109.909C132.302 110.791 132.395 111.54 132.58 112.156C132.766 112.773 133.033 113.242 133.381 113.563C133.732 113.885 134.155 114.045 134.648 114.045ZM143.518 115.139C142.862 115.139 142.277 115.027 141.763 114.801C141.252 114.576 140.846 114.263 140.545 113.862C140.246 113.457 140.084 112.988 140.058 112.455H141.31C141.337 112.783 141.45 113.066 141.648 113.305C141.847 113.54 142.107 113.722 142.429 113.852C142.75 113.981 143.107 114.045 143.498 114.045C143.935 114.045 144.323 113.969 144.661 113.817C144.999 113.664 145.264 113.452 145.457 113.18C145.649 112.909 145.745 112.594 145.745 112.236C145.745 111.861 145.652 111.531 145.467 111.246C145.281 110.958 145.009 110.733 144.651 110.57C144.293 110.408 143.856 110.327 143.339 110.327H142.523V109.233H143.339C143.743 109.233 144.098 109.16 144.403 109.014C144.711 108.868 144.951 108.663 145.124 108.398C145.299 108.133 145.387 107.821 145.387 107.463C145.387 107.118 145.311 106.818 145.158 106.563C145.006 106.308 144.79 106.109 144.512 105.967C144.237 105.824 143.912 105.753 143.538 105.753C143.186 105.753 142.855 105.817 142.543 105.947C142.235 106.073 141.983 106.257 141.788 106.499C141.592 106.737 141.486 107.026 141.469 107.364H140.276C140.296 106.83 140.457 106.363 140.759 105.962C141.06 105.557 141.455 105.242 141.942 105.017C142.432 104.792 142.971 104.679 143.558 104.679C144.187 104.679 144.728 104.807 145.178 105.062C145.629 105.314 145.975 105.647 146.217 106.061C146.459 106.475 146.58 106.923 146.58 107.403C146.58 107.977 146.429 108.466 146.128 108.87C145.83 109.274 145.424 109.554 144.91 109.71V109.79C145.553 109.896 146.055 110.169 146.416 110.61C146.777 111.048 146.958 111.589 146.958 112.236C146.958 112.789 146.807 113.286 146.506 113.727C146.207 114.165 145.8 114.509 145.283 114.761C144.766 115.013 144.177 115.139 143.518 115.139ZM154.182 113.091V112.554C154.182 112.183 154.258 111.843 154.411 111.535C154.566 111.223 154.792 110.975 155.087 110.789C155.385 110.6 155.746 110.506 156.17 110.506C156.601 110.506 156.963 110.6 157.254 110.789C157.546 110.975 157.766 111.223 157.915 111.535C158.065 111.843 158.139 112.183 158.139 112.554V113.091C158.139 113.462 158.063 113.804 157.911 114.115C157.761 114.423 157.539 114.672 157.244 114.861C156.953 115.046 156.595 115.139 156.17 115.139C155.74 115.139 155.377 115.046 155.082 114.861C154.787 114.672 154.563 114.423 154.411 114.115C154.258 113.804 154.182 113.462 154.182 113.091ZM155.196 112.554V113.091C155.196 113.399 155.269 113.676 155.415 113.921C155.561 114.163 155.813 114.284 156.17 114.284C156.518 114.284 156.764 114.163 156.906 113.921C157.052 113.676 157.125 113.399 157.125 113.091V112.554C157.125 112.246 157.055 111.971 156.916 111.729C156.777 111.483 156.528 111.361 156.17 111.361C155.822 111.361 155.572 111.483 155.42 111.729C155.271 111.971 155.196 112.246 155.196 112.554ZM149.111 107.264V106.727C149.111 106.356 149.187 106.016 149.339 105.708C149.495 105.397 149.721 105.148 150.016 104.962C150.314 104.773 150.675 104.679 151.099 104.679C151.53 104.679 151.892 104.773 152.183 104.962C152.475 105.148 152.695 105.397 152.844 105.708C152.994 106.016 153.068 106.356 153.068 106.727V107.264C153.068 107.635 152.992 107.977 152.839 108.288C152.69 108.597 152.468 108.845 152.173 109.034C151.882 109.22 151.524 109.312 151.099 109.312C150.669 109.312 150.306 109.22 150.011 109.034C149.716 108.845 149.492 108.597 149.339 108.288C149.187 107.977 149.111 107.635 149.111 107.264ZM150.125 106.727V107.264C150.125 107.572 150.198 107.849 150.344 108.094C150.49 108.336 150.741 108.457 151.099 108.457C151.447 108.457 151.693 108.336 151.835 108.094C151.981 107.849 152.054 107.572 152.054 107.264V106.727C152.054 106.419 151.984 106.144 151.845 105.902C151.706 105.657 151.457 105.534 151.099 105.534C150.751 105.534 150.501 105.657 150.349 105.902C150.2 106.144 150.125 106.419 150.125 106.727ZM149.489 115L156.489 104.818H157.622L150.622 115H149.489ZM162.892 109.909C162.892 111.162 162.728 112.315 162.4 113.369C162.075 114.42 161.609 115.388 161.003 116.273H159.969C160.207 115.945 160.429 115.54 160.635 115.06C160.844 114.582 161.026 114.059 161.182 113.489C161.338 112.915 161.459 112.324 161.545 111.714C161.634 111.101 161.679 110.499 161.679 109.909C161.679 109.12 161.603 108.32 161.45 107.508C161.298 106.696 161.092 105.942 160.834 105.246C160.575 104.55 160.287 103.983 159.969 103.545H161.003C161.609 104.43 162.075 105.4 162.4 106.454C162.728 107.504 162.892 108.656 162.892 109.909Z" fill="white"/>
<path fill-rule="evenodd" clip-rule="evenodd" d="M144.949 85H137.051C136.747 85 136.5 84.7447 136.5 84.4297C136.5 84.3203 136.53 84.2133 136.587 84.1213L140.537 77.762C140.701 77.497 141.042 77.4203 141.298 77.5906C141.364 77.6348 141.421 77.6933 141.463 77.762L145.412 84.1213C145.577 84.3862 145.503 84.7391 145.247 84.9094C145.158 84.9686 145.055 85 144.949 85Z" fill="white"/>
<path d="M28.9716 138.273V147H27.9148V139.381H27.8636L25.733 140.795V139.722L27.9148 138.273H28.9716ZM34.4304 147.119C33.8679 147.119 33.3665 147.023 32.9261 146.83C32.4886 146.636 32.1406 146.368 31.8821 146.024C31.6264 145.678 31.4872 145.276 31.4645 144.818H32.5384C32.5611 145.099 32.6577 145.342 32.8281 145.547C32.9986 145.749 33.2216 145.905 33.4972 146.016C33.7727 146.126 34.0781 146.182 34.4134 146.182C34.7884 146.182 35.1207 146.116 35.4105 145.986C35.7003 145.855 35.9276 145.673 36.0923 145.44C36.2571 145.207 36.3395 144.938 36.3395 144.631C36.3395 144.31 36.2599 144.027 36.1009 143.783C35.9418 143.536 35.7088 143.342 35.402 143.203C35.0952 143.064 34.7202 142.994 34.277 142.994H33.5781V142.057H34.277C34.6236 142.057 34.9276 141.994 35.1889 141.869C35.4531 141.744 35.6591 141.568 35.8068 141.341C35.9574 141.114 36.0327 140.847 36.0327 140.54C36.0327 140.244 35.9673 139.987 35.8366 139.768C35.706 139.55 35.5213 139.379 35.2827 139.257C35.0469 139.135 34.7685 139.074 34.4474 139.074C34.1463 139.074 33.8622 139.129 33.5952 139.24C33.331 139.348 33.1151 139.506 32.9474 139.713C32.7798 139.918 32.6889 140.165 32.6747 140.455H31.652C31.669 139.997 31.8068 139.597 32.0653 139.253C32.3239 138.906 32.6619 138.636 33.0795 138.443C33.5 138.25 33.9616 138.153 34.4645 138.153C35.0043 138.153 35.4673 138.263 35.8537 138.482C36.2401 138.697 36.5369 138.983 36.7443 139.338C36.9517 139.693 37.0554 140.077 37.0554 140.489C37.0554 140.98 36.9261 141.399 36.6676 141.746C36.4119 142.092 36.0639 142.332 35.6236 142.466V142.534C36.1747 142.625 36.6051 142.859 36.9148 143.237C37.2244 143.612 37.3793 144.077 37.3793 144.631C37.3793 145.105 37.25 145.531 36.9915 145.909C36.7358 146.284 36.3864 146.58 35.9432 146.795C35.5 147.011 34.9957 147.119 34.4304 147.119ZM42.1903 138.273V147H41.1335V139.381H41.0824L38.9517 140.795V139.722L41.1335 138.273H42.1903ZM45.7017 145.807L45.6335 146.267C45.5852 146.591 45.5114 146.938 45.4119 147.307C45.3153 147.676 45.2145 148.024 45.1094 148.351C45.0043 148.678 44.9176 148.938 44.8494 149.131H44.0824C44.1193 148.949 44.1676 148.709 44.2273 148.411C44.2869 148.112 44.3466 147.778 44.4062 147.409C44.4688 147.043 44.5199 146.668 44.5597 146.284L44.6108 145.807H45.7017ZM50.0898 147.119C49.4478 147.119 48.9009 146.945 48.4492 146.595C47.9975 146.243 47.6523 145.733 47.4137 145.065C47.1751 144.395 47.0558 143.585 47.0558 142.636C47.0558 141.693 47.1751 140.888 47.4137 140.22C47.6552 139.55 48.0018 139.038 48.4535 138.686C48.908 138.331 49.4535 138.153 50.0898 138.153C50.7262 138.153 51.2702 138.331 51.7219 138.686C52.1765 139.038 52.5231 139.55 52.7617 140.22C53.0032 140.888 53.1239 141.693 53.1239 142.636C53.1239 143.585 53.0046 144.395 52.766 145.065C52.5273 145.733 52.1822 146.243 51.7305 146.595C51.2788 146.945 50.7319 147.119 50.0898 147.119ZM50.0898 146.182C50.7262 146.182 51.2205 145.875 51.5728 145.261C51.9251 144.648 52.1012 143.773 52.1012 142.636C52.1012 141.881 52.0202 141.237 51.8583 140.706C51.6992 140.175 51.4691 139.77 51.168 139.491C50.8697 139.213 50.5103 139.074 50.0898 139.074C49.4592 139.074 48.9663 139.385 48.6112 140.007C48.256 140.626 48.0785 141.503 48.0785 142.636C48.0785 143.392 48.158 144.034 48.3171 144.562C48.4762 145.091 48.7049 145.493 49.0032 145.768C49.3043 146.044 49.6665 146.182 50.0898 146.182ZM54.5387 145.21V144.341L58.3739 138.273H59.0046V139.619H58.5785L55.6808 144.205V144.273H60.8455V145.21H54.5387ZM58.6467 147V144.946V144.541V138.273H59.6523V147H58.6467ZM65.2891 147.119C64.647 147.119 64.1001 146.945 63.6484 146.595C63.1967 146.243 62.8516 145.733 62.6129 145.065C62.3743 144.395 62.255 143.585 62.255 142.636C62.255 141.693 62.3743 140.888 62.6129 140.22C62.8544 139.55 63.201 139.038 63.6527 138.686C64.1072 138.331 64.6527 138.153 65.2891 138.153C65.9254 138.153 66.4695 138.331 66.9212 138.686C67.3757 139.038 67.7223 139.55 67.9609 140.22C68.2024 140.888 68.3232 141.693 68.3232 142.636C68.3232 143.585 68.2038 144.395 67.9652 145.065C67.7266 145.733 67.3814 146.243 66.9297 146.595C66.478 146.945 65.9311 147.119 65.2891 147.119ZM65.2891 146.182C65.9254 146.182 66.4197 145.875 66.772 145.261C67.1243 144.648 67.3004 143.773 67.3004 142.636C67.3004 141.881 67.2195 141.237 67.0575 140.706C66.8984 140.175 66.6683 139.77 66.3672 139.491C66.0689 139.213 65.7095 139.074 65.2891 139.074C64.6584 139.074 64.1655 139.385 63.8104 140.007C63.4553 140.626 63.2777 141.503 63.2777 142.636C63.2777 143.392 63.3572 144.034 63.5163 144.562C63.6754 145.091 63.9041 145.493 64.2024 145.768C64.5036 146.044 64.8658 146.182 65.2891 146.182ZM71.1548 145.807L71.0866 146.267C71.0384 146.591 70.9645 146.938 70.8651 147.307C70.7685 147.676 70.6676 148.024 70.5625 148.351C70.4574 148.678 70.3707 148.938 70.3026 149.131H69.5355C69.5724 148.949 69.6207 148.709 69.6804 148.411C69.7401 148.112 69.7997 147.778 69.8594 147.409C69.9219 147.043 69.973 146.668 70.0128 146.284L70.0639 145.807H71.1548ZM73.098 147L77.0014 139.278V139.21H72.5014V138.273H78.0923V139.261L74.206 147H73.098ZM79.6808 147V146.233L82.5614 143.08C82.8995 142.71 83.1779 142.389 83.3967 142.116C83.6154 141.841 83.7773 141.582 83.8825 141.341C83.9904 141.097 84.0444 140.841 84.0444 140.574C84.0444 140.267 83.9705 140.001 83.8228 139.777C83.6779 139.553 83.479 139.379 83.2262 139.257C82.9734 139.135 82.6893 139.074 82.3739 139.074C82.0387 139.074 81.7461 139.143 81.4961 139.283C81.2489 139.419 81.0572 139.611 80.9208 139.858C80.7873 140.105 80.7205 140.395 80.7205 140.727H79.7148C79.7148 140.216 79.8327 139.767 80.0685 139.381C80.3043 138.994 80.6254 138.693 81.0316 138.477C81.4407 138.261 81.8995 138.153 82.408 138.153C82.9194 138.153 83.3725 138.261 83.7674 138.477C84.1623 138.693 84.4719 138.984 84.6964 139.351C84.9208 139.717 85.033 140.125 85.033 140.574C85.033 140.895 84.9748 141.209 84.8583 141.516C84.7447 141.82 84.5458 142.159 84.2617 142.534C83.9805 142.906 83.5898 143.361 83.0898 143.898L81.1296 145.994V146.062H85.1864V147H79.6808ZM89.8952 147.119C89.3327 147.119 88.8313 147.023 88.391 146.83C87.9535 146.636 87.6055 146.368 87.3469 146.024C87.0913 145.678 86.9521 145.276 86.9293 144.818H88.0032C88.0259 145.099 88.1225 145.342 88.293 145.547C88.4634 145.749 88.6864 145.905 88.962 146.016C89.2376 146.126 89.543 146.182 89.8782 146.182C90.2532 146.182 90.5856 146.116 90.8754 145.986C91.1651 145.855 91.3924 145.673 91.5572 145.44C91.7219 145.207 91.8043 144.938 91.8043 144.631C91.8043 144.31 91.7248 144.027 91.5657 143.783C91.4066 143.536 91.1737 143.342 90.8668 143.203C90.56 143.064 90.185 142.994 89.7418 142.994H89.043V142.057H89.7418C90.0884 142.057 90.3924 141.994 90.6538 141.869C90.918 141.744 91.1239 141.568 91.2717 141.341C91.4222 141.114 91.4975 140.847 91.4975 140.54C91.4975 140.244 91.4322 139.987 91.3015 139.768C91.1708 139.55 90.9862 139.379 90.7475 139.257C90.5117 139.135 90.2333 139.074 89.9123 139.074C89.6112 139.074 89.3271 139.129 89.06 139.24C88.7958 139.348 88.5799 139.506 88.4123 139.713C88.2447 139.918 88.1538 140.165 88.1396 140.455H87.1168C87.1339 139.997 87.2717 139.597 87.5302 139.253C87.7887 138.906 88.1268 138.636 88.5444 138.443C88.9648 138.25 89.4265 138.153 89.9293 138.153C90.4691 138.153 90.9322 138.263 91.3185 138.482C91.7049 138.697 92.0018 138.983 92.2092 139.338C92.4165 139.693 92.5202 140.077 92.5202 140.489C92.5202 140.98 92.391 141.399 92.1325 141.746C91.8768 142.092 91.5288 142.332 91.0884 142.466V142.534C91.6396 142.625 92.07 142.859 92.3796 143.237C92.6893 143.612 92.8441 144.077 92.8441 144.631C92.8441 145.105 92.7148 145.531 92.4563 145.909C92.2006 146.284 91.8512 146.58 91.408 146.795C90.9648 147.011 90.4606 147.119 89.8952 147.119ZM95.8345 145.807L95.7663 146.267C95.718 146.591 95.6442 146.938 95.5447 147.307C95.4482 147.676 95.3473 148.024 95.2422 148.351C95.1371 148.678 95.0504 148.938 94.9822 149.131H94.2152C94.2521 148.949 94.3004 148.709 94.3601 148.411C94.4197 148.112 94.4794 147.778 94.5391 147.409C94.6016 147.043 94.6527 146.668 94.6925 146.284L94.7436 145.807H95.8345ZM99.706 138.273V147H98.6491V139.381H98.598L96.4673 140.795V139.722L98.6491 138.273H99.706ZM105.062 147.119C104.42 147.119 103.874 146.945 103.422 146.595C102.97 146.243 102.625 145.733 102.386 145.065C102.148 144.395 102.028 143.585 102.028 142.636C102.028 141.693 102.148 140.888 102.386 140.22C102.628 139.55 102.974 139.038 103.426 138.686C103.881 138.331 104.426 138.153 105.062 138.153C105.699 138.153 106.243 138.331 106.695 138.686C107.149 139.038 107.496 139.55 107.734 140.22C107.976 140.888 108.097 141.693 108.097 142.636C108.097 143.585 107.977 144.395 107.739 145.065C107.5 145.733 107.155 146.243 106.703 146.595C106.251 146.945 105.705 147.119 105.062 147.119ZM105.062 146.182C105.699 146.182 106.193 145.875 106.545 145.261C106.898 144.648 107.074 143.773 107.074 142.636C107.074 141.881 106.993 141.237 106.831 140.706C106.672 140.175 106.442 139.77 106.141 139.491C105.842 139.213 105.483 139.074 105.062 139.074C104.432 139.074 103.939 139.385 103.584 140.007C103.229 140.626 103.051 141.503 103.051 142.636C103.051 143.392 103.131 144.034 103.29 144.562C103.449 145.091 103.678 145.493 103.976 145.768C104.277 146.044 104.639 146.182 105.062 146.182ZM112.511 147.119C111.926 147.119 111.409 147.016 110.96 146.808C110.514 146.598 110.166 146.31 109.916 145.943C109.666 145.574 109.543 145.153 109.545 144.682C109.543 144.312 109.615 143.972 109.763 143.659C109.911 143.344 110.112 143.081 110.368 142.871C110.626 142.658 110.915 142.523 111.233 142.466V142.415C110.815 142.307 110.483 142.072 110.236 141.712C109.989 141.348 109.866 140.935 109.869 140.472C109.866 140.028 109.979 139.632 110.206 139.283C110.433 138.933 110.746 138.658 111.143 138.456C111.544 138.254 112 138.153 112.511 138.153C113.017 138.153 113.469 138.254 113.866 138.456C114.264 138.658 114.577 138.933 114.804 139.283C115.034 139.632 115.151 140.028 115.153 140.472C115.151 140.935 115.024 141.348 114.774 141.712C114.527 142.072 114.199 142.307 113.79 142.415V142.466C114.105 142.523 114.389 142.658 114.642 142.871C114.895 143.081 115.097 143.344 115.247 143.659C115.398 143.972 115.474 144.312 115.477 144.682C115.474 145.153 115.347 145.574 115.094 145.943C114.844 146.31 114.496 146.598 114.05 146.808C113.607 147.016 113.094 147.119 112.511 147.119ZM112.511 146.182C112.906 146.182 113.247 146.118 113.534 145.99C113.821 145.862 114.043 145.682 114.199 145.449C114.355 145.216 114.435 144.943 114.438 144.631C114.435 144.301 114.349 144.01 114.182 143.757C114.014 143.504 113.786 143.305 113.496 143.161C113.209 143.016 112.881 142.943 112.511 142.943C112.139 142.943 111.807 143.016 111.514 143.161C111.224 143.305 110.996 143.504 110.828 143.757C110.663 144.01 110.582 144.301 110.585 144.631C110.582 144.943 110.658 145.216 110.811 145.449C110.967 145.682 111.19 145.862 111.48 145.99C111.77 146.118 112.114 146.182 112.511 146.182ZM112.511 142.04C112.824 142.04 113.101 141.977 113.342 141.852C113.587 141.727 113.778 141.553 113.918 141.328C114.057 141.104 114.128 140.841 114.131 140.54C114.128 140.244 114.058 139.987 113.922 139.768C113.786 139.547 113.597 139.376 113.355 139.257C113.114 139.135 112.832 139.074 112.511 139.074C112.185 139.074 111.899 139.135 111.655 139.257C111.411 139.376 111.222 139.547 111.088 139.768C110.955 139.987 110.889 140.244 110.892 140.54C110.889 140.841 110.956 141.104 111.092 141.328C111.232 141.553 111.423 141.727 111.668 141.852C111.912 141.977 112.193 142.04 112.511 142.04ZM123.98 138.273H125.037V144.511C125.037 145.068 124.934 145.541 124.73 145.93C124.525 146.32 124.237 146.615 123.865 146.817C123.493 147.018 123.054 147.119 122.548 147.119C122.071 147.119 121.646 147.033 121.274 146.859C120.902 146.683 120.609 146.433 120.396 146.109C120.183 145.786 120.076 145.401 120.076 144.955H121.116C121.116 145.202 121.177 145.418 121.299 145.602C121.424 145.784 121.595 145.926 121.811 146.028C122.027 146.131 122.272 146.182 122.548 146.182C122.852 146.182 123.11 146.118 123.324 145.99C123.537 145.862 123.699 145.675 123.809 145.428C123.923 145.178 123.98 144.872 123.98 144.511V138.273ZM127.154 147V138.273H130.103C130.788 138.273 131.348 138.396 131.782 138.643C132.22 138.888 132.544 139.219 132.754 139.636C132.964 140.054 133.069 140.52 133.069 141.034C133.069 141.548 132.964 142.016 132.754 142.436C132.547 142.857 132.225 143.192 131.791 143.442C131.356 143.689 130.799 143.812 130.12 143.812H128.007V142.875H130.086C130.555 142.875 130.931 142.794 131.216 142.632C131.5 142.47 131.706 142.251 131.833 141.976C131.964 141.697 132.029 141.384 132.029 141.034C132.029 140.685 131.964 140.372 131.833 140.097C131.706 139.821 131.498 139.605 131.211 139.449C130.924 139.29 130.544 139.21 130.069 139.21H128.211V147H127.154ZM134.022 138.273H135.232L137.652 142.347H137.755L140.175 138.273H141.385L138.232 143.403V147H137.175V143.403L134.022 138.273Z" fill="#FFEEB3"/>
<path d="M26.0568 52V43.2727H29.108C29.7159 43.2727 30.2173 43.3778 30.6122 43.5881C31.0071 43.7955 31.3011 44.0753 31.4943 44.4276C31.6875 44.777 31.7841 45.1648 31.7841 45.5909C31.7841 45.9659 31.7173 46.2756 31.5838 46.5199C31.4531 46.7642 31.2798 46.9574 31.0639 47.0994C30.8509 47.2415 30.6193 47.3466 30.3693 47.4148V47.5C30.6364 47.517 30.9048 47.6108 31.1747 47.7812C31.4446 47.9517 31.6705 48.196 31.8523 48.5142C32.0341 48.8324 32.125 49.2216 32.125 49.6818C32.125 50.1193 32.0256 50.5128 31.8267 50.8622C31.6278 51.2116 31.3139 51.4886 30.8849 51.6932C30.456 51.8977 29.8977 52 29.2102 52H26.0568ZM27.1136 51.0625H29.2102C29.9006 51.0625 30.3906 50.929 30.6804 50.6619C30.973 50.392 31.1193 50.0653 31.1193 49.6818C31.1193 49.3864 31.044 49.1136 30.8935 48.8636C30.7429 48.6108 30.5284 48.4091 30.25 48.2585C29.9716 48.1051 29.642 48.0284 29.2614 48.0284H27.1136V51.0625ZM27.1136 47.108H29.0739C29.392 47.108 29.679 47.0455 29.9347 46.9205C30.1932 46.7955 30.3977 46.6193 30.5483 46.392C30.7017 46.1648 30.7784 45.8977 30.7784 45.5909C30.7784 45.2074 30.6449 44.8821 30.3778 44.6151C30.1108 44.3452 29.6875 44.2102 29.108 44.2102H27.1136V47.108ZM33.7251 52V45.4545H34.7308V52H33.7251ZM34.2365 44.3636C34.0405 44.3636 33.8714 44.2969 33.7294 44.1634C33.5902 44.0298 33.5206 43.8693 33.5206 43.6818C33.5206 43.4943 33.5902 43.3338 33.7294 43.2003C33.8714 43.0668 34.0405 43 34.2365 43C34.4325 43 34.6001 43.0668 34.7393 43.2003C34.8814 43.3338 34.9524 43.4943 34.9524 43.6818C34.9524 43.8693 34.8814 44.0298 34.7393 44.1634C34.6001 44.2969 34.4325 44.3636 34.2365 44.3636ZM39.4194 45.4545V46.3068H36.0273V45.4545H39.4194ZM37.016 43.8864H38.0217V50.125C38.0217 50.4091 38.0629 50.6222 38.1452 50.7642C38.2305 50.9034 38.3384 50.9972 38.4691 51.0455C38.6026 51.0909 38.7433 51.1136 38.891 51.1136C39.0018 51.1136 39.0927 51.108 39.1637 51.0966C39.2347 51.0824 39.2915 51.071 39.3342 51.0625L39.5387 51.9659C39.4705 51.9915 39.3754 52.017 39.2532 52.0426C39.131 52.071 38.9762 52.0852 38.7887 52.0852C38.5046 52.0852 38.2262 52.0241 37.9535 51.902C37.6836 51.7798 37.4592 51.5938 37.2802 51.3438C37.104 51.0938 37.016 50.7784 37.016 50.3977V43.8864ZM43.521 52.1364C42.9073 52.1364 42.3789 51.9915 41.9357 51.7017C41.4925 51.4119 41.1516 51.0128 40.913 50.5043C40.6744 49.9957 40.555 49.4148 40.555 48.7614C40.555 48.0966 40.6772 47.5099 40.9215 47.0014C41.1687 46.4901 41.5124 46.0909 41.9528 45.804C42.396 45.5142 42.913 45.3693 43.5039 45.3693C43.9641 45.3693 44.3789 45.4545 44.7482 45.625C45.1175 45.7955 45.4201 46.0341 45.6559 46.3409C45.8917 46.6477 46.038 47.0057 46.0948 47.4148H45.0891C45.0124 47.1165 44.842 46.8523 44.5778 46.6222C44.3164 46.3892 43.9641 46.2727 43.521 46.2727C43.1289 46.2727 42.7852 46.375 42.4897 46.5795C42.1971 46.7812 41.9684 47.0668 41.8036 47.4361C41.6417 47.8026 41.5607 48.233 41.5607 48.7273C41.5607 49.233 41.6403 49.6733 41.7994 50.0483C41.9613 50.4233 42.1886 50.7145 42.4812 50.9219C42.7766 51.1293 43.1232 51.233 43.521 51.233C43.7823 51.233 44.0195 51.1875 44.2326 51.0966C44.4457 51.0057 44.6261 50.875 44.7738 50.7045C44.9215 50.5341 45.0266 50.3295 45.0891 50.0909H46.0948C46.038 50.4773 45.8974 50.8253 45.6729 51.1349C45.4513 51.4418 45.1573 51.6861 44.7908 51.8679C44.4272 52.0469 44.0039 52.1364 43.521 52.1364ZM50.2241 52.1364C49.6332 52.1364 49.1147 51.9957 48.6687 51.7145C48.2255 51.4332 47.8789 51.0398 47.6289 50.5341C47.3817 50.0284 47.2582 49.4375 47.2582 48.7614C47.2582 48.0795 47.3817 47.4844 47.6289 46.9759C47.8789 46.4673 48.2255 46.0724 48.6687 45.7912C49.1147 45.5099 49.6332 45.3693 50.2241 45.3693C50.815 45.3693 51.332 45.5099 51.7752 45.7912C52.2212 46.0724 52.5678 46.4673 52.815 46.9759C53.065 47.4844 53.19 48.0795 53.19 48.7614C53.19 49.4375 53.065 50.0284 52.815 50.5341C52.5678 51.0398 52.2212 51.4332 51.7752 51.7145C51.332 51.9957 50.815 52.1364 50.2241 52.1364ZM50.2241 51.233C50.6729 51.233 51.0423 51.1179 51.332 50.8878C51.6218 50.6577 51.8363 50.3551 51.9755 49.9801C52.1147 49.6051 52.1843 49.1989 52.1843 48.7614C52.1843 48.3239 52.1147 47.9162 51.9755 47.5384C51.8363 47.1605 51.6218 46.8551 51.332 46.6222C51.0423 46.3892 50.6729 46.2727 50.2241 46.2727C49.7752 46.2727 49.4059 46.3892 49.1161 46.6222C48.8263 46.8551 48.6119 47.1605 48.4727 47.5384C48.3335 47.9162 48.2638 48.3239 48.2638 48.7614C48.2638 49.1989 48.3335 49.6051 48.4727 49.9801C48.6119 50.3551 48.8263 50.6577 49.1161 50.8878C49.4059 51.1179 49.7752 51.233 50.2241 51.233ZM54.7251 52V45.4545H55.7308V52H54.7251ZM55.2365 44.3636C55.0405 44.3636 54.8714 44.2969 54.7294 44.1634C54.5902 44.0298 54.5206 43.8693 54.5206 43.6818C54.5206 43.4943 54.5902 43.3338 54.7294 43.2003C54.8714 43.0668 55.0405 43 55.2365 43C55.4325 43 55.6001 43.0668 55.7393 43.2003C55.8814 43.3338 55.9524 43.4943 55.9524 43.6818C55.9524 43.8693 55.8814 44.0298 55.7393 44.1634C55.6001 44.2969 55.4325 44.3636 55.2365 44.3636ZM58.5785 48.0625V52H57.5728V45.4545H58.5444V46.4773H58.6296C58.783 46.1449 59.016 45.8778 59.3285 45.6761C59.641 45.4716 60.0444 45.3693 60.5387 45.3693C60.9819 45.3693 61.3697 45.4602 61.7021 45.642C62.0344 45.821 62.293 46.0938 62.4776 46.4602C62.6623 46.8239 62.7546 47.2841 62.7546 47.8409V52H61.7489V47.9091C61.7489 47.3949 61.6154 46.9943 61.3484 46.7074C61.0813 46.4176 60.7148 46.2727 60.2489 46.2727C59.9279 46.2727 59.641 46.3423 59.3881 46.4815C59.1381 46.6207 58.9407 46.8239 58.7958 47.0909C58.6509 47.358 58.5785 47.6818 58.5785 48.0625ZM70.8139 45.4545V46.3068H67.4219V45.4545H70.8139ZM68.4105 43.8864H69.4162V50.125C69.4162 50.4091 69.4574 50.6222 69.5398 50.7642C69.625 50.9034 69.733 50.9972 69.8636 51.0455C69.9972 51.0909 70.1378 51.1136 70.2855 51.1136C70.3963 51.1136 70.4872 51.108 70.5582 51.0966C70.6293 51.0824 70.6861 51.071 70.7287 51.0625L70.9332 51.9659C70.8651 51.9915 70.7699 52.017 70.6477 52.0426C70.5256 52.071 70.3707 52.0852 70.1832 52.0852C69.8991 52.0852 69.6207 52.0241 69.348 51.902C69.0781 51.7798 68.8537 51.5938 68.6747 51.3438C68.4986 51.0938 68.4105 50.7784 68.4105 50.3977V43.8864ZM74.9155 52.1364C74.3246 52.1364 73.8061 51.9957 73.3601 51.7145C72.9169 51.4332 72.5703 51.0398 72.3203 50.5341C72.0732 50.0284 71.9496 49.4375 71.9496 48.7614C71.9496 48.0795 72.0732 47.4844 72.3203 46.9759C72.5703 46.4673 72.9169 46.0724 73.3601 45.7912C73.8061 45.5099 74.3246 45.3693 74.9155 45.3693C75.5064 45.3693 76.0234 45.5099 76.4666 45.7912C76.9126 46.0724 77.2592 46.4673 77.5064 46.9759C77.7564 47.4844 77.8814 48.0795 77.8814 48.7614C77.8814 49.4375 77.7564 50.0284 77.5064 50.5341C77.2592 51.0398 76.9126 51.4332 76.4666 51.7145C76.0234 51.9957 75.5064 52.1364 74.9155 52.1364ZM74.9155 51.233C75.3643 51.233 75.7337 51.1179 76.0234 50.8878C76.3132 50.6577 76.5277 50.3551 76.6669 49.9801C76.8061 49.6051 76.8757 49.1989 76.8757 48.7614C76.8757 48.3239 76.8061 47.9162 76.6669 47.5384C76.5277 47.1605 76.3132 46.8551 76.0234 46.6222C75.7337 46.3892 75.3643 46.2727 74.9155 46.2727C74.4666 46.2727 74.0973 46.3892 73.8075 46.6222C73.5178 46.8551 73.3033 47.1605 73.1641 47.5384C73.0249 47.9162 72.9553 48.3239 72.9553 48.7614C72.9553 49.1989 73.0249 49.6051 73.1641 49.9801C73.3033 50.3551 73.5178 50.6577 73.8075 50.8878C74.0973 51.1179 74.4666 51.233 74.9155 51.233ZM86.2688 43.2727H87.3256V49.5114C87.3256 50.0682 87.2234 50.5412 87.0188 50.9304C86.8143 51.3196 86.5259 51.6151 86.1538 51.8168C85.7816 52.0185 85.3427 52.1193 84.837 52.1193C84.3597 52.1193 83.935 52.0327 83.5629 51.8594C83.1907 51.6832 82.8981 51.4332 82.685 51.1094C82.4719 50.7855 82.3654 50.4006 82.3654 49.9545H83.4052C83.4052 50.2017 83.4663 50.4176 83.5884 50.6023C83.7134 50.7841 83.8839 50.9261 84.0998 51.0284C84.3157 51.1307 84.5614 51.1818 84.837 51.1818C85.141 51.1818 85.3995 51.1179 85.6126 50.9901C85.8256 50.8622 85.9876 50.6747 86.0984 50.4276C86.212 50.1776 86.2688 49.8722 86.2688 49.5114V43.2727ZM91.2333 52.1534C90.8185 52.1534 90.4421 52.0753 90.104 51.919C89.766 51.7599 89.4975 51.5312 89.2987 51.233C89.0998 50.9318 89.0004 50.5682 89.0004 50.142C89.0004 49.767 89.0742 49.4631 89.2219 49.2301C89.3697 48.9943 89.5671 48.8097 89.8143 48.6761C90.0614 48.5426 90.3342 48.4432 90.6325 48.3778C90.9336 48.3097 91.2362 48.2557 91.5401 48.2159C91.9379 48.1648 92.2603 48.1264 92.5075 48.1009C92.7575 48.0724 92.9393 48.0256 93.0529 47.9602C93.1694 47.8949 93.2276 47.7812 93.2276 47.6193V47.5852C93.2276 47.1648 93.1126 46.8381 92.8825 46.6051C92.6552 46.3722 92.31 46.2557 91.8469 46.2557C91.3668 46.2557 90.9904 46.3608 90.7177 46.571C90.445 46.7812 90.2532 47.0057 90.1424 47.2443L89.1879 46.9034C89.3583 46.5057 89.5856 46.196 89.8697 45.9744C90.1566 45.75 90.4691 45.5937 90.8072 45.5057C91.1481 45.4148 91.4833 45.3693 91.8129 45.3693C92.0231 45.3693 92.2646 45.3949 92.5373 45.446C92.8129 45.4943 93.0785 45.5952 93.3342 45.7486C93.5927 45.902 93.8072 46.1335 93.9776 46.4432C94.1481 46.7528 94.2333 47.1676 94.2333 47.6875V52H93.2276V51.1136H93.1765C93.1083 51.2557 92.9947 51.4077 92.8356 51.5696C92.6765 51.7315 92.4648 51.8693 92.2006 51.983C91.9364 52.0966 91.614 52.1534 91.2333 52.1534ZM91.3867 51.25C91.7844 51.25 92.1197 51.1719 92.3924 51.0156C92.668 50.8594 92.8754 50.6577 93.0146 50.4105C93.1566 50.1634 93.2276 49.9034 93.2276 49.6307V48.7102C93.185 48.7614 93.0913 48.8082 92.9464 48.8509C92.8043 48.8906 92.6396 48.9261 92.4521 48.9574C92.2674 48.9858 92.087 49.0114 91.9109 49.0341C91.7376 49.054 91.5969 49.071 91.489 49.0852C91.2276 49.1193 90.9833 49.1747 90.756 49.2514C90.5316 49.3253 90.3498 49.4375 90.2106 49.5881C90.0742 49.7358 90.006 49.9375 90.006 50.1932C90.006 50.5426 90.1353 50.8068 90.3938 50.9858C90.6552 51.1619 90.9862 51.25 91.3867 51.25ZM96.0689 54.4545V45.4545H97.0405V46.4943H97.1598C97.2337 46.3807 97.3359 46.2358 97.4666 46.0597C97.6001 45.8807 97.7905 45.7216 98.0376 45.5824C98.2876 45.4403 98.6257 45.3693 99.0518 45.3693C99.603 45.3693 100.089 45.5071 100.509 45.7827C100.93 46.0582 101.258 46.4489 101.494 46.9545C101.729 47.4602 101.847 48.0568 101.847 48.7443C101.847 49.4375 101.729 50.0384 101.494 50.5469C101.258 51.0526 100.931 51.4446 100.513 51.723C100.096 51.9986 99.6143 52.1364 99.0689 52.1364C98.6484 52.1364 98.3118 52.0668 98.0589 51.9276C97.8061 51.7855 97.6115 51.625 97.4751 51.446C97.3388 51.2642 97.2337 51.1136 97.1598 50.9943H97.0746V54.4545H96.0689ZM97.0575 48.7273C97.0575 49.2216 97.13 49.6577 97.2749 50.0355C97.4197 50.4105 97.6314 50.7045 97.9098 50.9176C98.1882 51.1278 98.5291 51.233 98.9325 51.233C99.353 51.233 99.7038 51.1222 99.9851 50.9006C100.269 50.6761 100.482 50.375 100.624 49.9972C100.769 49.6165 100.842 49.1932 100.842 48.7273C100.842 48.267 100.771 47.8523 100.629 47.483C100.489 47.1108 100.278 46.8168 99.9936 46.6009C99.7124 46.3821 99.3587 46.2727 98.9325 46.2727C98.5234 46.2727 98.1797 46.3764 97.9013 46.5838C97.6229 46.7884 97.4126 47.0753 97.2706 47.4446C97.1286 47.8111 97.0575 48.2386 97.0575 48.7273ZM105.308 52.1534C104.893 52.1534 104.516 52.0753 104.178 51.919C103.84 51.7599 103.572 51.5312 103.373 51.233C103.174 50.9318 103.075 50.5682 103.075 50.142C103.075 49.767 103.148 49.4631 103.296 49.2301C103.444 48.9943 103.641 48.8097 103.888 48.6761C104.136 48.5426 104.408 48.4432 104.707 48.3778C105.008 48.3097 105.31 48.2557 105.614 48.2159C106.012 48.1648 106.335 48.1264 106.582 48.1009C106.832 48.0724 107.013 48.0256 107.127 47.9602C107.244 47.8949 107.302 47.7812 107.302 47.6193V47.5852C107.302 47.1648 107.187 46.8381 106.957 46.6051C106.729 46.3722 106.384 46.2557 105.921 46.2557C105.441 46.2557 105.065 46.3608 104.792 46.571C104.519 46.7812 104.327 47.0057 104.217 47.2443L103.262 46.9034C103.433 46.5057 103.66 46.196 103.944 45.9744C104.231 45.75 104.543 45.5937 104.881 45.5057C105.222 45.4148 105.558 45.3693 105.887 45.3693C106.097 45.3693 106.339 45.3949 106.612 45.446C106.887 45.4943 107.153 45.5952 107.408 45.7486C107.667 45.902 107.881 46.1335 108.052 46.4432C108.222 46.7528 108.308 47.1676 108.308 47.6875V52H107.302V51.1136H107.251C107.183 51.2557 107.069 51.4077 106.91 51.5696C106.751 51.7315 106.539 51.8693 106.275 51.983C106.011 52.0966 105.688 52.1534 105.308 52.1534ZM105.461 51.25C105.859 51.25 106.194 51.1719 106.467 51.0156C106.742 50.8594 106.95 50.6577 107.089 50.4105C107.231 50.1634 107.302 49.9034 107.302 49.6307V48.7102C107.259 48.7614 107.165 48.8082 107.021 48.8509C106.879 48.8906 106.714 48.9261 106.526 48.9574C106.342 48.9858 106.161 49.0114 105.985 49.0341C105.812 49.054 105.671 49.071 105.563 49.0852C105.302 49.1193 105.058 49.1747 104.83 49.2514C104.606 49.3253 104.424 49.4375 104.285 49.5881C104.148 49.7358 104.08 49.9375 104.08 50.1932C104.08 50.5426 104.21 50.8068 104.468 50.9858C104.729 51.1619 105.06 51.25 105.461 51.25ZM111.149 48.0625V52H110.143V45.4545H111.115V46.4773H111.2C111.353 46.1449 111.586 45.8778 111.899 45.6761C112.211 45.4716 112.615 45.3693 113.109 45.3693C113.552 45.3693 113.94 45.4602 114.272 45.642C114.605 45.821 114.863 46.0938 115.048 46.4602C115.233 46.8239 115.325 47.2841 115.325 47.8409V52H114.319V47.9091C114.319 47.3949 114.186 46.9943 113.919 46.7074C113.652 46.4176 113.285 46.2727 112.819 46.2727C112.498 46.2727 112.211 46.3423 111.958 46.4815C111.708 46.6207 111.511 46.8239 111.366 47.0909C111.221 47.358 111.149 47.6818 111.149 48.0625ZM119.907 52.1364C119.276 52.1364 118.732 51.9972 118.275 51.7188C117.82 51.4375 117.469 51.0455 117.222 50.5426C116.978 50.0369 116.856 49.4489 116.856 48.7784C116.856 48.108 116.978 47.517 117.222 47.0057C117.469 46.4915 117.813 46.0909 118.254 45.804C118.697 45.5142 119.214 45.3693 119.805 45.3693C120.146 45.3693 120.482 45.4261 120.815 45.5398C121.147 45.6534 121.45 45.8381 121.722 46.0938C121.995 46.3466 122.212 46.6818 122.374 47.0994C122.536 47.517 122.617 48.0312 122.617 48.642V49.0682H117.572V48.1989H121.594C121.594 47.8295 121.521 47.5 121.373 47.2102C121.228 46.9205 121.021 46.6918 120.751 46.5241C120.484 46.3565 120.168 46.2727 119.805 46.2727C119.404 46.2727 119.058 46.3722 118.765 46.571C118.475 46.767 118.252 47.0227 118.096 47.3381C117.94 47.6534 117.862 47.9915 117.862 48.3523V48.9318C117.862 49.4261 117.947 49.8452 118.117 50.1889C118.29 50.5298 118.531 50.7898 118.837 50.9688C119.144 51.1449 119.501 51.233 119.907 51.233C120.171 51.233 120.41 51.196 120.623 51.1222C120.839 51.0455 121.025 50.9318 121.181 50.7812C121.337 50.6278 121.458 50.4375 121.543 50.2102L122.515 50.483C122.413 50.8125 122.241 51.1023 121.999 51.3523C121.758 51.5994 121.46 51.7926 121.104 51.9318C120.749 52.0682 120.35 52.1364 119.907 52.1364ZM128.783 46.9205L127.88 47.1761C127.823 47.0256 127.739 46.8793 127.629 46.7372C127.521 46.5923 127.373 46.473 127.185 46.3793C126.998 46.2855 126.758 46.2386 126.465 46.2386C126.065 46.2386 125.731 46.331 125.464 46.5156C125.2 46.6974 125.067 46.929 125.067 47.2102C125.067 47.4602 125.158 47.6577 125.34 47.8026C125.522 47.9474 125.806 48.0682 126.192 48.1648L127.164 48.4034C127.749 48.5455 128.185 48.7628 128.472 49.0554C128.759 49.3452 128.903 49.7187 128.903 50.1761C128.903 50.5511 128.795 50.8864 128.579 51.1818C128.366 51.4773 128.067 51.7102 127.684 51.8807C127.3 52.0511 126.854 52.1364 126.346 52.1364C125.678 52.1364 125.126 51.9915 124.688 51.7017C124.251 51.4119 123.974 50.9886 123.857 50.4318L124.812 50.1932C124.903 50.5455 125.075 50.8097 125.327 50.9858C125.583 51.1619 125.917 51.25 126.329 51.25C126.798 51.25 127.17 51.1506 127.445 50.9517C127.724 50.75 127.863 50.5085 127.863 50.2273C127.863 50 127.783 49.8097 127.624 49.6562C127.465 49.5 127.221 49.3835 126.891 49.3068L125.8 49.0511C125.201 48.9091 124.761 48.6889 124.479 48.3906C124.201 48.0895 124.062 47.7131 124.062 47.2614C124.062 46.892 124.165 46.5653 124.373 46.2812C124.583 45.9972 124.869 45.7741 125.229 45.6122C125.593 45.4503 126.005 45.3693 126.465 45.3693C127.113 45.3693 127.621 45.5114 127.991 45.7955C128.363 46.0795 128.627 46.4545 128.783 46.9205ZM133.161 52.1364C132.53 52.1364 131.986 51.9972 131.529 51.7188C131.074 51.4375 130.723 51.0455 130.476 50.5426C130.232 50.0369 130.11 49.4489 130.11 48.7784C130.11 48.108 130.232 47.517 130.476 47.0057C130.723 46.4915 131.067 46.0909 131.507 45.804C131.951 45.5142 132.468 45.3693 133.059 45.3693C133.4 45.3693 133.736 45.4261 134.069 45.5398C134.401 45.6534 134.703 45.8381 134.976 46.0938C135.249 46.3466 135.466 46.6818 135.628 47.0994C135.79 47.517 135.871 48.0312 135.871 48.642V49.0682H130.826V48.1989H134.848C134.848 47.8295 134.775 47.5 134.627 47.2102C134.482 46.9205 134.275 46.6918 134.005 46.5241C133.738 46.3565 133.422 46.2727 133.059 46.2727C132.658 46.2727 132.311 46.3722 132.019 46.571C131.729 46.767 131.506 47.0227 131.35 47.3381C131.194 47.6534 131.115 47.9915 131.115 48.3523V48.9318C131.115 49.4261 131.201 49.8452 131.371 50.1889C131.544 50.5298 131.784 50.7898 132.091 50.9688C132.398 51.1449 132.755 51.233 133.161 51.233C133.425 51.233 133.664 51.196 133.877 51.1222C134.093 51.0455 134.279 50.9318 134.435 50.7812C134.591 50.6278 134.712 50.4375 134.797 50.2102L135.769 50.483C135.667 50.8125 135.495 51.1023 135.253 51.3523C135.012 51.5994 134.713 51.7926 134.358 51.9318C134.003 52.0682 133.604 52.1364 133.161 52.1364ZM140.162 43.2727H141.373L143.793 47.3466H143.895L146.316 43.2727H147.526L144.373 48.4034V52H143.316V48.4034L140.162 43.2727ZM150.575 52.1364C149.944 52.1364 149.4 51.9972 148.943 51.7188C148.488 51.4375 148.137 51.0455 147.89 50.5426C147.646 50.0369 147.524 49.4489 147.524 48.7784C147.524 48.108 147.646 47.517 147.89 47.0057C148.137 46.4915 148.481 46.0909 148.922 45.804C149.365 45.5142 149.882 45.3693 150.473 45.3693C150.814 45.3693 151.15 45.4261 151.483 45.5398C151.815 45.6534 152.118 45.8381 152.39 46.0938C152.663 46.3466 152.88 46.6818 153.042 47.0994C153.204 47.517 153.285 48.0312 153.285 48.642V49.0682H148.24V48.1989H152.262C152.262 47.8295 152.189 47.5 152.041 47.2102C151.896 46.9205 151.689 46.6918 151.419 46.5241C151.152 46.3565 150.836 46.2727 150.473 46.2727C150.072 46.2727 149.725 46.3722 149.433 46.571C149.143 46.767 148.92 47.0227 148.764 47.3381C148.608 47.6534 148.529 47.9915 148.529 48.3523V48.9318C148.529 49.4261 148.615 49.8452 148.785 50.1889C148.958 50.5298 149.199 50.7898 149.505 50.9688C149.812 51.1449 150.169 51.233 150.575 51.233C150.839 51.233 151.078 51.196 151.291 51.1222C151.507 51.0455 151.693 50.9318 151.849 50.7812C152.005 50.6278 152.126 50.4375 152.211 50.2102L153.183 50.483C153.081 50.8125 152.909 51.1023 152.667 51.3523C152.426 51.5994 152.127 51.7926 151.772 51.9318C151.417 52.0682 151.018 52.1364 150.575 52.1364ZM155.821 48.0625V52H154.815V45.4545H155.787V46.4773H155.872C156.025 46.1449 156.258 45.8778 156.571 45.6761C156.883 45.4716 157.287 45.3693 157.781 45.3693C158.224 45.3693 158.612 45.4602 158.944 45.642C159.277 45.821 159.535 46.0938 159.72 46.4602C159.904 46.8239 159.997 47.2841 159.997 47.8409V52H158.991V47.9091C158.991 47.3949 158.858 46.9943 158.591 46.7074C158.324 46.4176 157.957 46.2727 157.491 46.2727C157.17 46.2727 156.883 46.3423 156.63 46.4815C156.38 46.6207 156.183 46.8239 156.038 47.0909C155.893 47.358 155.821 47.6818 155.821 48.0625Z" fill="#FFEEB3"/>
<path d="M26.1477 33V21.3636H30.6023C31.4432 21.3636 32.142 21.4962 32.6989 21.7614C33.2595 22.0227 33.678 22.3807 33.9545 22.8352C34.2348 23.2898 34.375 23.8049 34.375 24.3807C34.375 24.8542 34.2841 25.2595 34.1023 25.5966C33.9205 25.9299 33.6761 26.2008 33.3693 26.4091C33.0625 26.6174 32.7197 26.767 32.3409 26.858V26.9716C32.7538 26.9943 33.1496 27.1212 33.5284 27.3523C33.911 27.5795 34.2235 27.9015 34.4659 28.3182C34.7083 28.7348 34.8295 29.2386 34.8295 29.8295C34.8295 30.4318 34.6837 30.9735 34.392 31.4545C34.1004 31.9318 33.661 32.3087 33.0739 32.5852C32.4867 32.8617 31.7481 33 30.858 33H26.1477ZM28.2557 31.2386H30.5227C31.2879 31.2386 31.839 31.0928 32.1761 30.8011C32.517 30.5057 32.6875 30.1269 32.6875 29.6648C32.6875 29.3201 32.6023 29.0095 32.4318 28.733C32.2614 28.4527 32.0189 28.233 31.7045 28.0739C31.3902 27.911 31.0152 27.8295 30.5795 27.8295H28.2557V31.2386ZM28.2557 26.3125H30.3409C30.7045 26.3125 31.0322 26.2462 31.3239 26.1136C31.6155 25.9773 31.8447 25.786 32.0114 25.5398C32.1818 25.2898 32.267 24.9943 32.267 24.6534C32.267 24.2027 32.108 23.8314 31.7898 23.5398C31.4754 23.2481 31.0076 23.1023 30.3864 23.1023H28.2557V26.3125ZM36.652 23.1307V21.3636H45.9361V23.1307H42.3395V33H40.2486V23.1307H36.652ZM57.6705 25.2898H55.5455C55.4848 24.9413 55.3731 24.6326 55.2102 24.3636C55.0473 24.0909 54.8447 23.8598 54.6023 23.6705C54.3598 23.4811 54.0833 23.339 53.7727 23.2443C53.4659 23.1458 53.1345 23.0966 52.7784 23.0966C52.1458 23.0966 51.5852 23.2557 51.0966 23.5739C50.608 23.8883 50.2254 24.3504 49.9489 24.9602C49.6723 25.5663 49.5341 26.3068 49.5341 27.1818C49.5341 28.072 49.6723 28.822 49.9489 29.4318C50.2292 30.0379 50.6117 30.4962 51.0966 30.8068C51.5852 31.1136 52.1439 31.267 52.7727 31.267C53.1212 31.267 53.447 31.2216 53.75 31.1307C54.0568 31.036 54.3314 30.8977 54.5739 30.7159C54.8201 30.5341 55.0265 30.3106 55.1932 30.0455C55.3636 29.7803 55.4811 29.4773 55.5455 29.1364L57.6705 29.1477C57.5909 29.7008 57.4186 30.2197 57.1534 30.7045C56.892 31.1894 56.5492 31.6174 56.125 31.9886C55.7008 32.3561 55.2045 32.6439 54.6364 32.8523C54.0682 33.0568 53.4375 33.1591 52.7443 33.1591C51.7216 33.1591 50.8087 32.9223 50.0057 32.4489C49.2027 31.9754 48.5701 31.2917 48.108 30.3977C47.6458 29.5038 47.4148 28.4318 47.4148 27.1818C47.4148 25.928 47.6477 24.8561 48.1136 23.9659C48.5795 23.072 49.214 22.3883 50.017 21.9148C50.8201 21.4413 51.7292 21.2045 52.7443 21.2045C53.392 21.2045 53.9943 21.2955 54.5511 21.4773C55.108 21.6591 55.6042 21.9261 56.0398 22.2784C56.4754 22.6269 56.8333 23.0549 57.1136 23.5625C57.3977 24.0663 57.5833 24.642 57.6705 25.2898ZM64.7599 20.8182L61.0099 34.75H59.2088L62.9588 20.8182H64.7599ZM70.2543 21.3636H72.3452V29.5455C72.3414 30.2955 72.1823 30.9413 71.8679 31.483C71.5535 32.0208 71.1141 32.4356 70.5497 32.7273C69.9891 33.0152 69.3357 33.1591 68.5895 33.1591C67.9077 33.1591 67.294 33.0379 66.7486 32.7955C66.2069 32.5492 65.777 32.1856 65.4588 31.7045C65.1406 31.2235 64.9815 30.625 64.9815 29.9091H67.0781C67.0819 30.2235 67.1501 30.4943 67.2827 30.7216C67.419 30.9489 67.6065 31.1231 67.8452 31.2443C68.0838 31.3655 68.3584 31.4261 68.669 31.4261C69.0062 31.4261 69.2921 31.3561 69.527 31.2159C69.7618 31.072 69.9399 30.8598 70.0611 30.5795C70.1861 30.2992 70.2505 29.9545 70.2543 29.5455V21.3636ZM75.1321 33V21.3636H79.4957C80.3897 21.3636 81.1397 21.5303 81.7457 21.8636C82.3556 22.197 82.8158 22.6553 83.1264 23.2386C83.4408 23.8182 83.598 24.4773 83.598 25.2159C83.598 25.9621 83.4408 26.625 83.1264 27.2045C82.812 27.7841 82.348 28.2405 81.7344 28.5739C81.1207 28.9034 80.3651 29.0682 79.4673 29.0682H76.5753V27.3352H79.1832C79.706 27.3352 80.134 27.2443 80.4673 27.0625C80.8007 26.8807 81.0469 26.6307 81.206 26.3125C81.3688 25.9943 81.4503 25.6288 81.4503 25.2159C81.4503 24.803 81.3688 24.4394 81.206 24.125C81.0469 23.8106 80.7988 23.5663 80.4616 23.392C80.1283 23.214 79.6984 23.125 79.1719 23.125H77.2401V33H75.1321ZM85.1335 21.3636H87.5142L90.3608 26.5114H90.4744L93.321 21.3636H95.7017L91.4688 28.6591V33H89.3665V28.6591L85.1335 21.3636Z" fill="white"/>
</g>
</g>
<defs>
<clipPath id="clip0_0_1187">
<rect width="263" height="170" fill="white"/>
</clipPath>
</defs>
</svg>
